<svg width="915" height="430" xmlns="http://www.w3.org/2000/svg" xmlns:xlink="http://www.w3.org/1999/xlink" overflow="hidden"><defs><filter id="fx0" x="-10%" y="-10%" width="120%" height="120%" filterUnits="userSpaceOnUse" primitiveUnits="userSpaceOnUse"><feComponentTransfer color-interpolation-filters="sRGB"><feFuncR type="discrete" tableValues="0 0"/><feFuncG type="discrete" tableValues="0 0"/><feFuncB type="discrete" tableValues="0 0"/><feFuncA type="linear" slope="0.631373" intercept="0"/></feComponentTransfer><feGaussianBlur stdDeviation="6.875 6.875"/></filter><filter id="fx1" x="-10%" y="-10%" width="120%" height="120%" filterUnits="userSpaceOnUse" primitiveUnits="userSpaceOnUse"><feComponentTransfer color-interpolation-filters="sRGB"><feFuncR type="discrete" tableValues="0 0"/><feFuncG type="discrete" tableValues="0 0"/><feFuncB type="discrete" tableValues="0 0"/><feFuncA type="linear" slope="0.631373" intercept="0"/></feComponentTransfer><feGaussianBlur stdDeviation="6.875 6.875"/></filter><clipPath id="clip2"><rect x="2775" y="1815" width="915" height="430"/></clipPath><clipPath id="clip3"><rect x="-17" y="-17" width="298" height="158"/></clipPath><clipPath id="clip4"><rect x="0" y="0" width="900" height="424"/></clipPath><clipPath id="clip5"><rect x="-3" y="-6" width="214" height="88"/></clipPath><clipPath id="clip6"><rect x="0" y="0" width="695" height="267"/></clipPath><linearGradient x1="3241" y1="1837" x2="3241" y2="2217" gradientUnits="userSpaceOnUse" spreadMethod="reflect" id="fill7"><stop offset="0" stop-color="#6083CB"/><stop offset="0.5" stop-color="#3E70CA"/><stop offset="1" stop-color="#2E61BA"/></linearGradient></defs><g clip-path="url(#clip2)" transform="translate(-2775 -1815)"><g clip-path="url(#clip3)" filter="url(#fx0)" transform="translate(2791 1822)"><g clip-path="url(#clip4)"><rect x="22" y="21.875" width="856" height="380" fill="#FF0000"/></g></g><g clip-path="url(#clip5)" filter="url(#fx1)" transform="translate(2774 1814)"><g clip-path="url(#clip6)"><path d="M40.1626-35.9072C40.1626-35.2588 40.1221-34.7117 40.041-34.2659 39.96-33.8201 39.8519-33.4621 39.7168-33.1919 39.5817-32.9217 39.4128-32.7258 39.2102-32.6042 39.0076-32.4827 38.7982-32.4219 38.582-32.4219L33.9619-32.4219 32.584-20.8716 36.5557-20.8716C37.015-20.8716 37.3865-20.6082 37.6702-20.0813 37.9538-19.5544 38.0957-18.6696 38.0957-17.4268 38.0957-16.7783 38.0552-16.2244 37.9741-15.7651 37.8931-15.3058 37.785-14.9411 37.6499-14.6709 37.5148-14.4007 37.3459-14.2048 37.1433-14.0833 36.9407-13.9617 36.7313-13.9009 36.5151-13.9009L31.6924-13.9009 30.1929-1.21582C30.1659-0.972656 30.0916-0.763265 29.97-0.587646 29.8484-0.412028 29.6322-0.256673 29.3215-0.121582 29.0108 0.0135091 28.592 0.108073 28.0652 0.162109 27.5383 0.216146 26.8696 0.243164 26.0591 0.243164 25.1945 0.243164 24.4988 0.216146 23.9719 0.162109 23.4451 0.108073 23.0465 0.0135091 22.7764-0.121582 22.5062-0.256673 22.3238-0.412028 22.2292-0.587646 22.1347-0.763265 22.1009-0.972656 22.1279-1.21582L23.668-13.9009 14.5898-13.9009 13.0903-1.21582C13.0633-0.999674 12.989-0.797038 12.8674-0.60791 12.7458-0.418783 12.5365-0.256673 12.2393-0.121582 11.9421 0.0135091 11.53 0.108073 11.0032 0.162109 10.4763 0.216146 9.7806 0.243164 8.91601 0.243164 8.07845 0.243164 7.40299 0.216146 6.88965 0.162109 6.3763 0.108073 5.97778 0.0135091 5.69409-0.121582 5.4104-0.256673 5.22127-0.412028 5.12671-0.587646 5.03214-0.763265 5.01188-0.972656 5.06592-1.21582L6.5249-13.9009 2.6748-13.9009C2.21549-13.9009 1.84399-14.1576 1.5603-14.6709 1.27661-15.1842 1.13477-16.0758 1.13477-17.3457 1.13477-17.9941 1.17529-18.548 1.25635-19.0073 1.3374-19.4666 1.44548-19.8314 1.58057-20.1016 1.71566-20.3717 1.87777-20.5676 2.06689-20.6892 2.25602-20.8108 2.47217-20.8716 2.71533-20.8716L7.4165-20.8716 8.79443-32.4219 4.70117-32.4219C4.24186-32.4219 3.87036-32.6785 3.58667-33.1919 3.30298-33.7052 3.16113-34.5968 3.16113-35.8667 3.16113-37.1636 3.30973-38.0687 3.60693-38.582 3.90413-39.0954 4.28239-39.352 4.7417-39.352L9.60498-39.352 11.064-51.186C11.064-51.4292 11.1315-51.6386 11.2666-51.8142 11.4017-51.9898 11.6313-52.1452 11.9556-52.2803 12.2798-52.4154 12.7121-52.5167 13.2524-52.5842 13.7928-52.6518 14.4818-52.6855 15.3193-52.6855 16.1569-52.6855 16.8324-52.6518 17.3457-52.5842 17.859-52.5167 18.2508-52.4154 18.521-52.2803 18.7912-52.1452 18.96-51.9898 19.0276-51.8142 19.0951-51.6386 19.1289-51.4427 19.1289-51.2266L17.6294-39.352 26.7075-39.352 28.0854-51.186C28.1125-51.4022 28.1935-51.6048 28.3286-51.7939 28.4637-51.9831 28.6866-52.1452 28.9973-52.2803 29.308-52.4154 29.7336-52.5167 30.2739-52.5842 30.8143-52.6518 31.5168-52.6855 32.3813-52.6855 33.2189-52.6855 33.8944-52.6518 34.4077-52.5842 34.9211-52.5167 35.3128-52.4154 35.583-52.2803 35.8532-52.1452 36.022-51.9898 36.0896-51.8142 36.1571-51.6386 36.1774-51.4427 36.1504-51.2266L34.7319-39.352 38.6226-39.352C39.0819-39.352 39.4534-39.0886 39.7371-38.5618 40.0207-38.0349 40.1626-37.1501 40.1626-35.9072ZM16.8188-32.4219 15.4409-20.8716 24.4785-20.8716 25.897-32.4219ZM64.6748 10.0508C64.6748 11.4017 64.5532 12.3473 64.3101 12.8877 64.0669 13.4281 63.7156 13.6982 63.2563 13.6982L50.7334 13.6982C50.2741 13.6982 49.8553 13.6307 49.477 13.4956 49.0988 13.3605 48.7746 13.1579 48.5044 12.8877 48.2342 12.6175 48.0181 12.2663 47.856 11.834 47.6938 11.4017 47.6128 10.8883 47.6128 10.2939L47.6128-53.9824C47.6128-54.5498 47.6938-55.0496 47.856-55.4819 48.0181-55.9142 48.2342-56.2722 48.5044-56.5559 48.7746-56.8396 49.0988-57.0422 49.477-57.1638 49.8553-57.2854 50.2741-57.3462 50.7334-57.3462L63.2563-57.3462C63.4725-57.3462 63.6751-57.2854 63.8643-57.1638 64.0534-57.0422 64.2087-56.8396 64.3303-56.5559 64.4519-56.2722 64.5397-55.9007 64.5937-55.4414 64.6478-54.9821 64.6748-54.4012 64.6748-53.6987 64.6748-52.3208 64.5532-51.3684 64.3101-50.8415 64.0669-50.3147 63.7156-50.0513 63.2563-50.0513L57.1367-50.0513 57.1367 6.40332 63.2563 6.40332C63.4725 6.40332 63.6751 6.45736 63.8643 6.56543 64.0534 6.6735 64.2087 6.87614 64.3303 7.17334 64.4519 7.47054 64.5397 7.84879 64.5937 8.3081 64.6478 8.76741 64.6748 9.34831 64.6748 10.0508ZM104.084-1.25635C104.084-0.878092 103.949-0.580892 103.679-0.364746 103.409-0.1486 102.983 0.00675456 102.402 0.101318 101.822 0.195882 100.964 0.243164 99.8289 0.243164 98.6131 0.243164 97.7283 0.195882 97.1744 0.101318 96.6205 0.00675456 96.2288-0.1486 95.9991-0.364746 95.7694-0.580892 95.6546-0.878092 95.6546-1.25635L95.6546-4.13379C94.1686-2.53971 92.4732-1.29687 90.5684-0.405273 88.6637 0.486328 86.5495 0.932129 84.2259 0.932129 82.3076 0.932129 80.5447 0.68221 78.9371 0.182373 77.3295-0.317464 75.9381-1.06047 74.7628-2.04663 73.5875-3.0328 72.6756-4.25537 72.0272-5.71435 71.3787-7.17334 71.0545-8.87549 71.0545-10.8208 71.0545-12.9282 71.4665-14.7587 72.2906-16.3123 73.1147-17.8658 74.344-19.1492 75.9786-20.1624 77.6132-21.1755 79.6463-21.9253 82.078-22.4116 84.5096-22.8979 87.333-23.1411 90.5482-23.1411L94.0741-23.1411 94.0741-25.3296C94.0741-26.4644 93.9592-27.4573 93.7296-28.3083 93.4999-29.1594 93.1217-29.8686 92.5948-30.436 92.0679-31.0034 91.3655-31.4222 90.4874-31.6924 89.6093-31.9626 88.5218-32.0977 87.2249-32.0977 85.5228-32.0977 84.003-31.9085 82.6656-31.5303 81.3282-31.152 80.1461-30.7332 79.1195-30.2739 78.0928-29.8146 77.2349-29.3958 76.546-29.0176 75.857-28.6393 75.2964-28.4502 74.8641-28.4502 74.5669-28.4502 74.3035-28.5448 74.0738-28.7339 73.8441-28.923 73.655-29.1932 73.5064-29.5444 73.3578-29.8957 73.243-30.328 73.1619-30.8413 73.0809-31.3547 73.0404-31.922 73.0404-32.5435 73.0404-33.381 73.1079-34.043 73.243-34.5293 73.3781-35.0156 73.6348-35.4547 74.013-35.8464 74.3913-36.2382 75.0532-36.6705 75.9989-37.1433 76.9445-37.6161 78.0522-38.0552 79.3221-38.4604 80.5919-38.8657 81.9766-39.1967 83.4762-39.4534 84.9757-39.71 86.5225-39.8384 88.1165-39.8384 90.9534-39.8384 93.3783-39.5614 95.3912-39.0076 97.404-38.4537 99.0589-37.6026 100.356-36.4543 101.653-35.3061 102.598-33.8268 103.193-32.0166 103.787-30.2064 104.084-28.0584 104.084-25.5728ZM94.0741-16.7378 90.1834-16.7378C88.5353-16.7378 87.1304-16.6162 85.9686-16.373 84.8068-16.1299 83.8612-15.7651 83.1317-15.2788 82.4022-14.7925 81.8686-14.2048 81.5308-13.5159 81.1931-12.8269 81.0242-12.0366 81.0242-11.145 81.0242-9.632 81.5038-8.4432 82.463-7.57861 83.4221-6.71403 84.7528-6.28174 86.4549-6.28174 87.8869-6.28174 89.204-6.64648 90.4063-7.37598 91.6086-8.10547 92.8312-9.17269 94.0741-10.5776ZM141.317-7.13281C141.317-6.43034 141.296-5.84269 141.256-5.36987 141.215-4.89705 141.161-4.49853 141.094-4.17432 141.026-3.8501 140.945-3.58667 140.85-3.38403 140.756-3.1814 140.547-2.92472 140.222-2.61401 139.898-2.3033 139.344-1.92505 138.561-1.47925 137.777-1.03345 136.886-0.634928 135.886-0.283691 134.886 0.0675455 133.799 0.351237 132.623 0.567383 131.448 0.783529 130.239 0.891601 128.996 0.891602 126.213 0.891601 123.748 0.45931 121.6-0.405273 119.452-1.26986 117.649-2.54647 116.19-4.23511 114.731-5.92375 113.63-7.98389 112.887-10.4155 112.144-12.8472 111.772-15.63 111.772-18.7642 111.772-22.3846 112.225-25.512 113.13-28.1462 114.035-30.7805 115.298-32.9622 116.919-34.6914 118.54-36.4206 120.458-37.7039 122.674-38.5415 124.889-39.3791 127.321-39.7978 129.969-39.7978 131.05-39.7978 132.11-39.7033 133.15-39.5142 134.19-39.325 135.163-39.0684 136.068-38.7441 136.973-38.4199 137.784-38.0552 138.5-37.6499 139.216-37.2446 139.722-36.8934 140.02-36.5962 140.317-36.299 140.526-36.0491 140.648-35.8464 140.769-35.6438 140.864-35.3804 140.932-35.0561 140.999-34.7319 141.053-34.3334 141.094-33.8606 141.134-33.3878 141.154-32.8136 141.154-32.1382 141.154-30.5711 141.019-29.4701 140.749-28.8352 140.479-28.2003 140.128-27.8828 139.695-27.8828 139.236-27.8828 138.75-28.0719 138.236-28.4502 137.723-28.8284 137.115-29.2472 136.413-29.7065 135.71-30.1659 134.873-30.5846 133.9-30.9629 132.927-31.3411 131.766-31.5303 130.415-31.5303 127.767-31.5303 125.741-30.5103 124.336-28.4705 122.931-26.4306 122.228-23.4383 122.228-19.4937 122.228-17.5483 122.404-15.8327 122.755-14.3467 123.106-12.8607 123.626-11.6178 124.315-10.6182 125.004-9.61849 125.869-8.86873 126.909-8.3689 127.949-7.86906 129.158-7.61914 130.536-7.61914 131.941-7.61914 133.15-7.82853 134.163-8.24731 135.177-8.6661 136.062-9.13216 136.818-9.64551 137.575-10.1589 138.209-10.6249 138.723-11.0437 139.236-11.4625 139.668-11.6719 140.02-11.6719 140.263-11.6719 140.465-11.6043 140.628-11.4692 140.79-11.3341 140.918-11.0842 141.013-10.7195 141.107-10.3547 141.181-9.88867 141.236-9.32129 141.29-8.75391 141.317-8.02441 141.317-7.13281ZM175.692-7.13281C175.692-6.43034 175.671-5.84269 175.631-5.36987 175.59-4.89705 175.536-4.49853 175.469-4.17432 175.401-3.8501 175.32-3.58667 175.225-3.38403 175.131-3.1814 174.922-2.92472 174.597-2.61401 174.273-2.3033 173.719-1.92505 172.936-1.47925 172.152-1.03345 171.261-0.634928 170.261-0.283691 169.261 0.0675455 168.174 0.351237 166.998 0.567383 165.823 0.783529 164.614 0.891601 163.371 0.891602 160.588 0.891601 158.123 0.45931 155.975-0.405273 153.827-1.26986 152.024-2.54647 150.565-4.23511 149.106-5.92375 148.005-7.98389 147.262-10.4155 146.519-12.8472 146.147-15.63 146.147-18.7642 146.147-22.3846 146.6-25.512 147.505-28.1462 148.41-30.7805 149.673-32.9622 151.294-34.6914 152.915-36.4206 154.833-37.7039 157.049-38.5415 159.264-39.3791 161.696-39.7978 164.344-39.7978 165.425-39.7978 166.485-39.7033 167.525-39.5142 168.565-39.325 169.538-39.0684 170.443-38.7441 171.348-38.4199 172.159-38.0552 172.875-37.6499 173.591-37.2446 174.097-36.8934 174.395-36.5962 174.692-36.299 174.901-36.0491 175.023-35.8464 175.144-35.6438 175.239-35.3804 175.307-35.0561 175.374-34.7319 175.428-34.3334 175.469-33.8606 175.509-33.3878 175.529-32.8136 175.529-32.1382 175.529-30.5711 175.394-29.4701 175.124-28.8352 174.854-28.2003 174.503-27.8828 174.07-27.8828 173.611-27.8828 173.125-28.0719 172.611-28.4502 172.098-28.8284 171.49-29.2472 170.788-29.7065 170.085-30.1659 169.248-30.5846 168.275-30.9629 167.302-31.3411 166.141-31.5303 164.79-31.5303 162.142-31.5303 160.116-30.5103 158.711-28.4705 157.306-26.4306 156.603-23.4383 156.603-19.4937 156.603-17.5483 156.779-15.8327 157.13-14.3467 157.481-12.8607 158.001-11.6178 158.69-10.6182 159.379-9.61849 160.244-8.86873 161.284-8.3689 162.324-7.86906 163.533-7.61914 164.911-7.61914 166.316-7.61914 167.525-7.82853 168.538-8.24731 169.552-8.6661 170.437-9.13216 171.193-9.64551 171.95-10.1589 172.584-10.6249 173.098-11.0437 173.611-11.4625 174.043-11.6719 174.395-11.6719 174.638-11.6719 174.84-11.6043 175.003-11.4692 175.165-11.3341 175.293-11.0842 175.388-10.7195 175.482-10.3547 175.556-9.88867 175.611-9.32129 175.665-8.75391 175.692-8.02441 175.692-7.13281ZM218.854-19.8179C218.854-16.7378 218.448-13.9279 217.638-11.3882 216.827-8.84847 215.598-6.65999 213.95-4.82275 212.302-2.98551 210.235-1.56706 207.749-0.567383 205.264 0.432292 202.359 0.932129 199.036 0.932129 195.821 0.932129 193.024 0.486328 190.647-0.405273 188.269-1.29687 186.297-2.59375 184.73-4.2959 183.163-5.99805 182.001-8.09196 181.244-10.5776 180.488-13.0633 180.11-15.9002 180.11-19.0884 180.11-22.1685 180.522-24.9851 181.346-27.5383 182.17-30.0915 183.406-32.28 185.054-34.1038 186.702-35.9275 188.762-37.3392 191.234-38.3389 193.707-39.3385 196.604-39.8384 199.927-39.8384 203.17-39.8384 205.98-39.3993 208.357-38.5212 210.735-37.6431 212.7-36.353 214.254-34.6509 215.807-32.9487 216.962-30.8548 217.719-28.3691 218.475-25.8835 218.854-23.033 218.854-19.8179ZM208.357-19.4126C208.357-21.1958 208.215-22.8372 207.932-24.3367 207.648-25.8362 207.168-27.1398 206.493-28.2476 205.817-29.3553 204.919-30.2199 203.798-30.8413 202.677-31.4627 201.265-31.7734 199.563-31.7734 198.05-31.7734 196.726-31.4965 195.591-30.9426 194.456-30.3888 193.524-29.5782 192.795-28.511 192.065-27.4438 191.518-26.1604 191.153-24.6609 190.789-23.1614 190.606-21.4525 190.606-19.5342 190.606-17.751 190.755-16.1096 191.052-14.6101 191.349-13.1106 191.829-11.807 192.491-10.6992 193.153-9.59147 194.051-8.73364 195.186-8.12573 196.321-7.51782 197.725-7.21387 199.401-7.21387 200.941-7.21387 202.278-7.4908 203.413-8.04468 204.548-8.59855 205.48-9.40234 206.209-10.4561 206.939-11.5098 207.479-12.7864 207.83-14.2859 208.182-15.7854 208.357-17.4943 208.357-19.4126ZM260.699-1.37793C260.699-1.10775 260.631-0.871338 260.496-0.668701 260.361-0.466064 260.125-0.297201 259.787-0.162109 259.449-0.0270182 259.003 0.0743001 258.45 0.141846 257.896 0.209391 257.2 0.243164 256.362 0.243164 255.471 0.243164 254.748 0.209391 254.194 0.141846 253.64 0.0743001 253.201-0.0270182 252.877-0.162109 252.553-0.297201 252.323-0.466064 252.188-0.668701 252.053-0.871338 251.985-1.10775 251.985-1.37793L251.985-5.55225C249.986-3.39079 247.953-1.76969 245.886-0.688965 243.819 0.391764 241.678 0.932129 239.462 0.932129 236.977 0.932129 234.89 0.526855 233.201-0.283691 231.512-1.09424 230.148-2.20199 229.108-3.60693 228.068-5.01188 227.325-6.63973 226.879-8.49048 226.433-10.3412 226.21-12.6445 226.21-15.4004L226.21-37.5283C226.21-37.7985 226.284-38.0349 226.433-38.2375 226.582-38.4402 226.852-38.609 227.243-38.7441 227.635-38.8792 228.162-38.9805 228.824-39.0481 229.486-39.1156 230.303-39.1494 231.276-39.1494 232.276-39.1494 233.1-39.1156 233.748-39.0481 234.397-38.9805 234.917-38.8792 235.308-38.7441 235.7-38.609 235.977-38.4402 236.139-38.2375 236.301-38.0349 236.382-37.7985 236.382-37.5283L236.382-17.1025C236.382-15.2113 236.504-13.7658 236.747-12.7661 236.99-11.7664 237.362-10.9086 237.862-10.1926 238.361-9.47664 238.996-8.92277 239.766-8.531 240.536-8.13924 241.435-7.94336 242.462-7.94336 243.758-7.94336 245.062-8.41618 246.372-9.36182 247.683-10.3075 249.081-11.6854 250.567-13.4956L250.567-37.5283C250.567-37.7985 250.641-38.0349 250.79-38.2375 250.938-38.4402 251.209-38.609 251.6-38.7441 251.992-38.8792 252.512-38.9805 253.161-39.0481 253.809-39.1156 254.633-39.1494 255.633-39.1494 256.633-39.1494 257.457-39.1156 258.105-39.0481 258.753-38.9805 259.267-38.8792 259.645-38.7441 260.023-38.609 260.294-38.4402 260.456-38.2375 260.618-38.0349 260.699-37.7985 260.699-37.5283ZM305.057-1.37793C305.057-1.10775 304.975-0.871338 304.813-0.668701 304.651-0.466064 304.381-0.297201 304.003-0.162109 303.625-0.0270182 303.104 0.0743001 302.443 0.141846 301.781 0.209391 300.963 0.243164 299.991 0.243164 298.991 0.243164 298.16 0.209391 297.498 0.141846 296.836 0.0743001 296.316-0.0270182 295.938-0.162109 295.56-0.297201 295.289-0.466064 295.127-0.668701 294.965-0.871338 294.884-1.10775 294.884-1.37793L294.884-22.0063C294.884-23.7625 294.756-25.1405 294.499-26.1401 294.242-27.1398 293.871-27.9976 293.385-28.7136 292.898-29.4296 292.27-29.9835 291.5-30.3752 290.73-30.767 289.832-30.9629 288.805-30.9629 287.508-30.9629 286.198-30.4901 284.874-29.5444 283.55-28.5988 282.172-27.2209 280.74-25.4106L280.74-1.37793C280.74-1.10775 280.659-0.871338 280.497-0.668701 280.335-0.466064 280.058-0.297201 279.666-0.162109 279.274-0.0270182 278.754 0.0743001 278.106 0.141846 277.457 0.209391 276.633 0.243164 275.634 0.243164 274.634 0.243164 273.81 0.209391 273.162 0.141846 272.513 0.0743001 271.993-0.0270182 271.601-0.162109 271.209-0.297201 270.932-0.466064 270.77-0.668701 270.608-0.871338 270.527-1.10775 270.527-1.37793L270.527-37.5283C270.527-37.7985 270.595-38.0349 270.73-38.2375 270.865-38.4402 271.108-38.609 271.459-38.7441 271.811-38.8792 272.263-38.9805 272.817-39.0481 273.371-39.1156 274.067-39.1494 274.904-39.1494 275.769-39.1494 276.485-39.1156 277.052-39.0481 277.62-38.9805 278.059-38.8792 278.369-38.7441 278.68-38.609 278.903-38.4402 279.038-38.2375 279.173-38.0349 279.241-37.7985 279.241-37.5283L279.241-33.354C281.24-35.5155 283.273-37.1366 285.34-38.2173 287.407-39.298 289.562-39.8384 291.804-39.8384 294.263-39.8384 296.336-39.4331 298.025-38.6226 299.714-37.812 301.078-36.711 302.118-35.3196 303.159-33.9281 303.908-32.3003 304.368-30.436 304.827-28.5718 305.057-26.3293 305.057-23.7085ZM335.284-4.94434C335.284-3.75553 335.21-2.84367 335.061-2.20874 334.913-1.57381 334.717-1.12801 334.473-0.871338 334.23-0.614665 333.872-0.38501 333.4-0.182373 332.927 0.0202637 332.373 0.195882 331.738 0.344482 331.103 0.493083 330.414 0.60791 329.671 0.688965 328.928 0.770019 328.178 0.810547 327.422 0.810547 325.395 0.810547 323.639 0.553874 322.153 0.0405273 320.667-0.472819 319.438-1.2631 318.465-2.33032 317.492-3.39754 316.777-4.7417 316.317-6.36279 315.858-7.98389 315.628-9.90218 315.628-12.1177L315.628-30.6387 311.292-30.6387C310.779-30.6387 310.387-30.9561 310.117-31.5911 309.846-32.226 309.711-33.2865 309.711-34.7725 309.711-35.556 309.745-36.2179 309.813-36.7583 309.88-37.2987 309.981-37.7242 310.117-38.0349 310.252-38.3456 310.42-38.5685 310.623-38.7036 310.826-38.8387 311.062-38.9062 311.332-38.9062L315.628-38.9062 315.628-46.9712C315.628-47.2414 315.703-47.4845 315.851-47.7007 316-47.9168 316.27-48.0992 316.662-48.2478 317.053-48.3964 317.58-48.5045 318.242-48.572 318.904-48.6396 319.722-48.6733 320.694-48.6733 321.694-48.6733 322.525-48.6396 323.187-48.572 323.849-48.5045 324.369-48.3964 324.747-48.2478 325.125-48.0992 325.395-47.9168 325.557-47.7007 325.72-47.4845 325.801-47.2414 325.801-46.9712L325.801-38.9062 333.663-38.9062C333.933-38.9062 334.17-38.8387 334.372-38.7036 334.575-38.5685 334.744-38.3456 334.879-38.0349 335.014-37.7242 335.115-37.2987 335.183-36.7583 335.25-36.2179 335.284-35.556 335.284-34.7725 335.284-33.2865 335.149-32.226 334.879-31.5911 334.609-30.9561 334.217-30.6387 333.703-30.6387L325.801-30.6387 325.801-13.6577C325.801-11.6854 326.111-10.2061 326.733-9.21997 327.354-8.2338 328.462-7.74072 330.056-7.74072 330.596-7.74072 331.083-7.788 331.515-7.88257 331.947-7.97713 332.332-8.0852 332.67-8.20679 333.008-8.32837 333.291-8.43644 333.521-8.531 333.751-8.62557 333.96-8.67285 334.149-8.67285 334.311-8.67285 334.467-8.62557 334.615-8.531 334.764-8.43644 334.879-8.24731 334.96-7.96362 335.041-7.67993 335.115-7.29492 335.183-6.80859 335.25-6.32227 335.284-5.70085 335.284-4.94434ZM358.094 10.2939C358.094 10.8883 358.006 11.4017 357.831 11.834 357.655 12.2663 357.432 12.6175 357.162 12.8877 356.892 13.1579 356.567 13.3605 356.189 13.4956 355.811 13.6307 355.392 13.6982 354.933 13.6982L342.369 13.6982C341.91 13.6982 341.559 13.4281 341.316 12.8877 341.072 12.3473 340.951 11.4017 340.951 10.0508 340.951 9.34831 340.985 8.76741 341.052 8.3081 341.12 7.84879 341.214 7.47054 341.336 7.17334 341.457 6.87614 341.606 6.6735 341.782 6.56543 341.957 6.45736 342.153 6.40332 342.369 6.40332L348.529 6.40332 348.529-50.0513 342.369-50.0513C341.91-50.0513 341.559-50.3147 341.316-50.8415 341.072-51.3684 340.951-52.3208 340.951-53.6987 340.951-54.4012 340.985-54.9821 341.052-55.4414 341.12-55.9007 341.214-56.2722 341.336-56.5559 341.457-56.8396 341.606-57.0422 341.782-57.1638 341.957-57.2854 342.153-57.3462 342.369-57.3462L354.933-57.3462C355.392-57.3462 355.811-57.2854 356.189-57.1638 356.567-57.0422 356.892-56.8396 357.162-56.5559 357.432-56.2722 357.655-55.9142 357.831-55.4819 358.006-55.0496 358.094-54.5498 358.094-53.9824Z" fill="#F2F2F2" transform="matrix(1 0 0 1 71.7432 124)"/><path d="M25.9692-24.5728C25.9692-22.8361 25.6828-21.2695 25.1099-19.873 24.5369-18.4766 23.7179-17.286 22.6526-16.3013 21.5873-15.3166 20.2804-14.5557 18.7317-14.0186 17.183-13.4814 15.3345-13.2129 13.186-13.2129L9.23828-13.2129 9.23828-0.698242C9.23828-0.555013 9.198-0.429687 9.11743-0.322266 9.03686-0.214844 8.91154-0.129801 8.74145-0.0671387 8.57137-0.00447591 8.33862 0.049235 8.04321 0.0939941 7.7478 0.138753 7.3763 0.161133 6.92871 0.161133 6.48112 0.161133 6.10962 0.138753 5.81421 0.0939941 5.5188 0.049235 5.28157-0.00447591 5.10254-0.0671387 4.9235-0.129801 4.79818-0.214844 4.72656-0.322266 4.65495-0.429687 4.61914-0.555013 4.61914-0.698242L4.61914-32.7637C4.61914-33.4798 4.80713-33.9901 5.1831-34.2944 5.55908-34.5988 5.97982-34.751 6.44531-34.751L13.8843-34.751C14.6362-34.751 15.3569-34.7196 16.0461-34.657 16.7354-34.5943 17.55-34.46 18.49-34.2541 19.4299-34.0483 20.3878-33.6633 21.3635-33.0994 22.3393-32.5354 23.1673-31.8416 23.8477-31.0181 24.528-30.1945 25.0517-29.2411 25.4187-28.158 25.7857-27.0748 25.9692-25.8797 25.9692-24.5728ZM21.1084-24.1968C21.1084-25.6112 20.8443-26.7928 20.3162-27.7417 19.788-28.6906 19.1345-29.3978 18.3557-29.8633 17.5769-30.3288 16.7712-30.6242 15.9387-30.7495 15.1062-30.8748 14.2961-30.9375 13.5083-30.9375L9.23828-30.9375 9.23828-16.9995 13.4009-16.9995C14.7974-16.9995 15.9566-17.1785 16.8787-17.5366 17.8007-17.8947 18.575-18.3915 19.2017-19.0271 19.8283-19.6627 20.3027-20.4236 20.625-21.3098 20.9473-22.196 21.1084-23.1584 21.1084-24.1968ZM53.4603-0.671387C53.4603-0.528157 53.4289-0.407308 53.3663-0.308838 53.3036-0.210368 53.1917-0.125326 53.0306-0.0537109 52.8695 0.0179036 52.6591 0.0716146 52.3995 0.107422 52.1399 0.143229 51.8221 0.161133 51.4461 0.161133 51.0343 0.161133 50.6986 0.143229 50.439 0.107422 50.1794 0.0716146 49.9735 0.0179036 49.8214-0.0537109 49.6692-0.125326 49.5662-0.210368 49.5125-0.308838 49.4588-0.407308 49.432-0.528157 49.432-0.671387L49.432-3.86719C48.0534-2.34538 46.6927-1.23535 45.3499-0.537109 44.0072 0.161133 42.6465 0.510254 41.2679 0.510254 39.6566 0.510254 38.3004 0.241699 37.1993-0.29541 36.0982-0.832519 35.2075-1.56209 34.5272-2.48413 33.8468-3.40617 33.359-4.48039 33.0636-5.70679 32.7681-6.93319 32.6204-8.42366 32.6204-10.1782L32.6204-24.8413C32.6204-24.9845 32.6518-25.1054 32.7144-25.2039 32.7771-25.3023 32.8979-25.3918 33.077-25.4724 33.256-25.553 33.4888-25.6067 33.7752-25.6335 34.0617-25.6604 34.4198-25.6738 34.8494-25.6738 35.2791-25.6738 35.6372-25.6604 35.9237-25.6335 36.2101-25.6067 36.4384-25.553 36.6085-25.4724 36.7786-25.3918 36.8994-25.3023 36.971-25.2039 37.0426-25.1054 37.0784-24.9845 37.0784-24.8413L37.0784-10.769C37.0784-9.35465 37.1814-8.22225 37.3873-7.37183 37.5932-6.5214 37.9065-5.7963 38.3272-5.19653 38.748-4.59676 39.2806-4.13127 39.9251-3.80005 40.5697-3.46883 41.3216-3.30322 42.181-3.30322 43.291-3.30322 44.3966-3.6971 45.4976-4.48486 46.5987-5.27262 47.7669-6.42741 49.0023-7.94922L49.0023-24.8413C49.0023-24.9845 49.0336-25.1054 49.0963-25.2039 49.1589-25.3023 49.2798-25.3918 49.4588-25.4724 49.6378-25.553 49.8661-25.6067 50.1436-25.6335 50.4211-25.6604 50.7837-25.6738 51.2313-25.6738 51.661-25.6738 52.019-25.6604 52.3055-25.6335 52.592-25.6067 52.8158-25.553 52.9769-25.4724 53.138-25.3918 53.2589-25.3023 53.3394-25.2039 53.42-25.1054 53.4603-24.9845 53.4603-24.8413ZM83.6369-13.0786C83.6369-10.9839 83.4086-9.09953 82.9521-7.42554 82.4955-5.75155 81.8241-4.32373 80.9379-3.14209 80.0517-1.96045 78.964-1.05631 77.675-0.429687 76.3859 0.19694 74.9088 0.510254 73.2438 0.510254 72.474 0.510254 71.7623 0.434163 71.1088 0.281982 70.4553 0.129801 69.8153-0.116374 69.1886-0.456543 68.562-0.796712 67.9354-1.2264 67.3088-1.74561 66.6821-2.26481 66.0197-2.89144 65.3214-3.62549L65.3214-0.671387C65.3214-0.528157 65.2856-0.402832 65.214-0.29541 65.1424-0.187988 65.026-0.102946 64.8649-0.0402832 64.7038 0.0223796 64.5023 0.0716146 64.2607 0.107422 64.019 0.143229 63.7101 0.161133 63.3341 0.161133 62.9761 0.161133 62.6717 0.143229 62.4211 0.107422 62.1704 0.0716146 61.9645 0.0223796 61.8034-0.0402832 61.6422-0.102946 61.5348-0.187988 61.4811-0.29541 61.4274-0.402832 61.4005-0.528157 61.4006-0.671387L61.4006-36.5503C61.4005-36.6935 61.4319-36.8188 61.4945-36.9263 61.5572-37.0337 61.6736-37.1232 61.8437-37.1948 62.0137-37.2664 62.242-37.3201 62.5285-37.356 62.8149-37.3918 63.173-37.4097 63.6027-37.4097 64.0503-37.4097 64.4173-37.3918 64.7038-37.356 64.9902-37.3201 65.214-37.2664 65.3752-37.1948 65.5363-37.1232 65.6527-37.0337 65.7243-36.9263 65.7959-36.8188 65.8317-36.6935 65.8317-36.5503L65.8317-22.0752C66.5479-22.8092 67.2416-23.4269 67.913-23.9282 68.5844-24.4295 69.2423-24.8368 69.8869-25.1501 70.5314-25.4635 71.1759-25.6917 71.8205-25.835 72.465-25.9782 73.1453-26.0498 73.8615-26.0498 75.616-26.0498 77.1155-25.7007 78.3598-25.0024 79.6041-24.3042 80.6156-23.3687 81.3944-22.196 82.1733-21.0234 82.7417-19.6492 83.0998-18.0737 83.4578-16.4982 83.6369-14.8332 83.6369-13.0786ZM79.0446-12.5684C79.0446-13.8037 78.95-15.0033 78.7609-16.167 78.5718-17.3307 78.2431-18.3602 77.7746-19.2554 77.3062-20.1506 76.6847-20.8712 75.9103-21.4172 75.1358-21.9633 74.172-22.2363 73.0189-22.2363 72.4426-22.2363 71.8753-22.1558 71.3169-21.9946 70.7586-21.8335 70.1911-21.5649 69.6145-21.189 69.038-20.813 68.439-20.3296 67.8175-19.7388 67.1961-19.1479 66.5341-18.4049 65.8317-17.5098L65.8317-7.86865C67.0567-6.38265 68.2276-5.25024 69.3443-4.47144 70.4611-3.69263 71.623-3.30322 72.8301-3.30322 73.9468-3.30322 74.9015-3.57178 75.6942-4.10889 76.4868-4.646 77.1308-5.35767 77.6261-6.2439 78.1214-7.13013 78.4816-8.12378 78.7068-9.22485 78.932-10.3259 79.0446-11.4404 79.0446-12.5684ZM117.824-7.25098C117.824-6.01562 117.596-4.91455 117.139-3.94775 116.683-2.98096 116.034-2.16634 115.192-1.50391 114.351-0.841471 113.348-0.340169 112.184 0 111.021 0.340169 109.74 0.510254 108.344 0.510254 107.485 0.510254 106.665 0.443115 105.887 0.308838 105.108 0.174561 104.41 0.0044759 103.792-0.201416 103.174-0.407308 102.651-0.622152 102.221-0.845947 101.791-1.06974 101.478-1.27116 101.281-1.4502 101.084-1.62923 100.941-1.87988 100.851-2.20215 100.762-2.52441 100.717-2.96305 100.717-3.51807 100.717-3.85824 100.735-4.14469 100.771-4.37744 100.806-4.61019 100.851-4.79818 100.905-4.94141 100.959-5.08463 101.035-5.18758 101.133-5.25024 101.232-5.31291 101.344-5.34424 101.469-5.34424 101.666-5.34424 101.957-5.22339 102.342-4.98169 102.727-4.73999 103.201-4.47591 103.765-4.18945 104.329-3.90299 104.996-3.63892 105.766-3.39722 106.536-3.15552 107.422-3.03467 108.424-3.03467 109.176-3.03467 109.857-3.11523 110.465-3.27637 111.074-3.4375 111.602-3.67472 112.05-3.98804 112.498-4.30135 112.842-4.69971 113.084-5.1831 113.326-5.6665 113.446-6.23942 113.446-6.90185 113.446-7.58219 113.272-8.15511 112.923-8.6206 112.574-9.0861 112.113-9.49788 111.54-9.85596 110.967-10.214 110.322-10.5318 109.606-10.8093 108.89-11.0868 108.151-11.3778 107.391-11.6821 106.63-11.9865 105.887-12.3311 105.162-12.7161 104.436-13.101 103.787-13.571 103.215-14.126 102.642-14.681 102.181-15.3434 101.831-16.1133 101.482-16.8831 101.308-17.8052 101.308-18.8794 101.308-19.8283 101.491-20.7369 101.858-21.6052 102.225-22.4735 102.776-23.2345 103.51-23.8879 104.244-24.5414 105.162-25.0651 106.263-25.459 107.364-25.8529 108.648-26.0498 110.116-26.0498 110.761-26.0498 111.405-25.9961 112.05-25.8887 112.694-25.7812 113.276-25.647 113.796-25.4858 114.315-25.3247 114.758-25.1501 115.125-24.9622 115.492-24.7742 115.769-24.6086 115.957-24.4653 116.145-24.3221 116.271-24.1968 116.333-24.0894 116.396-23.9819 116.441-23.8611 116.468-23.7268 116.495-23.5925 116.521-23.4269 116.548-23.23 116.575-23.033 116.589-22.7913 116.589-22.5049 116.589-22.2005 116.575-21.9364 116.548-21.7126 116.521-21.4888 116.477-21.3053 116.414-21.1621 116.351-21.0189 116.275-20.9159 116.186-20.8533 116.096-20.7906 115.998-20.7593 115.89-20.7593 115.729-20.7593 115.496-20.8577 115.192-21.0547 114.888-21.2516 114.494-21.462 114.01-21.6858 113.527-21.9096 112.959-22.12 112.305-22.3169 111.652-22.5138 110.904-22.6123 110.063-22.6123 109.311-22.6123 108.648-22.5273 108.075-22.3572 107.502-22.1871 107.032-21.9454 106.665-21.6321 106.298-21.3188 106.021-20.9473 105.833-20.5176 105.645-20.0879 105.551-19.6224 105.551-19.1211 105.551-18.4228 105.73-17.8365 106.088-17.3621 106.446-16.8876 106.912-16.4714 107.485-16.1133 108.057-15.7552 108.711-15.4329 109.445-15.1465 110.179-14.86 110.927-14.5646 111.687-14.2603 112.448-13.9559 113.2-13.6157 113.943-13.2397 114.686-12.8638 115.344-12.4072 115.917-11.8701 116.49-11.333 116.951-10.6885 117.3-9.93652 117.649-9.18457 117.824-8.28939 117.824-7.25098ZM136.371-2.44385C136.371-1.92464 136.335-1.51286 136.264-1.2085 136.192-0.904134 136.085-0.680338 135.941-0.537109 135.798-0.39388 135.583-0.259603 135.297-0.134277 135.01-0.00895182 134.684 0.0939941 134.317 0.174561 133.95 0.255127 133.56 0.322266 133.148 0.375977 132.737 0.429687 132.325 0.456543 131.913 0.456543 130.66 0.456543 129.586 0.290934 128.69-0.0402832 127.795-0.371501 127.061-0.872803 126.488-1.54419 125.915-2.21558 125.499-3.066 125.239-4.09546 124.98-5.12492 124.85-6.33789 124.85-7.73437L124.85-21.8603 121.466-21.8603C121.198-21.8603 120.983-22.0036 120.822-22.29 120.661-22.5765 120.58-23.042 120.58-23.6865 120.58-24.0267 120.602-24.3131 120.647-24.5459 120.692-24.7786 120.75-24.9711 120.822-25.1233 120.893-25.2755 120.987-25.3829 121.104-25.4456 121.22-25.5082 121.35-25.5395 121.493-25.5395L124.85-25.5395 124.85-31.2866C124.85-31.4119 124.881-31.5283 124.944-31.6357 125.007-31.7432 125.123-31.8372 125.293-31.9177 125.463-31.9983 125.691-32.0565 125.978-32.0923 126.264-32.1281 126.622-32.146 127.052-32.146 127.5-32.146 127.867-32.1281 128.153-32.0923 128.44-32.0565 128.663-31.9983 128.825-31.9177 128.986-31.8372 129.102-31.7432 129.174-31.6357 129.245-31.5283 129.281-31.4119 129.281-31.2866L129.281-25.5395 135.485-25.5395C135.628-25.5395 135.753-25.5082 135.861-25.4456 135.968-25.3829 136.062-25.2755 136.143-25.1233 136.223-24.9711 136.281-24.7786 136.317-24.5459 136.353-24.3131 136.371-24.0267 136.371-23.6865 136.371-23.042 136.29-22.5765 136.129-22.29 135.968-22.0036 135.753-21.8603 135.485-21.8603L129.281-21.8603 129.281-8.37891C129.281-6.71387 129.527-5.45614 130.02-4.60571 130.512-3.75529 131.394-3.33008 132.665-3.33008 133.077-3.33008 133.444-3.37036 133.766-3.45093 134.088-3.53149 134.375-3.61654 134.625-3.70605 134.876-3.79557 135.091-3.88061 135.27-3.96118 135.449-4.04175 135.61-4.08203 135.753-4.08203 135.843-4.08203 135.928-4.05965 136.008-4.01489 136.089-3.97013 136.152-3.88509 136.196-3.75977 136.241-3.63444 136.281-3.46435 136.317-3.24951 136.353-3.03467 136.371-2.76611 136.371-2.44385ZM156.262-23.2568C156.262-22.863 156.253-22.5317 156.235-22.2632 156.217-21.9946 156.181-21.7843 156.128-21.6321 156.074-21.4799 156.007-21.3635 155.926-21.283 155.846-21.2024 155.734-21.1621 155.591-21.1621 155.447-21.1621 155.273-21.2024 155.067-21.283 154.861-21.3635 154.628-21.4441 154.369-21.5247 154.109-21.6052 153.818-21.6813 153.496-21.7529 153.174-21.8245 152.824-21.8603 152.448-21.8603 152.001-21.8603 151.562-21.7708 151.133-21.5918 150.703-21.4128 150.251-21.1173 149.776-20.7056 149.302-20.2938 148.805-19.7477 148.286-19.0674 147.767-18.387 147.194-17.5545 146.567-16.5698L146.567-0.671387C146.567-0.528157 146.531-0.407308 146.46-0.308838 146.388-0.210368 146.272-0.125326 146.111-0.0537109 145.949 0.0179036 145.726 0.0716146 145.439 0.107422 145.153 0.143229 144.786 0.161133 144.338 0.161133 143.908 0.161133 143.55 0.143229 143.264 0.107422 142.977 0.0716146 142.749 0.0179036 142.579-0.0537109 142.409-0.125326 142.293-0.210368 142.23-0.308838 142.167-0.407308 142.136-0.528157 142.136-0.671387L142.136-24.8413C142.136-24.9845 142.163-25.1054 142.217-25.2039 142.27-25.3023 142.378-25.3918 142.539-25.4724 142.7-25.553 142.906-25.6067 143.156-25.6335 143.407-25.6604 143.738-25.6738 144.15-25.6738 144.544-25.6738 144.871-25.6604 145.13-25.6335 145.39-25.6067 145.591-25.553 145.735-25.4724 145.878-25.3918 145.981-25.3023 146.043-25.2039 146.106-25.1054 146.137-24.9845 146.137-24.8413L146.137-21.3232C146.8-22.29 147.422-23.0778 148.004-23.6865 148.586-24.2952 149.136-24.7742 149.656-25.1233 150.175-25.4724 150.689-25.7141 151.2-25.8484 151.71-25.9827 152.225-26.0498 152.744-26.0498 152.977-26.0498 153.241-26.0364 153.536-26.0095 153.832-25.9827 154.14-25.9334 154.463-25.8618 154.785-25.7902 155.076-25.7096 155.335-25.6201 155.595-25.5306 155.779-25.4411 155.886-25.3516 155.993-25.262 156.065-25.177 156.101-25.0964 156.137-25.0159 156.168-24.9129 156.195-24.7876 156.222-24.6623 156.24-24.4788 156.249-24.2371 156.257-23.9954 156.262-23.6686 156.262-23.2568ZM181.748-0.671387C181.748-0.528157 181.716-0.407308 181.654-0.308838 181.591-0.210368 181.479-0.125326 181.318-0.0537109 181.157 0.0179036 180.947 0.0716146 180.687 0.107422 180.427 0.143229 180.11 0.161133 179.734 0.161133 179.322 0.161133 178.986 0.143229 178.727 0.107422 178.467 0.0716146 178.261 0.0179036 178.109-0.0537109 177.957-0.125326 177.854-0.210368 177.8-0.308838 177.746-0.407308 177.719-0.528157 177.719-0.671387L177.719-3.86719C176.341-2.34538 174.98-1.23535 173.637-0.537109 172.295 0.161133 170.934 0.510254 169.555 0.510254 167.944 0.510254 166.588 0.241699 165.487-0.29541 164.386-0.832519 163.495-1.56209 162.815-2.48413 162.134-3.40617 161.646-4.48039 161.351-5.70679 161.056-6.93319 160.908-8.42366 160.908-10.1782L160.908-24.8413C160.908-24.9845 160.939-25.1054 161.002-25.2039 161.065-25.3023 161.185-25.3918 161.364-25.4724 161.544-25.553 161.776-25.6067 162.063-25.6335 162.349-25.6604 162.707-25.6738 163.137-25.6738 163.567-25.6738 163.925-25.6604 164.211-25.6335 164.498-25.6067 164.726-25.553 164.896-25.4724 165.066-25.3918 165.187-25.3023 165.259-25.2039 165.33-25.1054 165.366-24.9845 165.366-24.8413L165.366-10.769C165.366-9.35465 165.469-8.22225 165.675-7.37183 165.881-6.5214 166.194-5.7963 166.615-5.19653 167.035-4.59676 167.568-4.13127 168.213-3.80005 168.857-3.46883 169.609-3.30322 170.468-3.30322 171.579-3.30322 172.684-3.6971 173.785-4.48486 174.886-5.27262 176.054-6.42741 177.29-7.94922L177.29-24.8413C177.29-24.9845 177.321-25.1054 177.384-25.2039 177.446-25.3023 177.567-25.3918 177.746-25.4724 177.925-25.553 178.154-25.6067 178.431-25.6335 178.709-25.6604 179.071-25.6738 179.519-25.6738 179.948-25.6738 180.307-25.6604 180.593-25.6335 180.879-25.6067 181.103-25.553 181.264-25.4724 181.426-25.3918 181.546-25.3023 181.627-25.2039 181.707-25.1054 181.748-24.9845 181.748-24.8413ZM207.064-4.35059C207.064-4.04622 207.055-3.78214 207.037-3.55835 207.019-3.33455 206.987-3.14657 206.943-2.99438 206.898-2.8422 206.844-2.70793 206.782-2.59155 206.719-2.47518 206.576-2.30509 206.352-2.0813 206.128-1.8575 205.748-1.58 205.211-1.24878 204.673-0.917562 204.069-0.622152 203.398-0.362549 202.726-0.102946 201.997 0.107422 201.209 0.268555 200.421 0.429687 199.607 0.510254 198.765 0.510254 197.029 0.510254 195.489 0.223796 194.146-0.349121 192.803-0.922038 191.68-1.75903 190.776-2.86011 189.872-3.96118 189.182-5.31291 188.708-6.91528 188.233-8.51766 187.996-10.3662 187.996-12.4609 187.996-14.8421 188.287-16.8876 188.869-18.5974 189.451-20.3072 190.248-21.7082 191.259-22.8003 192.271-23.8924 193.461-24.7026 194.831-25.2307 196.201-25.7589 197.682-26.0229 199.275-26.0229 200.045-26.0229 200.793-25.9513 201.518-25.8081 202.243-25.6649 202.91-25.4769 203.519-25.2441 204.127-25.0114 204.669-24.7428 205.143-24.4385 205.618-24.1341 205.962-23.8745 206.177-23.6597 206.392-23.4448 206.54-23.2747 206.62-23.1494 206.701-23.0241 206.768-22.8764 206.822-22.7063 206.876-22.5362 206.911-22.3437 206.929-22.1289 206.947-21.9141 206.956-21.6455 206.956-21.3232 206.956-20.625 206.876-20.1371 206.714-19.8596 206.553-19.5821 206.356-19.4434 206.124-19.4434 205.855-19.4434 205.546-19.5911 205.197-19.8865 204.848-20.1819 204.405-20.5086 203.868-20.8667 203.331-21.2248 202.682-21.5515 201.921-21.8469 201.16-22.1423 200.26-22.29 199.222-22.29 197.091-22.29 195.457-21.4709 194.321-19.8328 193.184-18.1946 192.615-15.8179 192.615-12.7026 192.615-11.145 192.763-9.77987 193.058-8.60718 193.354-7.43449 193.788-6.45426 194.361-5.6665 194.934-4.87874 195.637-4.2924 196.469-3.90747 197.302-3.52254 198.255-3.33008 199.329-3.33008 200.35-3.33008 201.245-3.49121 202.015-3.81348 202.785-4.13574 203.451-4.48934 204.015-4.87427 204.579-5.2592 205.054-5.60832 205.439-5.92163 205.824-6.23494 206.124-6.3916 206.338-6.3916 206.464-6.3916 206.571-6.35579 206.661-6.28418 206.75-6.21256 206.826-6.09171 206.889-5.92163 206.952-5.75155 206.996-5.5367 207.023-5.2771 207.05-5.0175 207.064-4.70866 207.064-4.35059ZM225.746-2.44385C225.746-1.92464 225.71-1.51286 225.639-1.2085 225.567-0.904134 225.46-0.680338 225.316-0.537109 225.173-0.39388 224.958-0.259603 224.672-0.134277 224.385-0.00895182 224.059 0.0939941 223.692 0.174561 223.325 0.255127 222.935 0.322266 222.523 0.375977 222.112 0.429687 221.7 0.456543 221.288 0.456543 220.035 0.456543 218.96 0.290934 218.065-0.0402832 217.17-0.371501 216.436-0.872803 215.863-1.54419 215.29-2.21558 214.874-3.066 214.614-4.09546 214.355-5.12492 214.225-6.33789 214.225-7.73437L214.225-21.8603 210.841-21.8603C210.573-21.8603 210.358-22.0036 210.197-22.29 210.036-22.5765 209.955-23.042 209.955-23.6865 209.955-24.0267 209.977-24.3131 210.022-24.5459 210.067-24.7786 210.125-24.9711 210.197-25.1233 210.268-25.2755 210.362-25.3829 210.479-25.4456 210.595-25.5082 210.725-25.5395 210.868-25.5395L214.225-25.5395 214.225-31.2866C214.225-31.4119 214.256-31.5283 214.319-31.6357 214.382-31.7432 214.498-31.8372 214.668-31.9177 214.838-31.9983 215.066-32.0565 215.353-32.0923 215.639-32.1281 215.997-32.146 216.427-32.146 216.875-32.146 217.242-32.1281 217.528-32.0923 217.815-32.0565 218.038-31.9983 218.2-31.9177 218.361-31.8372 218.477-31.7432 218.549-31.6357 218.62-31.5283 218.656-31.4119 218.656-31.2866L218.656-25.5395 224.86-25.5395C225.003-25.5395 225.128-25.5082 225.236-25.4456 225.343-25.3829 225.437-25.2755 225.518-25.1233 225.598-24.9711 225.656-24.7786 225.692-24.5459 225.728-24.3131 225.746-24.0267 225.746-23.6865 225.746-23.042 225.665-22.5765 225.504-22.29 225.343-22.0036 225.128-21.8603 224.86-21.8603L218.656-21.8603 218.656-8.37891C218.656-6.71387 218.902-5.45614 219.395-4.60571 219.887-3.75529 220.769-3.33008 222.04-3.33008 222.452-3.33008 222.819-3.37036 223.141-3.45093 223.463-3.53149 223.75-3.61654 224-3.70605 224.251-3.79557 224.466-3.88061 224.645-3.96118 224.824-4.04175 224.985-4.08203 225.128-4.08203 225.218-4.08203 225.303-4.05965 225.383-4.01489 225.464-3.97013 225.527-3.88509 225.571-3.75977 225.616-3.63444 225.656-3.46435 225.692-3.24951 225.728-3.03467 225.746-2.76611 225.746-2.44385ZM262.887-32.7637C262.887-32.4235 262.869-32.1281 262.833-31.8774 262.798-31.6268 262.735-31.4254 262.645-31.2732 262.556-31.121 262.453-31.0091 262.337-30.9375 262.22-30.8659 262.099-30.8301 261.974-30.8301L249.245-30.8301 249.245-19.0137 261.276-19.0137C261.401-19.0137 261.522-18.9823 261.638-18.9197 261.755-18.857 261.858-18.7541 261.947-18.6108 262.037-18.4676 262.099-18.2751 262.135-18.0334 262.171-17.7917 262.189-17.4829 262.189-17.1069 262.189-16.7668 262.171-16.4758 262.135-16.2341 262.099-15.9924 262.037-15.7955 261.947-15.6433 261.858-15.4911 261.755-15.3748 261.638-15.2942 261.522-15.2136 261.401-15.1733 261.276-15.1733L249.245-15.1733 249.245-0.698242C249.245-0.572917 249.209-0.452067 249.137-0.335693 249.065-0.21932 248.94-0.129801 248.761-0.0671387 248.582-0.00447591 248.349 0.049235 248.063 0.0939941 247.776 0.138753 247.4 0.161133 246.935 0.161133 246.505 0.161133 246.138 0.138753 245.834 0.0939941 245.53 0.049235 245.288-0.00447591 245.109-0.0671387 244.93-0.129801 244.804-0.21932 244.733-0.335693 244.661-0.452067 244.625-0.572917 244.625-0.698242L244.625-32.8711C244.625-33.5693 244.809-34.0572 245.176-34.3347 245.543-34.6122 245.932-34.751 246.344-34.751L261.974-34.751C262.099-34.751 262.22-34.7152 262.337-34.6436 262.453-34.5719 262.556-34.4556 262.645-34.2944 262.735-34.1333 262.798-33.9229 262.833-33.6633 262.869-33.4037 262.887-33.1038 262.887-32.7637ZM290.029-0.671387C290.029-0.528157 289.998-0.407308 289.935-0.308838 289.872-0.210368 289.76-0.125326 289.599-0.0537109 289.438 0.0179036 289.228 0.0716146 288.968 0.107422 288.709 0.143229 288.391 0.161133 288.015 0.161133 287.603 0.161133 287.267 0.143229 287.008 0.107422 286.748 0.0716146 286.542 0.0179036 286.39-0.0537109 286.238-0.125326 286.135-0.210368 286.081-0.308838 286.028-0.407308 286.001-0.528157 286.001-0.671387L286.001-3.86719C284.622-2.34538 283.261-1.23535 281.919-0.537109 280.576 0.161133 279.215 0.510254 277.837 0.510254 276.225 0.510254 274.869 0.241699 273.768-0.29541 272.667-0.832519 271.776-1.56209 271.096-2.48413 270.416-3.40617 269.928-4.48039 269.632-5.70679 269.337-6.93319 269.189-8.42366 269.189-10.1782L269.189-24.8413C269.189-24.9845 269.221-25.1054 269.283-25.2039 269.346-25.3023 269.467-25.3918 269.646-25.4724 269.825-25.553 270.057-25.6067 270.344-25.6335 270.63-25.6604 270.988-25.6738 271.418-25.6738 271.848-25.6738 272.206-25.6604 272.492-25.6335 272.779-25.6067 273.007-25.553 273.177-25.4724 273.347-25.3918 273.468-25.3023 273.54-25.2039 273.611-25.1054 273.647-24.9845 273.647-24.8413L273.647-10.769C273.647-9.35465 273.75-8.22225 273.956-7.37183 274.162-6.5214 274.475-5.7963 274.896-5.19653 275.317-4.59676 275.849-4.13127 276.494-3.80005 277.138-3.46883 277.89-3.30322 278.75-3.30322 279.86-3.30322 280.965-3.6971 282.066-4.48486 283.167-5.27262 284.336-6.42741 285.571-7.94922L285.571-24.8413C285.571-24.9845 285.602-25.1054 285.665-25.2039 285.728-25.3023 285.849-25.3918 286.028-25.4724 286.207-25.553 286.435-25.6067 286.712-25.6335 286.99-25.6604 287.352-25.6738 287.8-25.6738 288.23-25.6738 288.588-25.6604 288.874-25.6335 289.161-25.6067 289.384-25.553 289.546-25.4724 289.707-25.3918 289.828-25.3023 289.908-25.2039 289.989-25.1054 290.029-24.9845 290.029-24.8413ZM318.782-0.671387C318.782-0.528157 318.746-0.407308 318.675-0.308838 318.603-0.210368 318.487-0.125326 318.326-0.0537109 318.165 0.0179036 317.941 0.0716146 317.654 0.107422 317.368 0.143229 317.01 0.161133 316.58 0.161133 316.133 0.161133 315.766 0.143229 315.479 0.107422 315.193 0.0716146 314.969 0.0179036 314.808-0.0537109 314.647-0.125326 314.53-0.210368 314.459-0.308838 314.387-0.407308 314.351-0.528157 314.351-0.671387L314.351-14.8242C314.351-16.2028 314.244-17.3128 314.029-18.1543 313.814-18.9958 313.501-19.7209 313.089-20.3296 312.677-20.9383 312.145-21.4038 311.491-21.7261 310.838-22.0483 310.081-22.2095 309.222-22.2095 308.112-22.2095 307.002-21.8156 305.892-21.0278 304.782-20.2401 303.618-19.0853 302.4-17.5635L302.4-0.671387C302.4-0.528157 302.365-0.407308 302.293-0.308838 302.221-0.210368 302.105-0.125326 301.944-0.0537109 301.783 0.0179036 301.559 0.0716146 301.273 0.107422 300.986 0.143229 300.619 0.161133 300.171 0.161133 299.742 0.161133 299.384 0.143229 299.097 0.107422 298.811 0.0716146 298.582 0.0179036 298.412-0.0537109 298.242-0.125326 298.126-0.210368 298.063-0.308838 298.001-0.407308 297.969-0.528157 297.969-0.671387L297.969-24.8413C297.969-24.9845 297.996-25.1054 298.05-25.2039 298.104-25.3023 298.211-25.3918 298.372-25.4724 298.533-25.553 298.739-25.6067 298.99-25.6335 299.24-25.6604 299.572-25.6738 299.983-25.6738 300.377-25.6738 300.704-25.6604 300.964-25.6335 301.223-25.6067 301.425-25.553 301.568-25.4724 301.711-25.3918 301.814-25.3023 301.877-25.2039 301.939-25.1054 301.971-24.9845 301.971-24.8413L301.971-21.6455C303.331-23.1673 304.688-24.2818 306.039-24.989 307.391-25.6962 308.756-26.0498 310.135-26.0498 311.746-26.0498 313.102-25.7768 314.203-25.2307 315.305-24.6847 316.195-23.9551 316.876-23.042 317.556-22.1289 318.044-21.0592 318.339-19.8328 318.635-18.6064 318.782-17.1338 318.782-15.415ZM343.991-4.35059C343.991-4.04622 343.982-3.78214 343.964-3.55835 343.946-3.33455 343.915-3.14657 343.87-2.99438 343.825-2.8422 343.771-2.70793 343.709-2.59155 343.646-2.47518 343.503-2.30509 343.279-2.0813 343.055-1.8575 342.675-1.58 342.138-1.24878 341.6-0.917562 340.996-0.622152 340.325-0.362549 339.653-0.102946 338.924 0.107422 338.136 0.268555 337.348 0.429687 336.534 0.510254 335.692 0.510254 333.956 0.510254 332.416 0.223796 331.073-0.349121 329.73-0.922038 328.607-1.75903 327.703-2.86011 326.799-3.96118 326.109-5.31291 325.635-6.91528 325.16-8.51766 324.923-10.3662 324.923-12.4609 324.923-14.8421 325.214-16.8876 325.796-18.5974 326.378-20.3072 327.175-21.7082 328.186-22.8003 329.198-23.8924 330.388-24.7026 331.758-25.2307 333.128-25.7589 334.609-26.0229 336.203-26.0229 336.972-26.0229 337.72-25.9513 338.445-25.8081 339.17-25.6649 339.837-25.4769 340.446-25.2441 341.054-25.0114 341.596-24.7428 342.07-24.4385 342.545-24.1341 342.89-23.8745 343.104-23.6597 343.319-23.4448 343.467-23.2747 343.548-23.1494 343.628-23.0241 343.695-22.8764 343.749-22.7063 343.803-22.5362 343.838-22.3437 343.856-22.1289 343.874-21.9141 343.883-21.6455 343.883-21.3232 343.883-20.625 343.803-20.1371 343.642-19.8596 343.48-19.5821 343.283-19.4434 343.051-19.4434 342.782-19.4434 342.473-19.5911 342.124-19.8865 341.775-20.1819 341.332-20.5086 340.795-20.8667 340.258-21.2248 339.609-21.5515 338.848-21.8469 338.087-22.1423 337.187-22.29 336.149-22.29 334.018-22.29 332.385-21.4709 331.248-19.8328 330.111-18.1946 329.542-15.8179 329.542-12.7026 329.542-11.145 329.69-9.77987 329.986-8.60718 330.281-7.43449 330.715-6.45426 331.288-5.6665 331.861-4.87874 332.564-4.2924 333.396-3.90747 334.229-3.52254 335.182-3.33008 336.256-3.33008 337.277-3.33008 338.172-3.49121 338.942-3.81348 339.712-4.13574 340.379-4.48934 340.943-4.87427 341.507-5.2592 341.981-5.60832 342.366-5.92163 342.751-6.23494 343.051-6.3916 343.266-6.3916 343.391-6.3916 343.498-6.35579 343.588-6.28418 343.677-6.21256 343.753-6.09171 343.816-5.92163 343.879-5.75155 343.923-5.5367 343.95-5.2771 343.977-5.0175 343.991-4.70866 343.991-4.35059ZM362.673-2.44385C362.673-1.92464 362.637-1.51286 362.566-1.2085 362.494-0.904134 362.387-0.680338 362.243-0.537109 362.1-0.39388 361.885-0.259603 361.599-0.134277 361.312-0.00895182 360.986 0.0939941 360.619 0.174561 360.252 0.255127 359.862 0.322266 359.45 0.375977 359.039 0.429687 358.627 0.456543 358.215 0.456543 356.962 0.456543 355.888 0.290934 354.992-0.0402832 354.097-0.371501 353.363-0.872803 352.79-1.54419 352.217-2.21558 351.801-3.066 351.542-4.09546 351.282-5.12492 351.152-6.33789 351.152-7.73437L351.152-21.8603 347.768-21.8603C347.5-21.8603 347.285-22.0036 347.124-22.29 346.963-22.5765 346.882-23.042 346.882-23.6865 346.882-24.0267 346.904-24.3131 346.949-24.5459 346.994-24.7786 347.052-24.9711 347.124-25.1233 347.195-25.2755 347.289-25.3829 347.406-25.4456 347.522-25.5082 347.652-25.5395 347.795-25.5395L351.152-25.5395 351.152-31.2866C351.152-31.4119 351.183-31.5283 351.246-31.6357 351.309-31.7432 351.425-31.8372 351.595-31.9177 351.765-31.9983 351.994-32.0565 352.28-32.0923 352.566-32.1281 352.925-32.146 353.354-32.146 353.802-32.146 354.169-32.1281 354.455-32.0923 354.742-32.0565 354.966-31.9983 355.127-31.9177 355.288-31.8372 355.404-31.7432 355.476-31.6357 355.547-31.5283 355.583-31.4119 355.583-31.2866L355.583-25.5395 361.787-25.5395C361.93-25.5395 362.055-25.5082 362.163-25.4456 362.27-25.3829 362.364-25.2755 362.445-25.1233 362.525-24.9711 362.584-24.7786 362.619-24.5459 362.655-24.3131 362.673-24.0267 362.673-23.6865 362.673-23.042 362.593-22.5765 362.431-22.29 362.27-22.0036 362.055-21.8603 361.787-21.8603L355.583-21.8603 355.583-8.37891C355.583-6.71387 355.829-5.45614 356.322-4.60571 356.814-3.75529 357.696-3.33008 358.967-3.33008 359.379-3.33008 359.746-3.37036 360.068-3.45093 360.39-3.53149 360.677-3.61654 360.927-3.70605 361.178-3.79557 361.393-3.88061 361.572-3.96118 361.751-4.04175 361.912-4.08203 362.055-4.08203 362.145-4.08203 362.23-4.05965 362.311-4.01489 362.391-3.97013 362.454-3.88509 362.499-3.75977 362.543-3.63444 362.584-3.46435 362.619-3.24951 362.655-3.03467 362.673-2.76611 362.673-2.44385ZM372.869-0.671387C372.869-0.528157 372.833-0.407308 372.762-0.308838 372.69-0.210368 372.574-0.125326 372.413-0.0537109 372.252 0.0179036 372.028 0.0716146 371.741 0.107422 371.455 0.143229 371.088 0.161133 370.64 0.161133 370.211 0.161133 369.852 0.143229 369.566 0.107422 369.28 0.0716146 369.051 0.0179036 368.881-0.0537109 368.711-0.125326 368.595-0.210368 368.532-0.308838 368.469-0.407308 368.438-0.528157 368.438-0.671387L368.438-24.8413C368.438-24.9666 368.469-25.083 368.532-25.1904 368.595-25.2978 368.711-25.3874 368.881-25.459 369.051-25.5306 369.28-25.5843 369.566-25.6201 369.852-25.6559 370.211-25.6738 370.64-25.6738 371.088-25.6738 371.455-25.6559 371.741-25.6201 372.028-25.5843 372.252-25.5306 372.413-25.459 372.574-25.3874 372.69-25.2978 372.762-25.1904 372.833-25.083 372.869-24.9666 372.869-24.8413ZM373.379-33.0054C373.379-31.967 373.183-31.2598 372.789-30.8838 372.395-30.5078 371.67-30.3198 370.613-30.3198 369.575-30.3198 368.863-30.5033 368.478-30.8704 368.093-31.2374 367.901-31.9311 367.901-32.9517 367.901-33.9901 368.098-34.6973 368.492-35.0732 368.886-35.4492 369.611-35.6372 370.667-35.6372 371.705-35.6372 372.417-35.4537 372.802-35.0867 373.187-34.7196 373.379-34.0259 373.379-33.0054ZM403.52-13.0249C403.52-11.0555 403.261-9.24276 402.741-7.58667 402.222-5.93058 401.448-4.50277 400.418-3.30322 399.389-2.10368 398.1-1.16821 396.551-0.496826 395.003 0.174561 393.208 0.510254 391.167 0.510254 389.179 0.510254 387.447 0.214844 385.97-0.375977 384.493-0.966797 383.262-1.82617 382.278-2.9541 381.293-4.08203 380.559-5.45166 380.075-7.06299 379.592-8.67432 379.35-10.5005 379.35-12.5415 379.35-14.5109 379.605-16.3236 380.116-17.9797 380.626-19.6358 381.396-21.0636 382.425-22.2632 383.455-23.4627 384.739-24.3937 386.279-25.0562 387.819-25.7186 389.618-26.0498 391.677-26.0498 393.664-26.0498 395.396-25.7544 396.874-25.1636 398.351-24.5728 399.581-23.7134 400.566-22.5854 401.551-21.4575 402.289-20.0879 402.782-18.4766 403.274-16.8652 403.52-15.048 403.52-13.0249ZM398.928-12.7295C398.928-14.0365 398.806-15.2718 398.562-16.4355 398.318-17.5993 397.916-18.6198 397.356-19.4971 396.796-20.3743 396.037-21.0681 395.08-21.5784 394.122-22.0886 392.93-22.3437 391.503-22.3437 390.184-22.3437 389.051-22.111 388.102-21.6455 387.154-21.18 386.372-20.5221 385.758-19.6716 385.144-18.8212 384.688-17.8141 384.39-16.6504 384.092-15.4867 383.943-14.2155 383.943-12.8369 383.943-11.512 384.065-10.2677 384.309-9.104 384.552-7.94027 384.959-6.92423 385.528-6.05591 386.097-5.18758 386.86-4.49829 387.818-3.98804 388.775-3.47778 389.967-3.22266 391.395-3.22266 392.695-3.22266 393.825-3.4554 394.782-3.9209 395.739-4.38639 396.525-5.03988 397.139-5.88135 397.754-6.72282 398.205-7.72542 398.494-8.88916 398.783-10.0529 398.928-11.333 398.928-12.7295ZM431.074-0.671387C431.074-0.528157 431.038-0.407308 430.967-0.308838 430.895-0.210368 430.779-0.125326 430.617-0.0537109 430.456 0.0179036 430.232 0.0716146 429.946 0.107422 429.66 0.143229 429.301 0.161133 428.872 0.161133 428.424 0.161133 428.057 0.143229 427.771 0.107422 427.484 0.0716146 427.26 0.0179036 427.099-0.0537109 426.938-0.125326 426.822-0.210368 426.75-0.308838 426.679-0.407308 426.643-0.528157 426.643-0.671387L426.643-14.8242C426.643-16.2028 426.535-17.3128 426.321-18.1543 426.106-18.9958 425.792-19.7209 425.381-20.3296 424.969-20.9383 424.436-21.4038 423.783-21.7261 423.129-22.0483 422.373-22.2095 421.513-22.2095 420.403-22.2095 419.293-21.8156 418.183-21.0278 417.073-20.2401 415.91-19.0853 414.692-17.5635L414.692-0.671387C414.692-0.528157 414.656-0.407308 414.585-0.308838 414.513-0.210368 414.397-0.125326 414.236-0.0537109 414.074 0.0179036 413.851 0.0716146 413.564 0.107422 413.278 0.143229 412.911 0.161133 412.463 0.161133 412.033 0.161133 411.675 0.143229 411.389 0.107422 411.102 0.0716146 410.874 0.0179036 410.704-0.0537109 410.534-0.125326 410.418-0.210368 410.355-0.308838 410.292-0.407308 410.261-0.528157 410.261-0.671387L410.261-24.8413C410.261-24.9845 410.288-25.1054 410.342-25.2039 410.395-25.3023 410.503-25.3918 410.664-25.4724 410.825-25.553 411.031-25.6067 411.281-25.6335 411.532-25.6604 411.863-25.6738 412.275-25.6738 412.669-25.6738 412.996-25.6604 413.255-25.6335 413.515-25.6067 413.716-25.553 413.86-25.4724 414.003-25.3918 414.106-25.3023 414.168-25.2039 414.231-25.1054 414.262-24.9845 414.262-24.8413L414.262-21.6455C415.623-23.1673 416.979-24.2818 418.331-24.989 419.683-25.6962 421.048-26.0498 422.427-26.0498 424.038-26.0498 425.394-25.7768 426.495-25.2307 427.596-24.6847 428.487-23.9551 429.167-23.042 429.848-22.1289 430.335-21.0592 430.631-19.8328 430.926-18.6064 431.074-17.1338 431.074-15.415ZM465.682-1.90674C465.682-1.54867 465.622-1.2443 465.501-0.993652 465.381-0.743001 465.224-0.537109 465.029-0.375977 464.835-0.214844 464.617-0.09847 464.377-0.0268555 464.136 0.0447591 463.895 0.0805664 463.654 0.0805664L462.127 0.0805664C461.645 0.0805664 461.224 0.0313314 460.863-0.0671387 460.502-0.165609 460.159-0.344645 459.835-0.604248 459.511-0.863851 459.187-1.21745 458.863-1.66504 458.539-2.11263 458.195-2.68555 457.832-3.38379L447.23-23.1494C446.676-24.1699 446.118-25.2397 445.555-26.3586 444.992-27.4776 444.468-28.5653 443.983-29.6216L443.929-29.6216C443.965-28.3325 443.991-27.0166 444.009-25.6738 444.027-24.3311 444.036-22.9972 444.036-21.6724L444.036-0.698242C444.036-0.572917 443.998-0.452067 443.923-0.335693 443.847-0.21932 443.72-0.129801 443.54-0.0671387 443.361-0.00447591 443.125 0.049235 442.832 0.0939941 442.539 0.138753 442.166 0.161133 441.712 0.161133 441.259 0.161133 440.886 0.138753 440.593 0.0939941 440.3 0.049235 440.069-0.00447591 439.899-0.0671387 439.729-0.129801 439.606-0.21932 439.53-0.335693 439.455-0.452067 439.417-0.572917 439.417-0.698242L439.417-32.7637C439.417-33.4798 439.62-33.9901 440.027-34.2944 440.434-34.5988 440.877-34.751 441.357-34.751L443.63-34.751C444.166-34.751 444.614-34.7062 444.975-34.6167 445.335-34.5272 445.659-34.3795 445.945-34.1736 446.231-33.9677 446.508-33.6812 446.776-33.3142 447.044-32.9472 447.325-32.4862 447.62-31.9312L455.77-16.6772C456.271-15.7463 456.756-14.8376 457.223-13.9514 457.69-13.0652 458.14-12.1924 458.573-11.333 459.005-10.4736 459.434-9.62768 459.857-8.79517 460.281-7.96265 460.701-7.12565 461.116-6.28418L461.143-6.28418C461.107-7.69857 461.085-9.17114 461.076-10.7019 461.067-12.2327 461.063-13.7052 461.063-15.1196L461.063-33.9722C461.063-34.0975 461.1-34.2139 461.176-34.3213 461.251-34.4287 461.379-34.5227 461.558-34.6033 461.738-34.6838 461.974-34.742 462.267-34.7778 462.56-34.8136 462.942-34.8315 463.415-34.8315 463.83-34.8315 464.189-34.8136 464.491-34.7778 464.794-34.742 465.03-34.6838 465.2-34.6033 465.37-34.5227 465.493-34.4287 465.568-34.3213 465.644-34.2139 465.682-34.0975 465.682-33.9722ZM492.636-0.644531C492.636-0.429687 492.564-0.268555 492.421-0.161133 492.278-0.0537109 492.081 0.0268555 491.83 0.0805664 491.579 0.134277 491.212 0.161133 490.729 0.161133 490.263 0.161133 489.892 0.134277 489.614 0.0805664 489.337 0.0268555 489.135-0.0537109 489.01-0.161133 488.885-0.268555 488.822-0.429687 488.822-0.644531L488.822-3.06152C487.766-1.93359 486.589-1.05631 485.291-0.429687 483.993 0.19694 482.619 0.510254 481.168 0.510254 479.897 0.510254 478.747 0.344645 477.717 0.0134277 476.688-0.31779 475.811-0.796712 475.086-1.42334 474.361-2.04997 473.797-2.81982 473.394-3.73291 472.991-4.646 472.789-5.68441 472.789-6.84814 472.789-8.20882 473.067-9.39046 473.622-10.3931 474.177-11.3957 474.974-12.2282 476.012-12.8906 477.051-13.5531 478.322-14.0499 479.826-14.3811 481.33-14.7123 483.021-14.8779 484.901-14.8779L488.231-14.8779 488.231-16.7578C488.231-17.6888 488.133-18.5124 487.936-19.2285 487.739-19.9447 487.421-20.54 486.983-21.0144 486.544-21.4888 485.975-21.8469 485.277-22.0886 484.579-22.3303 483.72-22.4512 482.699-22.4512 481.607-22.4512 480.627-22.3214 479.758-22.0618 478.89-21.8022 478.129-21.5157 477.476-21.2024 476.822-20.8891 476.276-20.6026 475.838-20.343 475.399-20.0834 475.072-19.9536 474.857-19.9536 474.714-19.9536 474.589-19.9894 474.481-20.061 474.374-20.1326 474.28-20.2401 474.199-20.3833 474.119-20.5265 474.061-20.71 474.025-20.9338 473.989-21.1576 473.971-21.4038 473.971-21.6724 473.971-22.12 474.002-22.4735 474.065-22.7332 474.128-22.9928 474.28-23.2389 474.522-23.4717 474.763-23.7044 475.18-23.9775 475.77-24.2908 476.361-24.6041 477.042-24.8905 477.811-25.1501 478.581-25.4097 479.423-25.6246 480.336-25.7947 481.249-25.9648 482.171-26.0498 483.102-26.0498 484.839-26.0498 486.316-25.8529 487.533-25.459 488.751-25.0651 489.735-24.4877 490.487-23.7268 491.239-22.9659 491.785-22.0215 492.125-20.8936 492.466-19.7656 492.636-18.4497 492.636-16.9458ZM488.231-11.6821 484.445-11.6821C483.227-11.6821 482.171-11.5792 481.276-11.3733 480.381-11.1674 479.638-10.863 479.047-10.4602 478.456-10.0574 478.022-9.57397 477.744-9.01001 477.467-8.44604 477.328-7.79704 477.328-7.06299 477.328-5.80973 477.726-4.8116 478.523-4.0686 479.32-3.3256 480.434-2.9541 481.867-2.9541 483.03-2.9541 484.109-3.24951 485.103-3.84033 486.096-4.43115 487.139-5.33529 488.231-6.55273ZM536.634-0.671387C536.634-0.528157 536.598-0.407308 536.526-0.308838 536.455-0.210368 536.338-0.125326 536.177-0.0537109 536.016 0.0179036 535.792 0.0716146 535.506 0.107422 535.219 0.143229 534.861 0.161133 534.432 0.161133 533.984 0.161133 533.617 0.143229 533.331 0.107422 533.044 0.0716146 532.816 0.0179036 532.646-0.0537109 532.476-0.125326 532.355-0.210368 532.283-0.308838 532.212-0.407308 532.176-0.528157 532.176-0.671387L532.176-15.3613C532.176-16.3818 532.086-17.3128 531.907-18.1543 531.728-18.9958 531.442-19.7209 531.048-20.3296 530.654-20.9383 530.153-21.4038 529.544-21.7261 528.935-22.0483 528.219-22.2095 527.396-22.2095 526.375-22.2095 525.35-21.8156 524.321-21.0278 523.291-20.2401 522.159-19.0853 520.923-17.5635L520.923-0.671387C520.923-0.528157 520.888-0.407308 520.816-0.308838 520.744-0.210368 520.623-0.125326 520.453-0.0537109 520.283 0.0179036 520.055 0.0716146 519.769 0.107422 519.482 0.143229 519.124 0.161133 518.694 0.161133 518.283 0.161133 517.929 0.143229 517.634 0.107422 517.338 0.0716146 517.105 0.0179036 516.935-0.0537109 516.765-0.125326 516.649-0.210368 516.586-0.308838 516.524-0.407308 516.492-0.528157 516.492-0.671387L516.492-15.3613C516.492-16.3818 516.394-17.3128 516.197-18.1543 516-18.9958 515.704-19.7209 515.311-20.3296 514.917-20.9383 514.42-21.4038 513.82-21.7261 513.22-22.0483 512.509-22.2095 511.685-22.2095 510.665-22.2095 509.635-21.8156 508.597-21.0278 507.558-20.2401 506.43-19.0853 505.213-17.5635L505.213-0.671387C505.213-0.528157 505.177-0.407308 505.106-0.308838 505.034-0.210368 504.918-0.125326 504.756-0.0537109 504.595 0.0179036 504.371 0.0716146 504.085 0.107422 503.799 0.143229 503.432 0.161133 502.984 0.161133 502.554 0.161133 502.196 0.143229 501.91 0.107422 501.623 0.0716146 501.395 0.0179036 501.225-0.0537109 501.055-0.125326 500.938-0.210368 500.876-0.308838 500.813-0.407308 500.782-0.528157 500.782-0.671387L500.782-24.8413C500.782-24.9845 500.809-25.1054 500.862-25.2039 500.916-25.3023 501.023-25.3918 501.185-25.4724 501.346-25.553 501.552-25.6067 501.802-25.6335 502.053-25.6604 502.384-25.6738 502.796-25.6738 503.19-25.6738 503.517-25.6604 503.776-25.6335 504.036-25.6067 504.237-25.553 504.38-25.4724 504.524-25.3918 504.627-25.3023 504.689-25.2039 504.752-25.1054 504.783-24.9845 504.783-24.8413L504.783-21.6455C506.144-23.1673 507.464-24.2818 508.744-24.989 510.025-25.6962 511.318-26.0498 512.625-26.0498 513.628-26.0498 514.527-25.9334 515.324-25.7007 516.121-25.4679 516.823-25.1412 517.432-24.7205 518.041-24.2997 518.56-23.7984 518.99-23.2166 519.419-22.6347 519.778-21.9857 520.064-21.2695 520.87-22.1468 521.635-22.8898 522.36-23.4985 523.085-24.1073 523.783-24.5996 524.455-24.9756 525.126-25.3516 525.78-25.6246 526.415-25.7947 527.051-25.9648 527.691-26.0498 528.336-26.0498 529.893-26.0498 531.2-25.7768 532.256-25.2307 533.313-24.6847 534.168-23.9551 534.821-23.042 535.475-22.1289 535.94-21.0592 536.218-19.8328 536.495-18.6064 536.634-17.3128 536.634-15.9521ZM565.521-13.8037C565.521-13.1055 565.346-12.6086 564.995-12.3132 564.645-12.0178 564.245-11.8701 563.795-11.8701L547.877-11.8701C547.877-10.5273 548.012-9.31885 548.282-8.24463 548.552-7.17041 549.002-6.24837 549.631-5.47852 550.261-4.70866 551.08-4.11784 552.087-3.70605 553.095-3.29427 554.327-3.08838 555.784-3.08838 556.936-3.08838 557.961-3.18237 558.861-3.37036 559.76-3.55835 560.538-3.76872 561.195-4.00146 561.852-4.23421 562.391-4.44458 562.814-4.63257 563.237-4.82056 563.556-4.91455 563.772-4.91455 563.898-4.91455 564.011-4.88322 564.11-4.82056 564.208-4.75789 564.285-4.6639 564.339-4.53857 564.393-4.41325 564.433-4.23869 564.46-4.01489 564.487-3.7911 564.501-3.51807 564.501-3.1958 564.501-2.96305 564.492-2.76164 564.474-2.59155 564.456-2.42147 564.434-2.26929 564.407-2.13501 564.38-2.00073 564.335-1.87988 564.273-1.77246 564.21-1.66504 564.129-1.56209 564.031-1.46362 563.932-1.36515 563.642-1.20402 563.158-0.980225 562.675-0.756429 562.048-0.537109 561.278-0.322266 560.508-0.107422 559.618 0.0850423 558.606 0.255127 557.595 0.425212 556.516 0.510254 555.37 0.510254 553.383 0.510254 551.642 0.232747 550.147-0.322266 548.652-0.877279 547.394-1.70085 546.373-2.79297 545.353-3.88509 544.583-5.25472 544.064-6.90185 543.545-8.54899 543.285-10.4647 543.285-12.6489 543.285-14.7257 543.554-16.5922 544.091-18.2483 544.628-19.9044 545.402-21.3098 546.414-22.4646 547.425-23.6194 548.647-24.5056 550.08-25.1233 551.512-25.741 553.114-26.0498 554.887-26.0498 556.784-26.0498 558.4-25.7454 559.734-25.1367 561.068-24.528 562.164-23.7089 563.024-22.6794 563.883-21.65 564.514-20.4415 564.917-19.054 565.32-17.6664 565.521-16.1849 565.521-14.6094ZM561.063-15.1196C561.117-17.4471 560.599-19.2733 559.51-20.5981 558.42-21.923 556.803-22.5854 554.66-22.5854 553.561-22.5854 552.597-22.3796 551.768-21.9678 550.94-21.556 550.246-21.0099 549.688-20.3296 549.129-19.6493 548.697-18.857 548.391-17.9529 548.085-17.0487 547.913-16.1043 547.877-15.1196Z" fill="#FFFFFF" transform="matrix(1 0 0 1 71.7432 197)"/></g></g><rect x="2813" y="1837" width="856" height="380" fill="url(#fill7)"/><text fill="#F2F2F2" font-family="Calibri,Calibri_MSFontService,sans-serif" font-weight="700" font-size="83" transform="matrix(1 0 0 1 2845.74 1931)">#[account]<tspan fill="#FFFFFF" font-weight="400" font-size="55" x="0" y="73">Pub struct FunctionName</tspan></text></g></svg>