<svg xmlns="http://www.w3.org/2000/svg" width="4303" height="2408" overflow="hidden"><defs><clipPath id="a"><path d="M84 75h4303v2408H84z"/></clipPath><clipPath id="b"><path d="M-17-17h368v143H-17z"/></clipPath><clipPath id="d"><path d="M0 0h1148v367H0z"/></clipPath><clipPath id="f"><path d="M-17-17h217v158H-17z"/></clipPath><clipPath id="h"><path d="M0 0h625v423H0z"/></clipPath><clipPath id="i"><path d="M-3-3h159v125H-3z"/></clipPath><clipPath id="k"><path d="M0 0h544v415H0z"/></clipPath><filter id="c" width="120%" height="120%" x="-10%" y="-10%" filterUnits="userSpaceOnUse" primitiveUnits="userSpaceOnUse"><feComponentTransfer color-interpolation-filters="sRGB"><feFuncR tableValues="0 0" type="discrete"/><feFuncG tableValues="0 0" type="discrete"/><feFuncB tableValues="0 0" type="discrete"/><feFuncA slope=".6" type="linear"/></feComponentTransfer><feGaussianBlur stdDeviation="6.875 6.875"/></filter><filter id="g" width="120%" height="120%" x="-10%" y="-10%" filterUnits="userSpaceOnUse" primitiveUnits="userSpaceOnUse"><feComponentTransfer color-interpolation-filters="sRGB"><feFuncR tableValues="0 0" type="discrete"/><feFuncG tableValues="0 0" type="discrete"/><feFuncB tableValues="0 0" type="discrete"/><feFuncA slope=".6" type="linear"/></feComponentTransfer><feGaussianBlur stdDeviation="6.875 6.875"/></filter><filter id="j" width="120%" height="120%" x="-10%" y="-10%" filterUnits="userSpaceOnUse" primitiveUnits="userSpaceOnUse"><feComponentTransfer color-interpolation-filters="sRGB"><feFuncR tableValues="0 0" type="discrete"/><feFuncG tableValues="0 0" type="discrete"/><feFuncB tableValues="0 0" type="discrete"/><feFuncA slope=".6" type="linear"/></feComponentTransfer><feGaussianBlur stdDeviation="6.875 6.875"/></filter><linearGradient id="e" x1="2075" x2="2075" y1="1201" y2="1524" gradientUnits="userSpaceOnUse" spreadMethod="reflect"><stop offset="0" stop-color="#FFC746"/><stop offset=".5" stop-color="#FFC600"/><stop offset="1" stop-color="#E5B600"/></linearGradient><linearGradient id="l" x1="2109.5" x2="2109.5" y1="1171" y2="1550" gradientUnits="userSpaceOnUse" spreadMethod="reflect"><stop offset="0" stop-color="#FFC746"/><stop offset=".5" stop-color="#FFC600"/><stop offset="1" stop-color="#E5B600"/></linearGradient></defs><g clip-path="url(#a)" transform="translate(-84 -75)"><path fill="#F2F2F2" stroke="#D9D9D9" stroke-miterlimit="8" stroke-width="4.6" d="M87 117h4192v2334H87z"/><path fill="#FFF2CC" stroke="#70AD47" stroke-miterlimit="8" stroke-width="4.6" d="M551 482h1355v1836H551z"/><text font-family="Calibri,Calibri_MSFontService,sans-serif" font-size="64" font-weight="700" transform="translate(1151 558)">Client<tspan x="-56" y="77">JavaScript</tspan><tspan x="-767" y="-177" font-family="Calibri Light,Calibri Light_MSFontService,sans-serif" font-size="248" font-weight="300">Using Anchor to build a Solana Apps</tspan><tspan x="2326" y="1849" font-size="87" font-weight="400">@DougAnderson444</tspan></text><path fill="#E2F0D9" stroke="#70AD47" stroke-miterlimit="8" stroke-width="4.6" d="M2321 482h1639v1836H2321z"/><text font-family="Calibri,Calibri_MSFontService,sans-serif" font-size="64" font-weight="700" transform="translate(2930 558)">Solana Program<tspan x="18" y="77">Rust Language</tspan></text><g clip-path="url(#b)" filter="url(#c)" transform="translate(1501 1186)"><g clip-path="url(#d)"><path fill="red" fill-rule="evenodd" d="M22 183 184 22v81h781V22l161 161-161 162v-81H184v81Z"/></g></g><path fill="url(#e)" fill-rule="evenodd" d="m1523 1363 162-162v81h781v-81l161 162-161 161v-81h-781v81Z"/><g clip-path="url(#f)" filter="url(#g)" transform="translate(1797 1156)"><g clip-path="url(#h)"><path fill="red" d="M22 22h581v379H22z"/></g></g><g clip-path="url(#i)" filter="url(#j)" transform="translate(1781 1147)"><g fill="#404040" clip-path="url(#k)"><path d="M88 123h-1v1h-2a23 23 0 0 1-7 0l-1-1V72h1l2-1a22 22 0 0 1 7 1l1 1Zm45 0-1 1h-2a25 25 0 0 1-6 0l-1-1v-21l-1-4-1-3-2-1-3-1-3 1-5 5v24l-1 1h-1a25 25 0 0 1-7 0l-1-1V86l1-1h2a18 18 0 0 1 5 0l1 1v5c2-3 4-4 6-5l6-2 7 1 4 4 2 5 1 6Zm30-4v3l-1 1-1 1h-2a17 17 0 0 1-4 1l-5-1a9 9 0 0 1-6-6l-1-6V93h-4l-1-1-1-3 1-2v-2h5v-8l1-1 2-1a25 25 0 0 1 6 1h1v9h9l1 1v1a16 16 0 0 1 0 5l-2 1h-8v17l1 5 4 1a7 7 0 0 0 2 0l1-1h1l1 1v3Zm40-16-1 3-3 1h-22l1 4 2 4 3 2h4a25 25 0 0 0 11-2h3v1a19 19 0 0 1 0 5l-1 1-1 1-3 1a41 41 0 0 1-10 1l-8-1-6-4-4-6-1-9 1-9c1-2 2-5 4-6l6-4 8-2 7 1a14 14 0 0 1 9 10l1 7Zm-10-2-2-7c-1-2-3-3-6-3l-3 1-2 2-2 3-1 4Zm41-11a29 29 0 0 1-1 4l-1 1v-1a35 35 0 0 0-2 0h-4l-1 1-2 2-2 3v23h-1v1h-2a25 25 0 0 1-6 0l-1-1h-1V86h1v-1h2a18 18 0 0 1 5 0l1 1v5l3-3 2-2a8 8 0 0 1 5-2 11 11 0 0 1 3 1h1v1h1v4Zm27-17v3h-1a12 12 0 0 0-2 0l-2-1-2 1-1 1-1 2v6h7l1 1v1a16 16 0 0 1 0 5l-2 1h-6v30l-1 1h-2a25 25 0 0 1-6 0l-1-1V93h-5l-1-1v-7h6v-9l3-5 4-3 5-1a16 16 0 0 1 6 1l1 1v4Zm35 50-1 1h-8v-4l-5 4-6 1-6-1-4-2-3-4-1-5 2-5 3-4 7-2 8-1h3v-5l-1-2-2-2h-8a26 26 0 0 0-6 3l-2 1-1-1v-2a11 11 0 0 1 0-4v-1l2-1a23 23 0 0 1 8-2l5-1 7 1 5 3 3 4 1 6Zm-11-16h-3l-5 1-2 1-2 1-1 3 2 3 4 2 4-1 3-4Zm48 10a21 21 0 0 1 0 3l-1 1-2 2-3 1a22 22 0 0 1-14 0l-5-4-4-6-1-9 2-9c0-3 2-5 3-7l6-4a20 20 0 0 1 13 0 16 16 0 0 1 4 2l1 1v1l1 1v2l-1 3-1 1h-1l-2-2-3-1-3-1c-3 0-5 1-6 4-2 2-2 5-2 9v5l2 3 2 3h8l2-2 2-1 1-1 1 1 1 2v2Zm40-14-1 3-2 1h-22l1 4 1 4 3 2h5a25 25 0 0 0 11-2h2v1a19 19 0 0 1 0 5v1l-2 1-3 1a41 41 0 0 1-9 1l-8-1-7-4-3-6-1-9 1-9c1-2 2-5 4-6l5-4 8-2 8 1a14 14 0 0 1 8 10l1 7Zm-10-2-1-7-6-3-4 1-2 2-1 3-1 4ZM111 222l-1 1h-1a22 22 0 0 1-6 0l-1-1v-4l-6 4-7 2-7-2-4-4-3-6a35 35 0 0 1 0-17l3-6 5-4 7-2 6 1 5 4v-20l1-1h1a21 21 0 0 1 7 0v1h1Zm-10-25-5-4-4-1-3 1-3 2-1 4v9l1 4 3 2 3 1a7 7 0 0 0 4-1l2-2 3-3Zm53 5-1 3-2 1h-22v4l2 4 3 2h5a25 25 0 0 0 10-2h3v1a19 19 0 0 1 0 5l-1 1-1 1-3 1a41 41 0 0 1-9 1l-9-1-6-4-3-6-2-9 2-9 3-6 6-4 8-2 8 1a14 14 0 0 1 8 10l1 7Zm-10-2c0-3 0-6-2-7-1-2-3-3-5-3l-4 1-2 2-2 3v4Zm43 11-1 6-3 4-5 2a23 23 0 0 1-17-2l-1-1v-7h1l1 1a28 28 0 0 0 6 2 13 13 0 0 0 6 0l2-1 1-1v-4l-2-1-3-2a71 71 0 0 1-7-2l-2-3-2-3-1-4 1-5 3-4 4-2a21 21 0 0 1 10-1 24 24 0 0 1 5 2l1 1h1v1a12 12 0 0 1 0 2 21 21 0 0 1 0 3v1h-2a20 20 0 0 0-5-2 13 13 0 0 0-6 0h-1a3 3 0 0 0-2 3l1 2 2 2 3 1a75 75 0 0 1 7 3l2 2a10 10 0 0 1 3 7Zm35 5a21 21 0 0 1 0 3l-1 1-2 2-3 1a22 22 0 0 1-14 0l-5-4-4-6-1-9 2-9 3-7 6-4a20 20 0 0 1 14 0 16 16 0 0 1 4 2v2l1 1v2l-1 3-1 1h-1l-2-2-3-1-3-1c-3 0-5 1-6 4-2 2-2 5-2 9v5l2 3 2 3h8l2-2 2-1 2-1v1h1v4Zm30-27a29 29 0 0 1 0 4h-1v1l-1-1a37 37 0 0 0-2 0h-3l-2 1-2 2-2 3v23l-1 1h-2a25 25 0 0 1-6 0l-1-1v-37l1-1h1a18 18 0 0 1 6 0v1h1v5l2-3 3-2a8 8 0 0 1 4-2 11 11 0 0 1 4 1l1 1v4Zm16 33-1 1h-1a25 25 0 0 1-7 0l-1-1v-37l1-1h2a21 21 0 0 1 6 0l1 1v1Zm1-49-1 4-5 2-5-1-1-5 2-4 4-1 5 1 1 4Zm46 30-2 9-3 6-4 4a15 15 0 0 1-10 2l-3-1-2-2-3-2v18h-1l-1 1a21 21 0 0 1-7-1h-1v-52l1-1h1a18 18 0 0 1 6 0l1 1v5a37 37 0 0 1 6-5 14 14 0 0 1 7-2l7 2 4 4 3 6 1 8Zm-11 1v-5l-2-3c0-2-1-2-2-3l-3-1a7 7 0 0 0-4 1l-2 2-3 3v12l4 4 4 1 4-1 2-2 1-4 1-4Zm39 14v3l-1 1-1 1h-1a17 17 0 0 1-5 1l-5-1a9 9 0 0 1-6-6v-25h-5l-1-1v-6l1-1h5v-9h1l1-1a25 25 0 0 1 7 1h1v9h8l1 1v1a17 17 0 0 1 0 5l-1 1h-8v17l1 5 3 1a7 7 0 0 0 3 0l1-1h1v4Zm18 4-1 1h-2a25 25 0 0 1-6 0l-1-1v-37l1-1h1a21 21 0 0 1 7 0l1 1v1Zm1-49-2 4-4 2-5-1-1-5 1-4 5-1 4 1 2 4Zm45 30-1 9-4 6c-1 2-3 3-6 4l-9 2-8-1a15 15 0 0 1-9-11 29 29 0 0 1 0-17l3-6 7-4 8-2 9 1a15 15 0 0 1 9 11l1 8Zm-10 1-1-5-1-4-3-3-4-1-4 1-3 2-2 4v10l2 4 2 3 5 1 4-1 3-2 1-4 1-5Zm52 18-1 1h-1a25 25 0 0 1-7 0l-1-1v-25l-1-3-2-1-3-1-4 1-4 5v24l-1 1h-2a25 25 0 0 1-6 0l-1-1v-37l1-1h1a18 18 0 0 1 6 0v6c2-3 4-4 7-5l6-2 6 1 4 4 3 5v6ZM87 321h-1v1h-2a25 25 0 0 1-6 0l-1-1h-1v-54h1l1-1h1a21 21 0 0 1 7 0v1h1Zm40 0v1h-8v-4l-5 4-7 1-5-1-4-2-3-4-1-5 2-5c0-2 2-3 3-4l6-2 9-1h3v-5l-1-2-2-2h-8a26 26 0 0 0-6 3l-2 1-1-1v-1l-1-1a11 11 0 0 1 0-4l1-1 2-1a23 23 0 0 1 8-2l4-1 8 1 5 3 2 4 1 6Zm-10-16h-4l-4 1-3 1-1 1-1 3 2 3 4 2 4-1 3-4Zm55 16h-1v1h-2a25 25 0 0 1-6 0l-1-1v-21l-1-4-1-3-2-1-3-1-3 1-5 5v24l-1 1h-1a25 25 0 0 1-7 0l-1-1v-37l1-1h1a18 18 0 0 1 6 0l1 1v5c2-3 4-4 6-5l6-2 7 1 4 4 2 5 1 6Zm42-34-1 3-1 1h-4l1 2 1 3-1 5-3 4-5 3-6 1-4-1-2-1-1 2v1l1 2 3 1h8l6 1 4 2 3 4v4a11 11 0 0 1-4 9l-6 3-8 1-8-1-6-2-3-3-1-4a9 9 0 0 1 2-5l1-2 3-2a7 7 0 0 1-4-6l1-4 3-4a11 11 0 0 1-3-8l1-6 3-4 5-3 6-1a25 25 0 0 1 6 1h11l1 1 1 3Zm-13 9-2-5-4-2-3 1a5 5 0 0 0-3 3v3l1 4 5 2 2-1 2-1 1-2 1-2Zm2 28-1-2-4-1-8-1a11 11 0 0 0-2 3l-1 1v2l2 3 6 1 4-1 2-1a4 4 0 0 0 2-4Zm52-3h-1v1h-2a18 18 0 0 1-5 0l-1-1v-5c-2 3-4 4-6 5l-7 2-6-1-4-4-2-4-1-7v-23l1-1h2a25 25 0 0 1 6 0l1 1v21l1 4 1 3 2 1 2 1 4-1 4-4v-25h1v-1h2a25 25 0 0 1 6 0l1 1h1Zm40 0v1h-8v-4l-5 4-7 1-5-1-4-2-3-4-1-5 1-5 4-4 6-2 9-1h3v-5l-1-2-2-2h-8a26 26 0 0 0-6 3l-2 1-1-1v-1l-1-1a11 11 0 0 1 0-4l1-1 2-1a23 23 0 0 1 8-2l4-1 7 1c2 1 4 1 5 3 2 1 3 2 3 4l1 6Zm-10-16h-4l-4 1-3 1-1 1-1 3 2 3 4 2 3-1 4-4Zm53-18-1 3-1 1h-4l1 2v3l-1 5c0 2-1 3-3 4l-4 3-7 1-3-1-2-1-1 2-1 1 2 2 2 1h9l6 1 4 2 2 4 1 4a11 11 0 0 1-5 9l-5 3-9 1-8-1-5-2-3-3-1-4a9 9 0 0 1 1-5l2-2 2-2a7 7 0 0 1-3-6l1-4c0-2 1-3 3-4a11 11 0 0 1-4-8l2-6c0-2 1-3 3-4l4-3 6-1a25 25 0 0 1 7 1h11l1 1 1 3Zm-13 9-2-5-5-2-2 1a5 5 0 0 0-3 3l-1 3 2 4 4 2 3-1 2-1 1-2 1-2Zm2 28-2-2-4-1-7-1a11 11 0 0 0-2 3l-1 1v2l2 3 6 1 4-1 2-1a4 4 0 0 0 2-4Zm50-23-1 3-3 1h-22l1 4 2 4 3 2h4a25 25 0 0 0 11-2h3v1a19 19 0 0 1-1 5v1l-1 1-3 1a41 41 0 0 1-10 1l-8-1c-3-1-5-2-6-4l-4-6-1-9 1-9c1-2 2-5 4-6 1-2 3-3 6-4l7-2 8 1a14 14 0 0 1 9 10l1 7Zm-10-2-2-7c-1-2-3-3-6-3l-3 1-3 2-1 3-1 4Z"/></g></g><path fill="url(#l)" d="M1819 1171h581v379h-581z"/><text fill="#404040" font-family="Calibri,Calibri_MSFontService,sans-serif" font-size="83" font-weight="700" transform="translate(1852 1264)">Interface <tspan x="0" y="99">description </tspan><tspan x="0" y="198">language</tspan></text></g></svg>