<svg width="915" height="431" xmlns="http://www.w3.org/2000/svg" xmlns:xlink="http://www.w3.org/1999/xlink" overflow="hidden"><defs><filter id="fx0" x="-10%" y="-10%" width="120%" height="120%" filterUnits="userSpaceOnUse" primitiveUnits="userSpaceOnUse"><feComponentTransfer color-interpolation-filters="sRGB"><feFuncR type="discrete" tableValues="0 0"/><feFuncG type="discrete" tableValues="0 0"/><feFuncB type="discrete" tableValues="0 0"/><feFuncA type="linear" slope="0.631373" intercept="0"/></feComponentTransfer><feGaussianBlur stdDeviation="6.875 6.875"/></filter><filter id="fx1" x="-10%" y="-10%" width="120%" height="120%" filterUnits="userSpaceOnUse" primitiveUnits="userSpaceOnUse"><feComponentTransfer color-interpolation-filters="sRGB"><feFuncR type="discrete" tableValues="0 0"/><feFuncG type="discrete" tableValues="0 0"/><feFuncB type="discrete" tableValues="0 0"/><feFuncA type="linear" slope="0.631373" intercept="0"/></feComponentTransfer><feGaussianBlur stdDeviation="6.875 6.875"/></filter><clipPath id="clip2"><rect x="2775" y="835" width="915" height="431"/></clipPath><clipPath id="clip3"><rect x="-17" y="-17" width="298" height="158"/></clipPath><clipPath id="clip4"><rect x="0" y="0" width="900" height="424"/></clipPath><clipPath id="clip5"><rect x="-3" y="-6" width="159" height="88"/></clipPath><clipPath id="clip6"><rect x="0" y="0" width="529" height="254"/></clipPath><linearGradient x1="3241" y1="858" x2="3241" y2="1238" gradientUnits="userSpaceOnUse" spreadMethod="reflect" id="fill7"><stop offset="0" stop-color="#FFC746"/><stop offset="0.5" stop-color="#FFC600"/><stop offset="1" stop-color="#E5B600"/></linearGradient></defs><g clip-path="url(#clip2)" transform="translate(-2775 -835)"><g clip-path="url(#clip3)" filter="url(#fx0)" transform="translate(2791 843)"><g clip-path="url(#clip4)"><rect x="22" y="21.875" width="856" height="380" fill="#FF0000"/></g></g><g clip-path="url(#clip5)" filter="url(#fx1)" transform="translate(2774 835)"><g clip-path="url(#clip6)"><path d="M40.1626-35.9072C40.1626-35.2588 40.1221-34.7117 40.041-34.2659 39.96-33.8201 39.8519-33.4621 39.7168-33.1919 39.5817-32.9217 39.4128-32.7258 39.2102-32.6042 39.0076-32.4827 38.7982-32.4219 38.582-32.4219L33.9619-32.4219 32.584-20.8716 36.5557-20.8716C37.015-20.8716 37.3865-20.6082 37.6702-20.0813 37.9538-19.5544 38.0957-18.6696 38.0957-17.4268 38.0957-16.7783 38.0552-16.2244 37.9741-15.7651 37.8931-15.3058 37.785-14.9411 37.6499-14.6709 37.5148-14.4007 37.3459-14.2048 37.1433-14.0833 36.9407-13.9617 36.7313-13.9009 36.5151-13.9009L31.6924-13.9009 30.1929-1.21582C30.1659-0.972656 30.0916-0.763265 29.97-0.587646 29.8484-0.412028 29.6322-0.256673 29.3215-0.121582 29.0108 0.0135091 28.592 0.108073 28.0652 0.162109 27.5383 0.216146 26.8696 0.243164 26.0591 0.243164 25.1945 0.243164 24.4988 0.216146 23.9719 0.162109 23.4451 0.108073 23.0465 0.0135091 22.7764-0.121582 22.5062-0.256673 22.3238-0.412028 22.2292-0.587646 22.1347-0.763265 22.1009-0.972656 22.1279-1.21582L23.668-13.9009 14.5898-13.9009 13.0903-1.21582C13.0633-0.999674 12.989-0.797038 12.8674-0.60791 12.7458-0.418783 12.5365-0.256673 12.2393-0.121582 11.9421 0.0135091 11.53 0.108073 11.0032 0.162109 10.4763 0.216146 9.7806 0.243164 8.91601 0.243164 8.07845 0.243164 7.40299 0.216146 6.88965 0.162109 6.3763 0.108073 5.97778 0.0135091 5.69409-0.121582 5.4104-0.256673 5.22127-0.412028 5.12671-0.587646 5.03214-0.763265 5.01188-0.972656 5.06592-1.21582L6.5249-13.9009 2.6748-13.9009C2.21549-13.9009 1.84399-14.1576 1.5603-14.6709 1.27661-15.1842 1.13477-16.0758 1.13477-17.3457 1.13477-17.9941 1.17529-18.548 1.25635-19.0073 1.3374-19.4666 1.44548-19.8314 1.58057-20.1016 1.71566-20.3717 1.87777-20.5676 2.06689-20.6892 2.25602-20.8108 2.47217-20.8716 2.71533-20.8716L7.4165-20.8716 8.79443-32.4219 4.70117-32.4219C4.24186-32.4219 3.87036-32.6785 3.58667-33.1919 3.30298-33.7052 3.16113-34.5968 3.16113-35.8667 3.16113-37.1636 3.30973-38.0687 3.60693-38.582 3.90413-39.0954 4.28239-39.352 4.7417-39.352L9.60498-39.352 11.064-51.186C11.064-51.4292 11.1315-51.6386 11.2666-51.8142 11.4017-51.9898 11.6313-52.1452 11.9556-52.2803 12.2798-52.4154 12.7121-52.5167 13.2524-52.5842 13.7928-52.6518 14.4818-52.6855 15.3193-52.6855 16.1569-52.6855 16.8324-52.6518 17.3457-52.5842 17.859-52.5167 18.2508-52.4154 18.521-52.2803 18.7912-52.1452 18.96-51.9898 19.0276-51.8142 19.0951-51.6386 19.1289-51.4427 19.1289-51.2266L17.6294-39.352 26.7075-39.352 28.0854-51.186C28.1125-51.4022 28.1935-51.6048 28.3286-51.7939 28.4637-51.9831 28.6866-52.1452 28.9973-52.2803 29.308-52.4154 29.7336-52.5167 30.2739-52.5842 30.8143-52.6518 31.5168-52.6855 32.3813-52.6855 33.2189-52.6855 33.8944-52.6518 34.4077-52.5842 34.9211-52.5167 35.3128-52.4154 35.583-52.2803 35.8532-52.1452 36.022-51.9898 36.0896-51.8142 36.1571-51.6386 36.1774-51.4427 36.1504-51.2266L34.7319-39.352 38.6226-39.352C39.0819-39.352 39.4534-39.0886 39.7371-38.5618 40.0207-38.0349 40.1626-37.1501 40.1626-35.9072ZM16.8188-32.4219 15.4409-20.8716 24.4785-20.8716 25.897-32.4219ZM64.6748 10.0508C64.6748 11.4017 64.5532 12.3473 64.3101 12.8877 64.0669 13.4281 63.7156 13.6982 63.2563 13.6982L50.7334 13.6982C50.2741 13.6982 49.8553 13.6307 49.477 13.4956 49.0988 13.3605 48.7746 13.1579 48.5044 12.8877 48.2342 12.6175 48.0181 12.2663 47.856 11.834 47.6938 11.4017 47.6128 10.8883 47.6128 10.2939L47.6128-53.9824C47.6128-54.5498 47.6938-55.0496 47.856-55.4819 48.0181-55.9142 48.2342-56.2722 48.5044-56.5559 48.7746-56.8396 49.0988-57.0422 49.477-57.1638 49.8553-57.2854 50.2741-57.3462 50.7334-57.3462L63.2563-57.3462C63.4725-57.3462 63.6751-57.2854 63.8643-57.1638 64.0534-57.0422 64.2087-56.8396 64.3303-56.5559 64.4519-56.2722 64.5397-55.9007 64.5937-55.4414 64.6478-54.9821 64.6748-54.4012 64.6748-53.6987 64.6748-52.3208 64.5532-51.3684 64.3101-50.8415 64.0669-50.3147 63.7156-50.0513 63.2563-50.0513L57.1367-50.0513 57.1367 6.40332 63.2563 6.40332C63.4725 6.40332 63.6751 6.45736 63.8643 6.56543 64.0534 6.6735 64.2087 6.87614 64.3303 7.17334 64.4519 7.47054 64.5397 7.84879 64.5937 8.3081 64.6478 8.76741 64.6748 9.34831 64.6748 10.0508ZM109.677-19.98C109.677-16.7648 109.333-13.8671 108.644-11.2869 107.955-8.70662 106.948-6.51139 105.624-4.70117 104.3-2.89095 102.652-1.49951 100.68-0.526855 98.7077 0.445801 96.4516 0.932129 93.9119 0.932129 92.8582 0.932129 91.8923 0.83081 91.0142 0.628174 90.1361 0.425537 89.2851 0.114827 88.461-0.303955 87.637-0.722738 86.8197-1.24284 86.0091-1.86426 85.1986-2.48568 84.361-3.21517 83.4964-4.05273L83.4964 12.9687C83.4964 13.2389 83.4154 13.4821 83.2533 13.6982 83.0911 13.9144 82.8142 14.0968 82.4224 14.2454 82.0307 14.394 81.5106 14.5088 80.8621 14.5898 80.2137 14.6709 79.3896 14.7114 78.39 14.7114 77.3903 14.7114 76.5662 14.6709 75.9178 14.5898 75.2694 14.5088 74.7493 14.394 74.3575 14.2454 73.9657 14.0968 73.6888 13.9144 73.5267 13.6982 73.3646 13.4821 73.2835 13.2389 73.2835 12.9687L73.2835-37.5283C73.2835-37.7985 73.3511-38.0349 73.4862-38.2375 73.6212-38.4402 73.8577-38.609 74.1954-38.7441 74.5331-38.8792 74.9789-38.9805 75.5328-39.0481 76.0867-39.1156 76.7824-39.1494 77.6199-39.1494 78.4305-39.1494 79.1127-39.1156 79.6666-39.0481 80.2205-38.9805 80.6663-38.8792 81.004-38.7441 81.3417-38.609 81.5781-38.4402 81.7132-38.2375 81.8483-38.0349 81.9158-37.7985 81.9158-37.5283L81.9158-33.2729C82.9696-34.3537 84.003-35.3061 85.0162-36.1301 86.0294-36.9542 87.0628-37.6431 88.1165-38.197 89.1702-38.7509 90.2577-39.1629 91.379-39.4331 92.5002-39.7033 93.6958-39.8384 94.9657-39.8384 97.6134-39.8384 99.8695-39.3183 101.734-38.2781 103.598-37.2379 105.118-35.8127 106.293-34.0024 107.468-32.1922 108.326-30.0848 108.867-27.6802 109.407-25.2756 109.677-22.7088 109.677-19.98ZM99.0589-19.2505C99.0589-20.7905 98.9441-22.2698 98.7144-23.6882 98.4848-25.1067 98.093-26.3698 97.5391-27.4775 96.9853-28.5853 96.2558-29.4701 95.3507-30.1321 94.4455-30.794 93.3175-31.125 91.9666-31.125 91.2912-31.125 90.6225-31.0237 89.9605-30.821 89.2986-30.6184 88.6231-30.2874 87.9342-29.8281 87.2452-29.3688 86.536-28.7744 85.8065-28.0449 85.077-27.3154 84.307-26.4103 83.4964-25.3296L83.4964-13.4145C84.9284-11.6043 86.2928-10.2061 87.5897-9.21997 88.8866-8.2338 90.2375-7.74072 91.6424-7.74072 92.9663-7.74072 94.0943-8.07845 95.0264-8.75391 95.9586-9.42936 96.7218-10.3142 97.3162-11.4084 97.9106-12.5027 98.3497-13.7388 98.6334-15.1167 98.9171-16.4946 99.0589-17.8726 99.0589-19.2505ZM140.62-34.1645C140.62-33.1919 140.593-32.3949 140.539-31.7734 140.485-31.152 140.404-30.6657 140.296-30.3145 140.188-29.9632 140.046-29.7201 139.871-29.585 139.695-29.4499 139.472-29.3823 139.202-29.3823 138.986-29.3823 138.742-29.4296 138.472-29.5242 138.202-29.6187 137.898-29.7201 137.56-29.8281 137.223-29.9362 136.851-30.0375 136.446-30.1321 136.041-30.2266 135.595-30.2739 135.109-30.2739 134.541-30.2739 133.974-30.1591 133.406-29.9294 132.839-29.6998 132.251-29.3418 131.643-28.8555 131.036-28.3691 130.401-27.7207 129.739-26.9102 129.077-26.0996 128.367-25.0999 127.611-23.9111L127.611-1.37793C127.611-1.10775 127.53-0.871338 127.368-0.668701 127.206-0.466064 126.929-0.297201 126.537-0.162109 126.145-0.0270182 125.625 0.0743001 124.977 0.141846 124.328 0.209391 123.504 0.243164 122.505 0.243164 121.505 0.243164 120.681 0.209391 120.032 0.141846 119.384 0.0743001 118.864-0.0270182 118.472-0.162109 118.08-0.297201 117.803-0.466064 117.641-0.668701 117.479-0.871338 117.398-1.10775 117.398-1.37793L117.398-37.5283C117.398-37.7985 117.466-38.0349 117.601-38.2375 117.736-38.4402 117.979-38.609 118.33-38.7441 118.681-38.8792 119.134-38.9805 119.688-39.0481 120.242-39.1156 120.937-39.1494 121.775-39.1494 122.64-39.1494 123.356-39.1156 123.923-39.0481 124.49-38.9805 124.929-38.8792 125.24-38.7441 125.551-38.609 125.774-38.4402 125.909-38.2375 126.044-38.0349 126.111-37.7985 126.111-37.5283L126.111-33.0298C127.057-34.3807 127.949-35.4952 128.786-36.3733 129.624-37.2514 130.421-37.9471 131.177-38.4604 131.934-38.9738 132.69-39.3318 133.447-39.5344 134.203-39.7371 134.96-39.8384 135.716-39.8384 136.068-39.8384 136.446-39.8181 136.851-39.7776 137.257-39.7371 137.675-39.6695 138.108-39.5749 138.54-39.4804 138.918-39.3723 139.242-39.2507 139.567-39.1291 139.803-39.0008 139.952-38.8657 140.1-38.7306 140.208-38.582 140.276-38.4199 140.343-38.2578 140.404-38.0349 140.458-37.7512 140.512-37.4675 140.553-37.042 140.58-36.4746 140.607-35.9072 140.62-35.1372 140.62-34.1645ZM182.164-19.8179C182.164-16.7378 181.759-13.9279 180.948-11.3882 180.138-8.84847 178.908-6.65999 177.26-4.82275 175.612-2.98551 173.545-1.56706 171.06-0.567383 168.574 0.432292 165.67 0.932129 162.346 0.932129 159.131 0.932129 156.335 0.486328 153.957-0.405273 151.58-1.29687 149.607-2.59375 148.04-4.2959 146.473-5.99805 145.311-8.09196 144.555-10.5776 143.798-13.0633 143.42-15.9002 143.42-19.0884 143.42-22.1685 143.832-24.9851 144.656-27.5383 145.48-30.0915 146.716-32.28 148.364-34.1038 150.012-35.9275 152.073-37.3392 154.545-38.3389 157.017-39.3385 159.915-39.8384 163.238-39.8384 166.48-39.8384 169.29-39.3993 171.668-38.5212 174.045-37.6431 176.011-36.353 177.564-34.6509 179.118-32.9487 180.273-30.8548 181.029-28.3691 181.786-25.8835 182.164-23.033 182.164-19.8179ZM171.668-19.4126C171.668-21.1958 171.526-22.8372 171.242-24.3367 170.958-25.8362 170.479-27.1398 169.803-28.2476 169.128-29.3553 168.23-30.2199 167.108-30.8413 165.987-31.4627 164.575-31.7734 162.873-31.7734 161.36-31.7734 160.036-31.4965 158.901-30.9426 157.767-30.3888 156.835-29.5782 156.105-28.511 155.376-27.4438 154.828-26.1604 154.464-24.6609 154.099-23.1614 153.917-21.4525 153.917-19.5342 153.917-17.751 154.065-16.1096 154.362-14.6101 154.66-13.1106 155.139-11.807 155.801-10.6992 156.463-9.59147 157.361-8.73364 158.496-8.12573 159.631-7.51782 161.036-7.21387 162.711-7.21387 164.251-7.21387 165.589-7.4908 166.723-8.04468 167.858-8.59855 168.79-9.40234 169.52-10.4561 170.249-11.5098 170.79-12.7864 171.141-14.2859 171.492-15.7854 171.668-17.4943 171.668-19.4126ZM222.307-35.0156C222.307-33.7187 222.158-32.7596 221.861-32.1382 221.564-31.5168 221.199-31.2061 220.767-31.2061L216.512-31.2061C217.106-30.5576 217.532-29.8214 217.788-28.9973 218.045-28.1733 218.173-27.3154 218.173-26.4238 218.173-24.3164 217.822-22.4454 217.12-20.8108 216.417-19.1762 215.411-17.7983 214.1-16.677 212.79-15.5557 211.209-14.7047 209.359-14.1238 207.508-13.5429 205.448-13.2524 203.178-13.2524 202.016-13.2524 200.909-13.3943 199.855-13.678 198.801-13.9617 197.991-14.2926 197.423-14.6709 197.099-14.3197 196.809-13.9009 196.552-13.4145 196.295-12.9282 196.167-12.3879 196.167-11.7935 196.167-11.0099 196.511-10.3682 197.2-9.86841 197.889-9.36857 198.855-9.09163 200.098-9.0376L208.893-8.71338C210.946-8.63232 212.776-8.34188 214.384-7.84204 215.992-7.3422 217.342-6.63973 218.437-5.73462 219.531-4.82951 220.369-3.74202 220.949-2.47217 221.53-1.20231 221.821 0.243164 221.821 1.86426 221.821 3.64746 221.429 5.32935 220.645 6.90991 219.862 8.49048 218.687 9.86165 217.12 11.0234 215.553 12.1852 213.587 13.1038 211.223 13.7793 208.859 14.4548 206.096 14.7925 202.935 14.7925 199.855 14.7925 197.227 14.5493 195.052 14.063 192.877 13.5767 191.094 12.9012 189.703 12.0366 188.311 11.172 187.298 10.1386 186.663 8.93628 186.028 7.73397 185.711 6.41683 185.711 4.98486 185.711 4.09326 185.826 3.24219 186.055 2.43164 186.285 1.62109 186.623 0.84432 187.069 0.101318 187.514-0.641683 188.061-1.35091 188.71-2.02637 189.358-2.70182 190.101-3.35026 190.939-3.97168 189.777-4.5931 188.879-5.43742 188.244-6.50464 187.609-7.57186 187.291-8.7404 187.291-10.0103 187.291-11.6043 187.656-13.0566 188.386-14.3669 189.115-15.6773 190.061-16.8594 191.223-17.9131 190.277-18.8587 189.52-19.9935 188.953-21.3174 188.386-22.6413 188.102-24.2894 188.102-26.2617 188.102-28.3691 188.473-30.2537 189.217-31.9153 189.96-33.5769 190.993-34.9818 192.317-36.1301 193.641-37.2784 195.221-38.1565 197.059-38.7644 198.896-39.3723 200.922-39.6763 203.138-39.6763 204.272-39.6763 205.36-39.6087 206.4-39.4736 207.44-39.3385 208.406-39.1494 209.298-38.9062L220.767-38.9062C221.226-38.9062 221.598-38.609 221.882-38.0146 222.165-37.4202 222.307-36.4206 222.307-35.0156ZM209.217-26.4644C209.217-28.4097 208.676-29.9227 207.596-31.0034 206.515-32.0841 204.988-32.6245 203.016-32.6245 202.016-32.6245 201.138-32.4556 200.382-32.1179 199.625-31.7802 198.997-31.3209 198.497-30.74 197.997-30.1591 197.626-29.4836 197.383-28.7136 197.14-27.9436 197.018-27.1398 197.018-26.3022 197.018-24.465 197.558-23.0128 198.639-21.9456 199.72-20.8783 201.219-20.3447 203.138-20.3447 204.164-20.3447 205.056-20.5068 205.812-20.8311 206.569-21.1553 207.197-21.6011 207.697-22.1685 208.197-22.7358 208.575-23.391 208.832-24.134 209.088-24.877 209.217-25.6538 209.217-26.4644ZM211.608 2.39111C211.608 1.17529 211.122 0.243164 210.149-0.405273 209.176-1.05371 207.839-1.40495 206.137-1.45898L198.882-1.66162C198.18-1.14827 197.619-0.655192 197.2-0.182373 196.782 0.290446 196.444 0.743001 196.187 1.17529 195.931 1.60758 195.762 2.02637 195.681 2.43164 195.6 2.83691 195.559 3.2557 195.559 3.68799 195.559 5.0389 196.241 6.06559 197.606 6.76807 198.97 7.47054 200.895 7.82178 203.381 7.82178 204.921 7.82178 206.218 7.66642 207.271 7.35571 208.325 7.045 209.176 6.63297 209.825 6.11963 210.473 5.60628 210.932 5.03214 211.203 4.39722 211.473 3.76229 211.608 3.09359 211.608 2.39111ZM251.904-34.1645C251.904-33.1919 251.877-32.3949 251.823-31.7734 251.768-31.152 251.687-30.6657 251.579-30.3145 251.471-29.9632 251.329-29.7201 251.154-29.585 250.978-29.4499 250.755-29.3823 250.485-29.3823 250.269-29.3823 250.026-29.4296 249.756-29.5242 249.485-29.6187 249.181-29.7201 248.844-29.8281 248.506-29.9362 248.135-30.0375 247.729-30.1321 247.324-30.2266 246.878-30.2739 246.392-30.2739 245.824-30.2739 245.257-30.1591 244.69-29.9294 244.122-29.6998 243.535-29.3418 242.927-28.8555 242.319-28.3691 241.684-27.7207 241.022-26.9102 240.36-26.0996 239.651-25.0999 238.894-23.9111L238.894-1.37793C238.894-1.10775 238.813-0.871338 238.651-0.668701 238.489-0.466064 238.212-0.297201 237.82-0.162109 237.429-0.0270182 236.908 0.0743001 236.26 0.141846 235.612 0.209391 234.788 0.243164 233.788 0.243164 232.788 0.243164 231.964 0.209391 231.316 0.141846 230.667 0.0743001 230.147-0.0270182 229.755-0.162109 229.364-0.297201 229.087-0.466064 228.925-0.668701 228.762-0.871338 228.681-1.10775 228.681-1.37793L228.681-37.5283C228.681-37.7985 228.749-38.0349 228.884-38.2375 229.019-38.4402 229.262-38.609 229.614-38.7441 229.965-38.8792 230.417-38.9805 230.971-39.0481 231.525-39.1156 232.221-39.1494 233.058-39.1494 233.923-39.1494 234.639-39.1156 235.206-39.0481 235.774-38.9805 236.213-38.8792 236.523-38.7441 236.834-38.609 237.057-38.4402 237.192-38.2375 237.327-38.0349 237.395-37.7985 237.395-37.5283L237.395-33.0298C238.34-34.3807 239.232-35.4952 240.07-36.3733 240.907-37.2514 241.704-37.9471 242.461-38.4604 243.217-38.9738 243.974-39.3318 244.73-39.5344 245.487-39.7371 246.243-39.8384 247-39.8384 247.351-39.8384 247.729-39.8181 248.135-39.7776 248.54-39.7371 248.959-39.6695 249.391-39.5749 249.823-39.4804 250.201-39.3723 250.526-39.2507 250.85-39.1291 251.086-39.0008 251.235-38.8657 251.383-38.7306 251.492-38.582 251.559-38.4199 251.627-38.2578 251.687-38.0349 251.741-37.7512 251.796-37.4675 251.836-37.042 251.863-36.4746 251.89-35.9072 251.904-35.1372 251.904-34.1645ZM286.891-1.25635C286.891-0.878092 286.755-0.580892 286.485-0.364746 286.215-0.1486 285.79 0.00675456 285.209 0.101318 284.628 0.195882 283.77 0.243164 282.635 0.243164 281.419 0.243164 280.534 0.195882 279.981 0.101318 279.427 0.00675456 279.035-0.1486 278.805-0.364746 278.576-0.580892 278.461-0.878092 278.461-1.25635L278.461-4.13379C276.975-2.53971 275.279-1.29687 273.375-0.405273 271.47 0.486328 269.356 0.932129 267.032 0.932129 265.114 0.932129 263.351 0.68221 261.743 0.182373 260.136-0.317464 258.744-1.06047 257.569-2.04663 256.394-3.0328 255.482-4.25537 254.833-5.71435 254.185-7.17334 253.861-8.87549 253.861-10.8208 253.861-12.9282 254.273-14.7587 255.097-16.3123 255.921-17.8658 257.15-19.1492 258.785-20.1624 260.419-21.1755 262.453-21.9253 264.884-22.4116 267.316-22.8979 270.139-23.1411 273.354-23.1411L276.88-23.1411 276.88-25.3296C276.88-26.4644 276.765-27.4573 276.536-28.3083 276.306-29.1594 275.928-29.8686 275.401-30.436 274.874-31.0034 274.172-31.4222 273.294-31.6924 272.416-31.9626 271.328-32.0977 270.031-32.0977 268.329-32.0977 266.809-31.9085 265.472-31.5303 264.134-31.152 262.952-30.7332 261.926-30.2739 260.899-29.8146 260.041-29.3958 259.352-29.0176 258.663-28.6393 258.103-28.4502 257.67-28.4502 257.373-28.4502 257.11-28.5448 256.88-28.7339 256.65-28.923 256.461-29.1932 256.313-29.5444 256.164-29.8957 256.049-30.328 255.968-30.8413 255.887-31.3547 255.847-31.922 255.847-32.5435 255.847-33.381 255.914-34.043 256.049-34.5293 256.184-35.0156 256.441-35.4547 256.819-35.8464 257.198-36.2382 257.859-36.6705 258.805-37.1433 259.751-37.6161 260.858-38.0552 262.128-38.4604 263.398-38.8657 264.783-39.1967 266.282-39.4534 267.782-39.71 269.329-39.8384 270.923-39.8384 273.76-39.8384 276.185-39.5614 278.197-39.0076 280.21-38.4537 281.865-37.6026 283.162-36.4543 284.459-35.3061 285.405-33.8268 285.999-32.0166 286.593-30.2064 286.891-28.0584 286.891-25.5728ZM276.88-16.7378 272.99-16.7378C271.342-16.7378 269.937-16.6162 268.775-16.373 267.613-16.1299 266.667-15.7651 265.938-15.2788 265.208-14.7925 264.675-14.2048 264.337-13.5159 263.999-12.8269 263.83-12.0366 263.83-11.145 263.83-9.632 264.31-8.4432 265.269-7.57861 266.228-6.71403 267.559-6.28174 269.261-6.28174 270.693-6.28174 272.01-6.64648 273.213-7.37598 274.415-8.10547 275.637-9.17269 276.88-10.5776ZM354.275-1.37793C354.275-1.10775 354.194-0.871338 354.032-0.668701 353.87-0.466064 353.6-0.297201 353.221-0.162109 352.843-0.0270182 352.33 0.0743001 351.681 0.141846 351.033 0.209391 350.209 0.243164 349.209 0.243164 348.183 0.243164 347.345 0.209391 346.697 0.141846 346.048 0.0743001 345.528-0.0270182 345.136-0.162109 344.744-0.297201 344.474-0.466064 344.326-0.668701 344.177-0.871338 344.103-1.10775 344.103-1.37793L344.103-22.8169C344.103-24.0327 343.988-25.1405 343.758-26.1401 343.529-27.1398 343.177-27.9976 342.705-28.7136 342.232-29.4296 341.637-29.9835 340.921-30.3752 340.205-30.767 339.348-30.9629 338.348-30.9629 337.132-30.9629 335.903-30.4901 334.66-29.5444 333.417-28.5988 332.066-27.2209 330.607-25.4106L330.607-1.37793C330.607-1.10775 330.526-0.871338 330.364-0.668701 330.202-0.466064 329.925-0.297201 329.533-0.162109 329.141-0.0270182 328.621 0.0743001 327.973 0.141846 327.324 0.209391 326.514 0.243164 325.541 0.243164 324.542 0.243164 323.718 0.209391 323.069 0.141846 322.421 0.0743001 321.901-0.0270182 321.509-0.162109 321.117-0.297201 320.84-0.466064 320.678-0.668701 320.516-0.871338 320.435-1.10775 320.435-1.37793L320.435-22.8169C320.435-24.0327 320.32-25.1405 320.09-26.1401 319.861-27.1398 319.516-27.9976 319.057-28.7136 318.598-29.4296 318.003-29.9835 317.274-30.3752 316.544-30.767 315.693-30.9629 314.72-30.9629 313.478-30.9629 312.235-30.4901 310.992-29.5444 309.749-28.5988 308.412-27.2209 306.98-25.4106L306.98-1.37793C306.98-1.10775 306.899-0.871338 306.737-0.668701 306.574-0.466064 306.298-0.297201 305.906-0.162109 305.514-0.0270182 304.994 0.0743001 304.345 0.141846 303.697 0.209391 302.873 0.243164 301.873 0.243164 300.874 0.243164 300.05 0.209391 299.401 0.141846 298.753 0.0743001 298.233-0.0270182 297.841-0.162109 297.449-0.297201 297.172-0.466064 297.01-0.668701 296.848-0.871338 296.767-1.10775 296.767-1.37793L296.767-37.5283C296.767-37.7985 296.834-38.0349 296.969-38.2375 297.105-38.4402 297.348-38.609 297.699-38.7441 298.05-38.8792 298.503-38.9805 299.057-39.0481 299.611-39.1156 300.306-39.1494 301.144-39.1494 302.008-39.1494 302.724-39.1156 303.292-39.0481 303.859-38.9805 304.298-38.8792 304.609-38.7441 304.92-38.609 305.142-38.4402 305.278-38.2375 305.413-38.0349 305.48-37.7985 305.48-37.5283L305.48-33.354C307.48-35.5155 309.472-37.1366 311.458-38.2173 313.444-39.298 315.517-39.8384 317.679-39.8384 319.165-39.8384 320.502-39.683 321.691-39.3723 322.88-39.0616 323.94-38.6158 324.873-38.0349 325.805-37.454 326.608-36.7583 327.284-35.9478 327.959-35.1372 328.527-34.2321 328.986-33.2324 330.067-34.3942 331.127-35.3939 332.167-36.2314 333.208-37.069 334.234-37.7512 335.248-38.2781 336.261-38.8049 337.274-39.1967 338.287-39.4534 339.3-39.71 340.334-39.8384 341.387-39.8384 343.792-39.8384 345.818-39.4331 347.467-38.6226 349.115-37.812 350.445-36.711 351.458-35.3196 352.472-33.9281 353.194-32.3003 353.627-30.436 354.059-28.5718 354.275-26.5994 354.275-24.519ZM379.361 10.2939C379.361 10.8883 379.273 11.4017 379.097 11.834 378.922 12.2663 378.699 12.6175 378.428 12.8877 378.158 13.1579 377.834 13.3605 377.456 13.4956 377.078 13.6307 376.659 13.6982 376.199 13.6982L363.636 13.6982C363.177 13.6982 362.825 13.4281 362.582 12.8877 362.339 12.3473 362.218 11.4017 362.218 10.0508 362.218 9.34831 362.251 8.76741 362.319 8.3081 362.386 7.84879 362.481 7.47054 362.603 7.17334 362.724 6.87614 362.873 6.6735 363.048 6.56543 363.224 6.45736 363.42 6.40332 363.636 6.40332L369.796 6.40332 369.796-50.0513 363.636-50.0513C363.177-50.0513 362.825-50.3147 362.582-50.8415 362.339-51.3684 362.218-52.3208 362.218-53.6987 362.218-54.4012 362.251-54.9821 362.319-55.4414 362.386-55.9007 362.481-56.2722 362.603-56.5559 362.724-56.8396 362.873-57.0422 363.048-57.1638 363.224-57.2854 363.42-57.3462 363.636-57.3462L376.199-57.3462C376.659-57.3462 377.078-57.2854 377.456-57.1638 377.834-57.0422 378.158-56.8396 378.428-56.5559 378.699-56.2722 378.922-55.9142 379.097-55.4819 379.273-55.0496 379.361-54.5498 379.361-53.9824Z" fill="#404040" transform="matrix(1 0 0 1 71.7434 123)"/><path d="M19.9687-28.5937C19.9687-28.2969 19.9531-28.0391 19.9219-27.8203 19.8906-27.6016 19.8359-27.4258 19.7578-27.293 19.6797-27.1602 19.5898-27.0625 19.4883-27 19.3867-26.9375 19.2812-26.9062 19.1719-26.9062L8.0625-26.9062 8.0625-16.5937 18.5625-16.5937C18.6719-16.5937 18.7773-16.5664 18.8789-16.5117 18.9805-16.457 19.0703-16.3672 19.1484-16.2422 19.2266-16.1172 19.2812-15.9492 19.3125-15.7383 19.3437-15.5273 19.3594-15.2578 19.3594-14.9297 19.3594-14.6328 19.3437-14.3789 19.3125-14.168 19.2812-13.957 19.2266-13.7852 19.1484-13.6523 19.0703-13.5195 18.9805-13.418 18.8789-13.3477 18.7773-13.2773 18.6719-13.2422 18.5625-13.2422L8.0625-13.2422 8.0625-0.609375C8.0625-0.5 8.03125-0.394531 7.96875-0.292969 7.90625-0.191406 7.79687-0.113281 7.64062-0.0585937 7.48437-0.00390625 7.28125 0.0429687 7.03125 0.0820312 6.78125 0.121094 6.45312 0.140625 6.04687 0.140625 5.67187 0.140625 5.35156 0.121094 5.08594 0.0820312 4.82031 0.0429687 4.60937-0.00390625 4.45312-0.0585937 4.29687-0.113281 4.1875-0.191406 4.125-0.292969 4.0625-0.394531 4.03125-0.5 4.03125-0.609375L4.03125-28.6875C4.03125-29.2969 4.19141-29.7227 4.51172-29.9648 4.83203-30.207 5.17187-30.3281 5.53125-30.3281L19.1719-30.3281C19.2812-30.3281 19.3867-30.2969 19.4883-30.2344 19.5898-30.1719 19.6797-30.0703 19.7578-29.9297 19.8359-29.7891 19.8906-29.6055 19.9219-29.3789 19.9531-29.1523 19.9687-28.8906 19.9687-28.5937ZM44-0.585937C44-0.460937 43.9726-0.355469 43.918-0.269531 43.8633-0.183594 43.7656-0.109375 43.625-0.046875 43.4844 0.015625 43.3008 0.0625 43.0742 0.09375 42.8476 0.125 42.5703 0.140625 42.2422 0.140625 41.8828 0.140625 41.5898 0.125 41.3633 0.09375 41.1367 0.0625 40.957 0.015625 40.8242-0.046875 40.6914-0.109375 40.6016-0.183594 40.5547-0.269531 40.5078-0.355469 40.4844-0.460937 40.4844-0.585937L40.4844-3.375C39.2812-2.04688 38.0937-1.07812 36.9219-0.46875 35.75 0.140625 34.5625 0.445312 33.3594 0.445312 31.9531 0.445312 30.7695 0.210937 29.8086-0.257812 28.8477-0.726562 28.0703-1.36328 27.4766-2.16797 26.8828-2.97266 26.457-3.91016 26.1992-4.98047 25.9414-6.05078 25.8125-7.35156 25.8125-8.88281L25.8125-21.6797C25.8125-21.8047 25.8398-21.9102 25.8945-21.9961 25.9492-22.082 26.0547-22.1602 26.2109-22.2305 26.3672-22.3008 26.5703-22.3477 26.8203-22.3711 27.0703-22.3945 27.3828-22.4062 27.7578-22.4062 28.1328-22.4062 28.4453-22.3945 28.6953-22.3711 28.9453-22.3477 29.1445-22.3008 29.293-22.2305 29.4414-22.1602 29.5469-22.082 29.6094-21.9961 29.6719-21.9102 29.7031-21.8047 29.7031-21.6797L29.7031-9.39844C29.7031-8.16406 29.793-7.17578 29.9727-6.43359 30.1523-5.69141 30.4258-5.05859 30.793-4.53516 31.1602-4.01172 31.625-3.60547 32.1875-3.31641 32.75-3.02734 33.4062-2.88281 34.1562-2.88281 35.125-2.88281 36.0898-3.22656 37.0508-3.91406 38.0117-4.60156 39.0312-5.60937 40.1094-6.9375L40.1094-21.6797C40.1094-21.8047 40.1367-21.9102 40.1914-21.9961 40.2461-22.082 40.3516-22.1602 40.5078-22.2305 40.6641-22.3008 40.8633-22.3477 41.1055-22.3711 41.3476-22.3945 41.6641-22.4062 42.0547-22.4062 42.4297-22.4062 42.7422-22.3945 42.9922-22.3711 43.2422-22.3477 43.4375-22.3008 43.5781-22.2305 43.7187-22.1602 43.8242-22.082 43.8945-21.9961 43.9648-21.9102 44-21.8047 44-21.6797ZM69.3021-0.585937C69.3021-0.460937 69.2708-0.355469 69.2083-0.269531 69.1458-0.183594 69.0443-0.109375 68.9036-0.046875 68.763 0.015625 68.5677 0.0625 68.3177 0.09375 68.0677 0.125 67.7552 0.140625 67.3802 0.140625 66.9896 0.140625 66.6693 0.125 66.4193 0.09375 66.1693 0.0625 65.974 0.015625 65.8333-0.046875 65.6927-0.109375 65.5911-0.183594 65.5286-0.269531 65.4661-0.355469 65.4349-0.460937 65.4349-0.585937L65.4349-12.9375C65.4349-14.1406 65.3411-15.1094 65.1536-15.8437 64.9661-16.5781 64.6927-17.2109 64.3333-17.7422 63.9739-18.2734 63.5091-18.6797 62.9388-18.9609 62.3685-19.2422 61.7083-19.3828 60.9583-19.3828 59.9896-19.3828 59.0208-19.0391 58.0521-18.3516 57.0833-17.6641 56.0677-16.6562 55.0052-15.3281L55.0052-0.585937C55.0052-0.460937 54.9739-0.355469 54.9115-0.269531 54.8489-0.183594 54.7474-0.109375 54.6068-0.046875 54.4661 0.015625 54.2708 0.0625 54.0208 0.09375 53.7708 0.125 53.4505 0.140625 53.0599 0.140625 52.6849 0.140625 52.3724 0.125 52.1224 0.09375 51.8724 0.0625 51.6732 0.015625 51.5247-0.046875 51.3763-0.109375 51.2747-0.183594 51.22-0.269531 51.1654-0.355469 51.138-0.460937 51.138-0.585937L51.138-21.6797C51.138-21.8047 51.1614-21.9102 51.2083-21.9961 51.2552-22.082 51.3489-22.1602 51.4896-22.2305 51.6302-22.3008 51.8099-22.3477 52.0286-22.3711 52.2474-22.3945 52.5364-22.4062 52.8958-22.4062 53.2396-22.4062 53.5247-22.3945 53.7513-22.3711 53.9779-22.3477 54.1536-22.3008 54.2786-22.2305 54.4036-22.1602 54.4935-22.082 54.5482-21.9961 54.6029-21.9102 54.6302-21.8047 54.6302-21.6797L54.6302-18.8906C55.8177-20.2187 57.0013-21.1914 58.181-21.8086 59.3607-22.4258 60.5521-22.7344 61.7552-22.7344 63.1614-22.7344 64.345-22.4961 65.306-22.0195 66.2669-21.543 67.0443-20.9062 67.638-20.1094 68.2318-19.3125 68.6575-18.3789 68.9154-17.3086 69.1732-16.2383 69.3021-14.9531 69.3021-13.4531ZM91.5104-3.79687C91.5104-3.53125 91.5026-3.30078 91.487-3.10547 91.4713-2.91016 91.444-2.74609 91.4049-2.61328 91.3659-2.48047 91.319-2.36328 91.2643-2.26172 91.2096-2.16016 91.0846-2.01172 90.8893-1.81641 90.694-1.62109 90.362-1.37891 89.8932-1.08984 89.4245-0.800781 88.8971-0.542969 88.3112-0.316406 87.7253-0.0898437 87.0885 0.09375 86.401 0.234375 85.7135 0.375 85.0026 0.445312 84.2682 0.445312 82.7526 0.445312 81.4088 0.195312 80.237-0.304687 79.0651-0.804687 78.0846-1.53516 77.2956-2.49609 76.5065-3.45703 75.9049-4.63672 75.4909-6.03516 75.0768-7.43359 74.8698-9.04687 74.8698-10.875 74.8698-12.9531 75.1237-14.7383 75.6315-16.2305 76.1393-17.7227 76.8346-18.9453 77.7174-19.8984 78.6003-20.8516 79.6393-21.5586 80.8346-22.0195 82.0299-22.4805 83.3229-22.7109 84.7135-22.7109 85.3854-22.7109 86.0378-22.6484 86.6706-22.5234 87.3034-22.3984 87.8854-22.2344 88.4167-22.0312 88.9479-21.8281 89.4206-21.5937 89.8346-21.3281 90.2487-21.0625 90.5495-20.8359 90.737-20.6484 90.9245-20.4609 91.0534-20.3125 91.1237-20.2031 91.194-20.0937 91.2526-19.9648 91.2995-19.8164 91.3463-19.668 91.3776-19.5 91.3932-19.3125 91.4088-19.125 91.4167-18.8906 91.4167-18.6094 91.4167-18 91.3463-17.5742 91.2057-17.332 91.0651-17.0898 90.8932-16.9687 90.6901-16.9687 90.4557-16.9687 90.1862-17.0977 89.8815-17.3555 89.5768-17.6133 89.1901-17.8984 88.7213-18.2109 88.2526-18.5234 87.6862-18.8086 87.0221-19.0664 86.3581-19.3242 85.5729-19.4531 84.6667-19.4531 82.8073-19.4531 81.3815-18.7383 80.3893-17.3086 79.3971-15.8789 78.901-13.8047 78.901-11.0859 78.901-9.72656 79.0299-8.53516 79.2878-7.51172 79.5456-6.48828 79.9245-5.63281 80.4245-4.94531 80.9245-4.25781 81.5378-3.74609 82.2643-3.41016 82.9909-3.07422 83.8229-2.90625 84.7604-2.90625 85.651-2.90625 86.4323-3.04687 87.1042-3.32812 87.776-3.60937 88.3581-3.91797 88.8503-4.25391 89.3424-4.58984 89.7565-4.89453 90.0924-5.16797 90.4284-5.44141 90.6901-5.57812 90.8776-5.57812 90.987-5.57812 91.0807-5.54687 91.1588-5.48437 91.237-5.42187 91.3034-5.31641 91.3581-5.16797 91.4128-5.01953 91.4518-4.83203 91.4753-4.60547 91.4987-4.37891 91.5104-4.10937 91.5104-3.79687ZM107.94-2.13281C107.94-1.67969 107.909-1.32031 107.846-1.05469 107.784-0.789062 107.69-0.59375 107.565-0.46875 107.44-0.34375 107.253-0.226562 107.003-0.117187 106.753-0.0078125 106.467 0.0820312 106.147 0.152344 105.827 0.222656 105.487 0.28125 105.128 0.328125 104.768 0.375 104.409 0.398437 104.049 0.398437 102.956 0.398437 102.018 0.253906 101.237-0.0351562 100.456-0.324219 99.8151-0.761719 99.3151-1.34766 98.8151-1.93359 98.4518-2.67578 98.2253-3.57422 97.9987-4.47266 97.8854-5.53125 97.8854-6.75L97.8854-19.0781 94.9323-19.0781C94.6979-19.0781 94.5104-19.2031 94.3698-19.4531 94.2292-19.7031 94.1588-20.1094 94.1588-20.6719 94.1588-20.9687 94.1784-21.2187 94.2174-21.4219 94.2565-21.625 94.3073-21.793 94.3698-21.9258 94.4323-22.0586 94.5143-22.1523 94.6159-22.207 94.7174-22.2617 94.8307-22.2891 94.9557-22.2891L97.8854-22.2891 97.8854-27.3047C97.8854-27.4141 97.9128-27.5156 97.9674-27.6094 98.0221-27.7031 98.1237-27.7852 98.2721-27.8555 98.4206-27.9258 98.6198-27.9766 98.8698-28.0078 99.1198-28.0391 99.4323-28.0547 99.8073-28.0547 100.198-28.0547 100.518-28.0391 100.768-28.0078 101.018-27.9766 101.214-27.9258 101.354-27.8555 101.495-27.7852 101.596-27.7031 101.659-27.6094 101.721-27.5156 101.753-27.4141 101.753-27.3047L101.753-22.2891 107.167-22.2891C107.292-22.2891 107.401-22.2617 107.495-22.207 107.589-22.1523 107.671-22.0586 107.741-21.9258 107.811-21.793 107.862-21.625 107.893-21.4219 107.924-21.2187 107.94-20.9687 107.94-20.6719 107.94-20.1094 107.87-19.7031 107.729-19.4531 107.589-19.2031 107.401-19.0781 107.167-19.0781L101.753-19.0781 101.753-7.3125C101.753-5.85937 101.967-4.76172 102.397-4.01953 102.827-3.27734 103.596-2.90625 104.706-2.90625 105.065-2.90625 105.385-2.94141 105.667-3.01172 105.948-3.08203 106.198-3.15625 106.417-3.23437 106.635-3.3125 106.823-3.38672 106.979-3.45703 107.135-3.52734 107.276-3.5625 107.401-3.5625 107.479-3.5625 107.553-3.54297 107.624-3.50391 107.694-3.46484 107.749-3.39062 107.788-3.28125 107.827-3.17187 107.862-3.02344 107.893-2.83594 107.924-2.64844 107.94-2.41406 107.94-2.13281ZM116.88-0.585937C116.88-0.460937 116.849-0.355469 116.786-0.269531 116.724-0.183594 116.622-0.109375 116.482-0.046875 116.341 0.015625 116.146 0.0625 115.896 0.09375 115.646 0.125 115.326 0.140625 114.935 0.140625 114.56 0.140625 114.247 0.125 113.997 0.09375 113.747 0.0625 113.548 0.015625 113.4-0.046875 113.251-0.109375 113.15-0.183594 113.095-0.269531 113.04-0.355469 113.013-0.460937 113.013-0.585937L113.013-21.6797C113.013-21.7891 113.04-21.8906 113.095-21.9844 113.15-22.0781 113.251-22.1562 113.4-22.2187 113.548-22.2812 113.747-22.3281 113.997-22.3594 114.247-22.3906 114.56-22.4062 114.935-22.4062 115.326-22.4062 115.646-22.3906 115.896-22.3594 116.146-22.3281 116.341-22.2812 116.482-22.2187 116.622-22.1562 116.724-22.0781 116.786-21.9844 116.849-21.8906 116.88-21.7891 116.88-21.6797ZM117.326-28.8047C117.326-27.8984 117.154-27.2812 116.81-26.9531 116.466-26.625 115.833-26.4609 114.911-26.4609 114.005-26.4609 113.384-26.6211 113.048-26.9414 112.712-27.2617 112.544-27.8672 112.544-28.7578 112.544-29.6641 112.716-30.2812 113.06-30.6094 113.404-30.9375 114.036-31.1016 114.958-31.1016 115.865-31.1016 116.486-30.9414 116.822-30.6211 117.158-30.3008 117.326-29.6953 117.326-28.8047ZM143.516-11.3672C143.516-9.64844 143.289-8.06641 142.836-6.62109 142.383-5.17578 141.707-3.92969 140.809-2.88281 139.91-1.83594 138.785-1.01953 137.434-0.433594 136.082 0.152344 134.516 0.445312 132.734 0.445312 131 0.445312 129.488 0.1875 128.199-0.328125 126.91-0.84375 125.836-1.59375 124.977-2.57812 124.117-3.5625 123.477-4.75781 123.055-6.16406 122.633-7.57031 122.422-9.16406 122.422-10.9453 122.422-12.6641 122.645-14.2461 123.09-15.6914 123.535-17.1367 124.207-18.3828 125.105-19.4297 126.004-20.4766 127.125-21.2891 128.469-21.8672 129.812-22.4453 131.383-22.7344 133.18-22.7344 134.914-22.7344 136.426-22.4766 137.715-21.9609 139.004-21.4453 140.078-20.6953 140.937-19.7109 141.797-18.7266 142.441-17.5312 142.871-16.125 143.301-14.7187 143.516-13.1328 143.516-11.3672ZM139.508-11.1094C139.508-12.25 139.401-13.3281 139.188-14.3437 138.976-15.3594 138.625-16.25 138.136-17.0156 137.647-17.7812 136.985-18.3867 136.149-18.832 135.314-19.2773 134.273-19.5 133.028-19.5 131.877-19.5 130.887-19.2969 130.06-18.8906 129.232-18.4844 128.55-17.9102 128.014-17.168 127.478-16.4258 127.08-15.5469 126.82-14.5312 126.56-13.5156 126.43-12.4062 126.43-11.2031 126.43-10.0469 126.536-8.96094 126.749-7.94531 126.962-6.92969 127.317-6.04297 127.813-5.28516 128.31-4.52734 128.976-3.92578 129.811-3.48047 130.647-3.03516 131.688-2.8125 132.933-2.8125 134.068-2.8125 135.054-3.01562 135.889-3.42187 136.725-3.82812 137.411-4.39844 137.947-5.13281 138.483-5.86719 138.877-6.74219 139.129-7.75781 139.382-8.77344 139.508-9.89062 139.508-11.1094ZM167.271-0.585937C167.271-0.460937 167.24-0.355469 167.177-0.269531 167.115-0.183594 167.013-0.109375 166.872-0.046875 166.732 0.015625 166.536 0.0625 166.286 0.09375 166.036 0.125 165.724 0.140625 165.349 0.140625 164.958 0.140625 164.638 0.125 164.388 0.09375 164.138 0.0625 163.943 0.015625 163.802-0.046875 163.661-0.109375 163.56-0.183594 163.497-0.269531 163.435-0.355469 163.404-0.460937 163.404-0.585937L163.404-12.9375C163.404-14.1406 163.31-15.1094 163.122-15.8437 162.935-16.5781 162.661-17.2109 162.302-17.7422 161.943-18.2734 161.478-18.6797 160.908-18.9609 160.337-19.2422 159.677-19.3828 158.927-19.3828 157.958-19.3828 156.99-19.0391 156.021-18.3516 155.052-17.6641 154.036-16.6562 152.974-15.3281L152.974-0.585937C152.974-0.460937 152.943-0.355469 152.88-0.269531 152.818-0.183594 152.716-0.109375 152.576-0.046875 152.435 0.015625 152.24 0.0625 151.99 0.09375 151.74 0.125 151.419 0.140625 151.029 0.140625 150.654 0.140625 150.341 0.125 150.091 0.09375 149.841 0.0625 149.642 0.015625 149.493-0.046875 149.345-0.109375 149.243-0.183594 149.189-0.269531 149.134-0.355469 149.107-0.460937 149.107-0.585937L149.107-21.6797C149.107-21.8047 149.13-21.9102 149.177-21.9961 149.224-22.082 149.318-22.1602 149.458-22.2305 149.599-22.3008 149.779-22.3477 149.997-22.3711 150.216-22.3945 150.505-22.4062 150.865-22.4062 151.208-22.4062 151.493-22.3945 151.72-22.3711 151.947-22.3477 152.122-22.3008 152.247-22.2305 152.372-22.1602 152.462-22.082 152.517-21.9961 152.572-21.9102 152.599-21.8047 152.599-21.6797L152.599-18.8906C153.786-20.2187 154.97-21.1914 156.15-21.8086 157.329-22.4258 158.521-22.7344 159.724-22.7344 161.13-22.7344 162.314-22.4961 163.275-22.0195 164.236-21.543 165.013-20.9062 165.607-20.1094 166.201-19.3125 166.626-18.3789 166.884-17.3086 167.142-16.2383 167.271-14.9531 167.271-13.4531ZM194.729 6.98437C194.729 7.53125 194.667 7.92969 194.542 8.17969 194.417 8.42969 194.221 8.55469 193.956 8.55469L171.385 8.55469C171.12 8.55469 170.917 8.4375 170.776 8.20312 170.635 7.96875 170.565 7.57812 170.565 7.03125 170.565 6.5 170.635 6.10156 170.776 5.83594 170.917 5.57031 171.12 5.4375 171.385 5.4375L193.956 5.4375C194.206 5.4375 194.397 5.5625 194.53 5.8125 194.663 6.0625 194.729 6.45312 194.729 6.98437ZM216.542-0.585937C216.542-0.460937 216.51-0.355469 216.448-0.269531 216.385-0.183594 216.284-0.109375 216.143-0.046875 216.003 0.015625 215.807 0.0625 215.557 0.09375 215.307 0.125 214.995 0.140625 214.62 0.140625 214.229 0.140625 213.909 0.125 213.659 0.09375 213.409 0.0625 213.214 0.015625 213.073-0.046875 212.932-0.109375 212.831-0.183594 212.768-0.269531 212.706-0.355469 212.674-0.460937 212.674-0.585937L212.674-12.9375C212.674-14.1406 212.581-15.1094 212.393-15.8437 212.206-16.5781 211.932-17.2109 211.573-17.7422 211.214-18.2734 210.749-18.6797 210.178-18.9609 209.608-19.2422 208.948-19.3828 208.198-19.3828 207.229-19.3828 206.26-19.0391 205.292-18.3516 204.323-17.6641 203.307-16.6562 202.245-15.3281L202.245-0.585937C202.245-0.460937 202.214-0.355469 202.151-0.269531 202.089-0.183594 201.987-0.109375 201.846-0.046875 201.706 0.015625 201.51 0.0625 201.26 0.09375 201.01 0.125 200.69 0.140625 200.299 0.140625 199.924 0.140625 199.612 0.125 199.362 0.09375 199.112 0.0625 198.913 0.015625 198.764-0.046875 198.616-0.109375 198.514-0.183594 198.46-0.269531 198.405-0.355469 198.378-0.460937 198.378-0.585937L198.378-21.6797C198.378-21.8047 198.401-21.9102 198.448-21.9961 198.495-22.082 198.589-22.1602 198.729-22.2305 198.87-22.3008 199.049-22.3477 199.268-22.3711 199.487-22.3945 199.776-22.4062 200.135-22.4062 200.479-22.4062 200.764-22.3945 200.991-22.3711 201.217-22.3477 201.393-22.3008 201.518-22.2305 201.643-22.1602 201.733-22.082 201.788-21.9961 201.842-21.9102 201.87-21.8047 201.87-21.6797L201.87-18.8906C203.057-20.2187 204.241-21.1914 205.421-21.8086 206.6-22.4258 207.792-22.7344 208.995-22.7344 210.401-22.7344 211.585-22.4961 212.546-22.0195 213.506-21.543 214.284-20.9062 214.878-20.1094 215.471-19.3125 215.897-18.3789 216.155-17.3086 216.413-16.2383 216.542-14.9531 216.542-13.4531ZM239.477-0.5625C239.477-0.375 239.414-0.234375 239.289-0.140625 239.164-0.046875 238.992 0.0234375 238.773 0.0703125 238.555 0.117187 238.234 0.140625 237.812 0.140625 237.406 0.140625 237.082 0.117187 236.84 0.0703125 236.598 0.0234375 236.422-0.046875 236.312-0.140625 236.203-0.234375 236.148-0.375 236.148-0.5625L236.148-2.67187C235.227-1.6875 234.199-0.921875 233.066-0.375 231.934 0.171875 230.734 0.445312 229.469 0.445312 228.359 0.445312 227.355 0.300781 226.457 0.0117187 225.559-0.277344 224.793-0.695312 224.16-1.24219 223.527-1.78906 223.035-2.46094 222.684-3.25781 222.332-4.05469 222.156-4.96094 222.156-5.97656 222.156-7.16406 222.398-8.19531 222.883-9.07031 223.367-9.94531 224.062-10.6719 224.969-11.25 225.875-11.8281 226.984-12.2617 228.297-12.5508 229.609-12.8398 231.086-12.9844 232.727-12.9844L235.633-12.9844 235.633-14.625C235.633-15.4375 235.547-16.1562 235.375-16.7812 235.203-17.4062 234.926-17.9258 234.543-18.3398 234.16-18.7539 233.664-19.0664 233.055-19.2773 232.445-19.4883 231.695-19.5937 230.805-19.5937 229.852-19.5937 228.996-19.4805 228.238-19.2539 227.48-19.0273 226.816-18.7773 226.246-18.5039 225.676-18.2305 225.199-17.9805 224.816-17.7539 224.434-17.5273 224.148-17.4141 223.961-17.4141 223.836-17.4141 223.727-17.4453 223.633-17.5078 223.539-17.5703 223.457-17.6641 223.387-17.7891 223.316-17.9141 223.266-18.0742 223.234-18.2695 223.203-18.4648 223.187-18.6797 223.187-18.9141 223.187-19.3047 223.215-19.6133 223.27-19.8398 223.324-20.0664 223.457-20.2812 223.668-20.4844 223.879-20.6875 224.242-20.9258 224.758-21.1992 225.273-21.4727 225.867-21.7227 226.539-21.9492 227.211-22.1758 227.945-22.3633 228.742-22.5117 229.539-22.6602 230.344-22.7344 231.156-22.7344 232.672-22.7344 233.961-22.5625 235.023-22.2187 236.086-21.875 236.945-21.3711 237.602-20.707 238.258-20.043 238.734-19.2187 239.031-18.2344 239.328-17.25 239.477-16.1016 239.477-14.7891ZM235.633-10.1953 232.328-10.1953C231.266-10.1953 230.344-10.1055 229.562-9.92578 228.781-9.74609 228.133-9.48047 227.617-9.12891 227.102-8.77734 226.723-8.35547 226.48-7.86328 226.238-7.37109 226.117-6.80469 226.117-6.16406 226.117-5.07031 226.465-4.19922 227.16-3.55078 227.855-2.90234 228.828-2.57812 230.078-2.57812 231.094-2.57812 232.035-2.83594 232.902-3.35156 233.77-3.86719 234.68-4.65625 235.633-5.71875ZM277.792-0.585937C277.792-0.460937 277.76-0.355469 277.698-0.269531 277.635-0.183594 277.534-0.109375 277.393-0.046875 277.253 0.015625 277.057 0.0625 276.807 0.09375 276.557 0.125 276.245 0.140625 275.87 0.140625 275.479 0.140625 275.159 0.125 274.909 0.09375 274.659 0.0625 274.46 0.015625 274.311-0.046875 274.163-0.109375 274.057-0.183594 273.995-0.269531 273.932-0.355469 273.901-0.460937 273.901-0.585937L273.901-13.4062C273.901-14.2969 273.823-15.1094 273.667-15.8437 273.51-16.5781 273.26-17.2109 272.917-17.7422 272.573-18.2734 272.135-18.6797 271.604-18.9609 271.073-19.2422 270.448-19.3828 269.729-19.3828 268.839-19.3828 267.944-19.0391 267.046-18.3516 266.147-17.6641 265.159-16.6562 264.081-15.3281L264.081-0.585937C264.081-0.460937 264.049-0.355469 263.987-0.269531 263.924-0.183594 263.819-0.109375 263.671-0.046875 263.522 0.015625 263.323 0.0625 263.073 0.09375 262.823 0.125 262.51 0.140625 262.135 0.140625 261.776 0.140625 261.467 0.125 261.21 0.09375 260.952 0.0625 260.749 0.015625 260.6-0.046875 260.452-0.109375 260.35-0.183594 260.296-0.269531 260.241-0.355469 260.214-0.460937 260.214-0.585937L260.214-13.4062C260.214-14.2969 260.128-15.1094 259.956-15.8437 259.784-16.5781 259.526-17.2109 259.182-17.7422 258.839-18.2734 258.405-18.6797 257.881-18.9609 257.358-19.2422 256.737-19.3828 256.018-19.3828 255.128-19.3828 254.229-19.0391 253.323-18.3516 252.417-17.6641 251.432-16.6562 250.37-15.3281L250.37-0.585937C250.37-0.460937 250.339-0.355469 250.276-0.269531 250.214-0.183594 250.112-0.109375 249.971-0.046875 249.831 0.015625 249.635 0.0625 249.385 0.09375 249.135 0.125 248.815 0.140625 248.424 0.140625 248.049 0.140625 247.737 0.125 247.487 0.09375 247.237 0.0625 247.038 0.015625 246.889-0.046875 246.741-0.109375 246.639-0.183594 246.585-0.269531 246.53-0.355469 246.503-0.460937 246.503-0.585937L246.503-21.6797C246.503-21.8047 246.526-21.9102 246.573-21.9961 246.62-22.082 246.714-22.1602 246.854-22.2305 246.995-22.3008 247.174-22.3477 247.393-22.3711 247.612-22.3945 247.901-22.4062 248.26-22.4062 248.604-22.4062 248.889-22.3945 249.116-22.3711 249.342-22.3477 249.518-22.3008 249.643-22.2305 249.768-22.1602 249.858-22.082 249.913-21.9961 249.967-21.9102 249.995-21.8047 249.995-21.6797L249.995-18.8906C251.182-20.2187 252.335-21.1914 253.452-21.8086 254.569-22.4258 255.698-22.7344 256.839-22.7344 257.714-22.7344 258.499-22.6328 259.194-22.4297 259.889-22.2266 260.503-21.9414 261.034-21.5742 261.565-21.207 262.018-20.7695 262.393-20.2617 262.768-19.7539 263.081-19.1875 263.331-18.5625 264.034-19.3281 264.702-19.9766 265.335-20.5078 265.967-21.0391 266.577-21.4687 267.163-21.7969 267.749-22.125 268.319-22.3633 268.874-22.5117 269.428-22.6602 269.987-22.7344 270.549-22.7344 271.909-22.7344 273.049-22.4961 273.971-22.0195 274.893-21.543 275.639-20.9062 276.21-20.1094 276.78-19.3125 277.186-18.3789 277.428-17.3086 277.671-16.2383 277.792-15.1094 277.792-13.9219ZM302.888-12.0469C302.888-11.4375 302.735-11.0039 302.429-10.7461 302.123-10.4883 301.774-10.3594 301.381-10.3594L287.49-10.3594C287.49-9.1875 287.607-8.13281 287.843-7.19531 288.078-6.25781 288.471-5.45312 289.02-4.78125 289.57-4.10937 290.284-3.59375 291.164-3.23437 292.043-2.875 293.118-2.69531 294.39-2.69531 295.395-2.69531 296.29-2.77734 297.075-2.94141 297.86-3.10547 298.539-3.28906 299.112-3.49219 299.685-3.69531 300.156-3.87891 300.525-4.04297 300.894-4.20703 301.173-4.28906 301.362-4.28906 301.471-4.28906 301.57-4.26172 301.656-4.20703 301.742-4.15234 301.809-4.07031 301.856-3.96094 301.903-3.85156 301.938-3.69922 301.962-3.50391 301.986-3.30859 301.997-3.07031 301.997-2.78906 301.997-2.58594 301.99-2.41016 301.974-2.26172 301.958-2.11328 301.939-1.98047 301.915-1.86328 301.892-1.74609 301.853-1.64062 301.798-1.54687 301.743-1.45312 301.673-1.36328 301.587-1.27734 301.501-1.19141 301.247-1.05078 300.826-0.855469 300.404-0.660156 299.857-0.46875 299.185-0.28125 298.513-0.09375 297.736 0.0742188 296.853 0.222656 295.97 0.371094 295.029 0.445312 294.029 0.445312 292.294 0.445312 290.775 0.203125 289.47-0.28125 288.165-0.765625 287.068-1.48437 286.177-2.4375 285.286-3.39062 284.615-4.58594 284.161-6.02344 283.708-7.46094 283.482-9.13281 283.482-11.0391 283.482-12.8516 283.716-14.4805 284.185-15.9258 284.654-17.3711 285.329-18.5977 286.212-19.6055 287.095-20.6133 288.161-21.3867 289.411-21.9258 290.661-22.4648 292.06-22.7344 293.607-22.7344 295.263-22.7344 296.673-22.4687 297.837-21.9375 299.001-21.4062 299.958-20.6914 300.708-19.793 301.458-18.8945 302.009-17.8398 302.361-16.6289 302.712-15.418 302.888-14.125 302.888-12.75ZM298.997-13.1953C299.044-15.2266 298.592-16.8203 297.641-17.9766 296.69-19.1328 295.279-19.7109 293.409-19.7109 292.45-19.7109 291.609-19.5312 290.885-19.1719 290.162-18.8125 289.557-18.3359 289.07-17.7422 288.582-17.1484 288.205-16.457 287.938-15.668 287.67-14.8789 287.521-14.0547 287.49-13.1953Z" fill="#404040" transform="matrix(1 0 0 1 71.7434 190)"/></g></g><rect x="2813" y="858" width="856" height="380" fill="url(#fill7)"/><text fill="#404040" font-family="Calibri,Calibri_MSFontService,sans-serif" font-weight="700" font-size="83" transform="matrix(1 0 0 1 2845.74 951)">#[program]<tspan font-weight="400" font-size="48" x="0" y="67">Function_name</tspan></text></g></svg>