<svg xmlns="http://www.w3.org/2000/svg" xmlns:xlink="http://www.w3.org/1999/xlink" width="4306" height="2454" overflow="hidden"><defs><path id="reuse-0" d="M-17-17h298v158H-17z"/><path id="reuse-1" d="M0 0h900v424H0z"/><path id="reuse-2" fill="red" d="M22 22h856v380H22z"/><path id="reuse-3" fill="#FFF" d="m98 172-1 5a10 10 0 0 1-7 6l-5 1h-4v13h-1a8 8 0 0 1-3 0h-1v-33l1-1 1-1h8a24 24 0 0 1 4 1 10 10 0 0 1 6 3l1 3 1 3Zm-5 1-1-4-2-2-2-1h-7v14h4l4-1 2-1 1-2 1-3Zm32 23v1h-1a7 7 0 0 1-2 0h-1v-4l-4 3-4 2-4-1-3-2-1-4-1-4v-15h1l1-1a12 12 0 0 1 2 1h1v18l1 2 2 1 2 1 3-1 4-4v-17l1-1a12 12 0 0 1 3 1Zm30-12v6l-2 4-4 3a10 10 0 0 1-8 0l-2-2-2-2v4h-1a7 7 0 0 1-2 0h-1v-37h1a9 9 0 0 1 3 0h1v15a18 18 0 0 1 4-3 9 9 0 0 1 4-1l4 1 3 3 2 4v5Zm-4 0v-3l-1-3-2-2-3-1a6 6 0 0 0-4 1l-1 1-2 2v10l3 4 4 1 2-1 2-2 1-3 1-4Zm39 6-1 3-2 2-3 2a14 14 0 0 1-6 0 14 14 0 0 1-4-1h-1v-1l-1-2a6 6 0 0 1 1-1h1a18 18 0 0 0 4 2 9 9 0 0 0 4 0l2-1 1-1v-4l-2-1-2-1a215 215 0 0 1-6-3l-1-2-1-3 1-3 1-2 3-1a11 11 0 0 1 6-1 13 13 0 0 1 3 1l1 1a8 8 0 0 1 0 1v2h-1a10 10 0 0 0-3-1 8 8 0 0 0-4 0h-2v1l-1 2 1 2 1 1 2 1a277 277 0 0 1 7 3l1 2 1 3Zm18 5v1l-1 1h-1a14 14 0 0 1-2 0h-4l-2-2-1-2v-18h-4l-1-2v-1h1v-1h4v-6h1a9 9 0 0 1 3 0v6h6l1 1v3h-7v14l1 3 2 2h2a9 9 0 0 0 1-1h1v2Zm20-21a15 15 0 0 1 0 1v1h-1a11 11 0 0 0-2-1h-2l-1 1-2 2-2 2v17h-1a9 9 0 0 1-3 0v-25l1-1a10 10 0 0 1 2 0v1h1v4l2-3 1-1a5 5 0 0 1 3-1 9 9 0 0 1 3 0l1 1v2Zm25 22v1h-1a7 7 0 0 1-2 0l-1-1v-3c-1 2-2 3-4 3l-4 2-4-1-2-2-2-4v-19l1-1a12 12 0 0 1 3 1v18l1 2 2 1 2 1 4-1 3-4v-17l1-1a12 12 0 0 1 3 1Zm26-3a10 10 0 0 1 0 1l-1 1-1 1a11 11 0 0 1-4 1 12 12 0 0 1-7 0l-3-3-3-4v-5l1-7 2-4 4-2a12 12 0 0 1 10 1h1v1h1v2l-1 1v1l-1-1-1-1-2-1h-3l-5 2-2 7 1 4 1 3 2 2 3 1 3-1 2-1 1-1h2v2Zm18 2v1l-1 1h-1a14 14 0 0 1-2 0h-3l-2-2-2-2v-18h-4v-3l1-1h3v-6h1a9 9 0 0 1 3 0v6h7v4h-7v14l1 3 3 2h1a9 9 0 0 0 1-1h1v2Zm38-31v1l-1 1h-13v12h13v1a6 6 0 0 1 0 2l-1 1h-12v15h-1a8 8 0 0 1-3 0h-1v-33l1-1 1-1h16v1h1v1Zm27 32v1h-1a7 7 0 0 1-3 0v-4l-4 3-4 2-4-1-3-2-2-4v-19l1-1a12 12 0 0 1 3 1v14l1 4 1 2 1 1 2 1 4-1 3-4v-17h1v-1a12 12 0 0 1 3 1h1Zm29 0-1 1h-1a9 9 0 0 1-2 0h-1v-18l-1-2-2-2h-2l-3 1-4 3v18h-1a9 9 0 0 1-3 0v-25l1-1a10 10 0 0 1 2 0v1h1v3l4-3 4-1 4 1 3 2 1 3 1 5Zm25-3a10 10 0 0 1 0 1h-1v1l-1 1a11 11 0 0 1-4 1 12 12 0 0 1-7 0l-4-3-2-4v-5l1-7 2-4 4-2a12 12 0 0 1 10 1h1v1l1 1v1l-1 1v1l-1-1-1-1-2-1h-3l-5 2-2 7 1 4 1 3 2 2 3 1 3-1 2-1 1-1h2v2Zm18 2v1l-1 1h-1a14 14 0 0 1-2 0h-3l-2-2-2-2v-18h-4v-3l1-1h3v-6h1a9 9 0 0 1 3 0v6h7v4h-7v14l1 3c1 1 1 2 3 2h1a9 9 0 0 0 1-1h1v2Zm11 1v1h-2a9 9 0 0 1-2 0h-1v-25h1v-1a9 9 0 0 1 3 1h1Zm0-32v2l-3 1-2-1v-4l2-1 3 1v2Zm30 20-1 5-2 5-4 3-5 1-5-1-4-3-2-4-1-6 1-5 2-4 4-3 5-1 6 1 3 2 3 5v5Zm-4 0-1-3-1-3-2-3h-7l-2 2-2 3v8l1 3 3 2 3 1 4-1 2-2 1-3 1-4Zm32 12v1h-1a9 9 0 0 1-3 0h-1v-18l-1-2-1-2h-3l-3 1-4 3v18h-1a9 9 0 0 1-3 0v-25l1-1a10 10 0 0 1 2 0l1 1v3l4-3 4-1 4 1 3 2 1 3 1 5Zm34-1v1a2 2 0 0 1-1 1h-3l-1-1-1-1-1-1-11-20a116 116 0 0 1-3-7 272 272 0 0 1 0 8v22h-1a8 8 0 0 1-3 0h-1v-33l1-1 1-1h4l1 1 1 1v1l9 15a354 354 0 0 1 5 11 226 226 0 0 1 0-9v-20h1a10 10 0 0 1 3 0v1Zm27 1v1h-3v-3l-4 3-4 1-4-1-2-1-2-3v-6l3-3 4-1 5-1h3v-4l-1-2-2-1h-5a16 16 0 0 0-4 2h-2v-3l2-1 2-1a19 19 0 0 1 5-1l4 1 3 1 2 3v4Zm-4-11h-4l-3 1-2 1a4 4 0 0 0-2 3l1 3 4 1 3-1 3-3Zm48 11v1h-1a9 9 0 0 1-3 0v-18l-1-2-2-2h-2l-3 1-3 3v18h-1a9 9 0 0 1-3 0h-1v-18l-1-2a4 4 0 0 0-4-2l-3 1-3 3v18h-1a9 9 0 0 1-3 0v-25l1-1a10 10 0 0 1 2 0v1h1v3l3-3 4-1h3l2 1 2 2 1 2a25 25 0 0 1 4-4l2-1h2l4 1 3 2 1 3v4Zm29-13v2h-17v4l1 3 3 1 4 1a15 15 0 0 0 5-1l2-1h1v1a7 7 0 0 1 0 2v1h-1l-2 1a26 26 0 0 1-6 1l-5-1a10 10 0 0 1-6-7l-1-6 1-5 2-4c1-2 2-3 4-3l5-1 4 1a9 9 0 0 1 6 6v4Zm-4-1-2-6c-1-1-2-2-5-2l-2 1-3 2-1 2v3Z"/></defs><defs><clipPath id="a"><path d="M155 34h4306v2454H155z"/></clipPath><clipPath id="b"><use xlink:href="#reuse-0"/></clipPath><clipPath id="d"><use xlink:href="#reuse-1"/></clipPath><clipPath id="e"><path d="M-3-6h159v88H-3z"/></clipPath><clipPath id="g"><path d="M0 0h529v254H0z"/></clipPath><clipPath id="i"><use xlink:href="#reuse-0"/></clipPath><clipPath id="k"><use xlink:href="#reuse-1"/></clipPath><clipPath id="l"><path d="M-3-6h243v88H-3z"/></clipPath><clipPath id="n"><path d="M0 0h815v267H0z"/></clipPath><clipPath id="p"><use xlink:href="#reuse-0"/></clipPath><clipPath id="r"><use xlink:href="#reuse-1"/></clipPath><clipPath id="s"><path d="M-3-6h214v88H-3z"/></clipPath><clipPath id="u"><path d="M0 0h695v267H0z"/></clipPath><clipPath id="w"><path d="M-17-17h368v143H-17z"/></clipPath><clipPath id="y"><path d="M0 0h1148v367H0z"/></clipPath><clipPath id="A"><path d="M-17-17h217v158H-17z"/></clipPath><clipPath id="C"><path d="M0 0h625v423H0z"/></clipPath><clipPath id="D"><path d="M-3-3h159v125H-3z"/></clipPath><clipPath id="F"><path d="M0 0h544v415H0z"/></clipPath><filter id="c" width="120%" height="120%" x="-10%" y="-10%" filterUnits="userSpaceOnUse" primitiveUnits="userSpaceOnUse"><feComponentTransfer color-interpolation-filters="sRGB"><feFuncR tableValues="0 0" type="discrete"/><feFuncG tableValues="0 0" type="discrete"/><feFuncB tableValues="0 0" type="discrete"/><feFuncA slope=".6" type="linear"/></feComponentTransfer><feGaussianBlur stdDeviation="6.875 6.875"/></filter><filter id="f" width="120%" height="120%" x="-10%" y="-10%" filterUnits="userSpaceOnUse" primitiveUnits="userSpaceOnUse"><feComponentTransfer color-interpolation-filters="sRGB"><feFuncR tableValues="0 0" type="discrete"/><feFuncG tableValues="0 0" type="discrete"/><feFuncB tableValues="0 0" type="discrete"/><feFuncA slope=".6" type="linear"/></feComponentTransfer><feGaussianBlur stdDeviation="6.875 6.875"/></filter><filter id="j" width="120%" height="120%" x="-10%" y="-10%" filterUnits="userSpaceOnUse" primitiveUnits="userSpaceOnUse"><feComponentTransfer color-interpolation-filters="sRGB"><feFuncR tableValues="0 0" type="discrete"/><feFuncG tableValues="0 0" type="discrete"/><feFuncB tableValues="0 0" type="discrete"/><feFuncA slope=".6" type="linear"/></feComponentTransfer><feGaussianBlur stdDeviation="6.875 6.875"/></filter><filter id="m" width="120%" height="120%" x="-10%" y="-10%" filterUnits="userSpaceOnUse" primitiveUnits="userSpaceOnUse"><feComponentTransfer color-interpolation-filters="sRGB"><feFuncR tableValues="0 0" type="discrete"/><feFuncG tableValues="0 0" type="discrete"/><feFuncB tableValues="0 0" type="discrete"/><feFuncA slope=".6" type="linear"/></feComponentTransfer><feGaussianBlur stdDeviation="6.875 6.875"/></filter><filter id="q" width="120%" height="120%" x="-10%" y="-10%" filterUnits="userSpaceOnUse" primitiveUnits="userSpaceOnUse"><feComponentTransfer color-interpolation-filters="sRGB"><feFuncR tableValues="0 0" type="discrete"/><feFuncG tableValues="0 0" type="discrete"/><feFuncB tableValues="0 0" type="discrete"/><feFuncA slope=".6" type="linear"/></feComponentTransfer><feGaussianBlur stdDeviation="6.875 6.875"/></filter><filter id="t" width="120%" height="120%" x="-10%" y="-10%" filterUnits="userSpaceOnUse" primitiveUnits="userSpaceOnUse"><feComponentTransfer color-interpolation-filters="sRGB"><feFuncR tableValues="0 0" type="discrete"/><feFuncG tableValues="0 0" type="discrete"/><feFuncB tableValues="0 0" type="discrete"/><feFuncA slope=".6" type="linear"/></feComponentTransfer><feGaussianBlur stdDeviation="6.875 6.875"/></filter><filter id="x" width="120%" height="120%" x="-10%" y="-10%" filterUnits="userSpaceOnUse" primitiveUnits="userSpaceOnUse"><feComponentTransfer color-interpolation-filters="sRGB"><feFuncR tableValues="0 0" type="discrete"/><feFuncG tableValues="0 0" type="discrete"/><feFuncB tableValues="0 0" type="discrete"/><feFuncA slope=".6" type="linear"/></feComponentTransfer><feGaussianBlur stdDeviation="6.875 6.875"/></filter><filter id="B" width="120%" height="120%" x="-10%" y="-10%" filterUnits="userSpaceOnUse" primitiveUnits="userSpaceOnUse"><feComponentTransfer color-interpolation-filters="sRGB"><feFuncR tableValues="0 0" type="discrete"/><feFuncG tableValues="0 0" type="discrete"/><feFuncB tableValues="0 0" type="discrete"/><feFuncA slope=".6" type="linear"/></feComponentTransfer><feGaussianBlur stdDeviation="6.875 6.875"/></filter><filter id="E" width="120%" height="120%" x="-10%" y="-10%" filterUnits="userSpaceOnUse" primitiveUnits="userSpaceOnUse"><feComponentTransfer color-interpolation-filters="sRGB"><feFuncR tableValues="0 0" type="discrete"/><feFuncG tableValues="0 0" type="discrete"/><feFuncB tableValues="0 0" type="discrete"/><feFuncA slope=".6" type="linear"/></feComponentTransfer><feGaussianBlur stdDeviation="6.875 6.875"/></filter><linearGradient id="h" x1="3241" x2="3241" y1="858" y2="1238" gradientUnits="userSpaceOnUse" spreadMethod="reflect"><stop offset="0" stop-color="#FFC746"/><stop offset=".5" stop-color="#FFC600"/><stop offset="1" stop-color="#E5B600"/></linearGradient><linearGradient id="o" x1="3241" x2="3241" y1="1332" y2="1712" gradientUnits="userSpaceOnUse" spreadMethod="reflect"><stop offset="0" stop-color="#F18C55"/><stop offset=".5" stop-color="#F67B28"/><stop offset="1" stop-color="#E56B17"/></linearGradient><linearGradient id="v" x1="3241" x2="3241" y1="1837" y2="2217" gradientUnits="userSpaceOnUse" spreadMethod="reflect"><stop offset="0" stop-color="#6083CB"/><stop offset=".5" stop-color="#3E70CA"/><stop offset="1" stop-color="#2E61BA"/></linearGradient><linearGradient id="z" x1="2075" x2="2075" y1="1201" y2="1524" gradientUnits="userSpaceOnUse" spreadMethod="reflect"><stop offset="0" stop-color="#FFC746"/><stop offset=".5" stop-color="#FFC600"/><stop offset="1" stop-color="#E5B600"/></linearGradient><linearGradient id="G" x1="2109.5" x2="2109.5" y1="1171" y2="1550" gradientUnits="userSpaceOnUse" spreadMethod="reflect"><stop offset="0" stop-color="#FFC746"/><stop offset=".5" stop-color="#FFC600"/><stop offset="1" stop-color="#E5B600"/></linearGradient></defs><g clip-path="url(#a)" transform="translate(-155 -34)"><path fill="#F2F2F2" stroke="#D9D9D9" stroke-miterlimit="8" stroke-width="4.6" d="M158 117h4191v2334H158z"/><path fill="#FFE699" d="M605 463h1355v1838H605z"/><text font-family="Calibri,Calibri_MSFontService,sans-serif" font-size="64" font-weight="700" transform="translate(1206 540)">Client<tspan x="-56" y="77">JavaScript</tspan></text><path fill="#C5E0B4" d="M2375 463h1639v1838H2375z"/><text font-family="Calibri,Calibri_MSFontService,sans-serif" font-size="64" font-weight="700" transform="translate(2985 540)">Solana Program<tspan x="18" y="77">Rust Language</tspan><tspan x="-351" y="231">declare_id</tspan><tspan x="-74" y="231">!(“OURPROGRAMSPUBLICKEY”)</tspan><tspan x="-2340" y="-166" font-family="Calibri Light,Calibri Light_MSFontService,sans-serif" font-size="275" font-weight="300">Using Anchor to build a Blog</tspan><tspan x="565" y="1872" font-size="87" font-weight="400">@DougAnderson444</tspan></text><g clip-path="url(#b)" filter="url(#c)" transform="translate(2791 843)"><g clip-path="url(#d)"><use xlink:href="#reuse-2"/></g></g><g clip-path="url(#e)" filter="url(#f)" transform="translate(2774 835)"><g fill="#404040" clip-path="url(#g)"><path d="M112 87v2l-1 1-1 1h-4l-2 11h4l1 1 1 3v1l-1 1v1h-6l-1 13-1 1h-1a20 20 0 0 1-5 0l-1-1 1-13h-9l-1 13-1 1h-1a21 21 0 0 1-6 0v-1l1-13h-4l-1-1v-5l1-1h5l2-11h-5l-1-1v-6h6l2-12v-1h1l1-1a17 17 0 0 1 5 1h1v1l-2 12h9l2-12v-1h1l1-1a18 18 0 0 1 5 1h1v1l-2 12h5l1 3Zm-23 4-2 11h9l2-11Zm47 42v3l-1 1h-13l-1-1a3 3 0 0 1-1-1l-1-2V69l1-1v-2h16v2a15 15 0 0 1 0 4l-1 1h-6v56h6l1 1v3Zm45-30-1 9-3 6c-1 2-3 4-5 4a15 15 0 0 1-9 2l-3-1-2-2-3-2v18h-1l-1 1a21 21 0 0 1-7-1h-1V85l1-1h1a18 18 0 0 1 6 0v1h1v5a37 37 0 0 1 6-5 14 14 0 0 1 7-2l6 2 5 4 3 6v8Zm-10 1-1-5-1-3c0-2-1-2-2-3l-3-1a7 7 0 0 0-4 1l-2 2-3 3v12l4 4 4 1 4-1 2-2 1-4 1-4Zm41-15a29 29 0 0 1 0 4l-1 1-1-1a35 35 0 0 0-2 0h-3l-2 1-2 2-2 3v23l-1 1h-1a25 25 0 0 1-7 0l-1-1V85l1-1h1a18 18 0 0 1 6 0l1 1v5l3-3 2-2a8 8 0 0 1 4-2 11 11 0 0 1 4 1h1v5Zm42 14-1 9-4 6-6 4-9 2-8-1a15 15 0 0 1-10-11 29 29 0 0 1 0-17l4-6 6-4 9-2 8 1a15 15 0 0 1 10 11l1 8Zm-11 1v-5l-1-4-3-3-4-1-4 1-3 2-2 4v10l2 4 2 3 4 1 4-1 3-2 2-4v-5Zm51-16v3l-1 1h-5l2 2v3l-1 5-3 4-5 3-6 1-3-1-3-1-1 2v1l1 2 3 1h9l5 1 4 2 3 4 1 4a11 11 0 0 1-5 9l-6 3-8 1-8-1-6-2-3-3-1-4a9 9 0 0 1 2-5l1-2 3-2a7 7 0 0 1-4-6l1-4 3-4a11 11 0 0 1-3-8l1-6 3-4 5-3 6-1a25 25 0 0 1 6 1h12l1 1v3Zm-13 9-2-5-4-2-3 1a5 5 0 0 0-3 3v3l1 4 5 2 3-1 1-1 2-2v-2Zm2 28-1-2-4-1-7-1a11 11 0 0 0-3 3l-1 1v2l2 3 6 1 4-1 3-1a4 4 0 0 0 1-4Zm41-36a29 29 0 0 1-1 4l-1 1-1-1a38 38 0 0 0-2 0h-3l-1 1-2 2-2 3v23h-1v1h-2a25 25 0 0 1-7 0v-1h-1V85h1v-1h2a18 18 0 0 1 5 0l1 1v5l3-3 2-2a8 8 0 0 1 5-2 11 11 0 0 1 3 1h1v1l1 2v2Zm35 33-1 1h-7l-1-1v-3l-5 4-6 1-6-1-4-2-2-4-1-5 1-5 4-4 6-2 8-1h4v-2l-1-3-1-2-2-2h-8a26 26 0 0 0-6 3l-2 1v-1l-1-1v-1a11 11 0 0 1 0-4l1-1 2-1a23 23 0 0 1 7-2l5-1 7 1c2 1 4 1 5 3l3 4 1 6Zm-10-16h-4l-4 1-3 1-2 1v3l1 3 4 2 4-1 4-4Zm77 16-1 1h-2a25 25 0 0 1-6 0l-1-1V97l-2-3-1-1-3-1-4 1-4 5v24l-1 1h-1a24 24 0 0 1-7 0l-1-1V97l-1-3-2-1-3-1-3 1-4 5v24h-1v1h-2a25 25 0 0 1-6 0l-1-1V84h2a18 18 0 0 1 5 0l1 1v5c2-3 4-4 6-5l6-2 4 1 4 1 2 2 2 3a31 31 0 0 1 6-5 14 14 0 0 1 6-2l6 1 4 4 2 5 1 5Zm25 11v2l-1 1h-1l-1 1h-13l-1-1v-6h1v-1h7V73h-7l-1-1v-6h16l1 2v1ZM92 161v2H80v10h11v1a6 6 0 0 1 0 2v1H80v13h-1a7 7 0 0 1-3 0v-30h16v1Zm24 28v1h-1a6 6 0 0 1-2 0h-1v-3l-3 3h-7l-3-2-1-3v-17h1a10 10 0 0 1 2 0v13l1 3 1 1 1 2h2l3-1 3-3v-15h1a10 10 0 0 1 2 0h1Zm25 0v1h-1a8 8 0 0 1-2 0h-1v-16l-1-2-1-1h-2l-3 1-3 3v15h-1a8 8 0 0 1-3 0v-22h1a9 9 0 0 1 1 0h1v3l4-3 3-1 4 1 2 2 2 3v4Zm22-3a9 9 0 0 1 0 1v1l-1 1a10 10 0 0 1-4 1 11 11 0 0 1-6 0l-3-2-2-4v-10l2-4 4-2a11 11 0 0 1 9 1l1 1v3h-1l-2-1-1-1h-3c-1 0-3 0-4 2l-1 6v3l1 3 2 2h5l2-1 1-1 1-1v2Zm17 2v1l-1 1h-1a12 12 0 0 1-2 0h-3l-2-1-1-3v-15h-4v-3h4v-6h1a8 8 0 0 1 2 0v6h6l1 1-1 2h-6v12l1 3 2 1h1a8 8 0 0 0 2 0v-1l1 1v1Zm9 1v1h-1a8 8 0 0 1-3 0v-22h1a8 8 0 0 1 2 0h1Zm0-28v2l-2 1-2-1-1-2 1-2h4v2Zm26 18v4l-2 4-4 3h-9l-3-3-2-3-1-5 1-5 2-3 3-3 5-1 4 1 4 2 2 4v5Zm-4 0v-3l-1-3-2-2h-6l-2 2-1 2-1 4v3l2 3 2 2h6l2-2 1-3v-3Zm28 10v1h-1a8 8 0 0 1-2 0h-1v-16l-1-2-1-1h-2l-3 1-3 3v15h-1a8 8 0 0 1-3 0v-22h1a9 9 0 0 1 1 0h1v3l4-3 3-1 4 1 2 2 2 3v4Zm27 8v2h-23v-1l-1-1 1-1v-1h23v2Zm22-8v1h-1a8 8 0 0 1-2 0l-1-1v-15l-1-2-1-1h-2l-3 1-3 3v15h-1a8 8 0 0 1-2 0h-1v-22h1a9 9 0 0 1 2 0h1v3l3-3 4-1 3 1 3 2 1 3v4Zm23 0v1h-3v-3l-3 3h-7l-2-1-2-2v-3l1-3 2-2 3-2h7v-4l-1-1-1-1-2-1-3 1a14 14 0 0 0-3 1l-1 1-1-1v-2l2-1 1-1a16 16 0 0 1 5-1l4 1 2 1 2 3v3Zm-4-9h-6l-2 1a3 3 0 0 0-1 3l1 2 3 1h3l2-3Zm43 9-1 1a8 8 0 0 1-3 0v-13l-1-3v-2l-2-1h-2l-2 1-3 3v15h-1a8 8 0 0 1-3 0v-16l-1-2a4 4 0 0 0-3-1l-3 1-3 3v15h-1a8 8 0 0 1-2 0h-1v-22h1a9 9 0 0 1 2 0h1v3l3-3 4-1 2 1h2l1 2 1 1a22 22 0 0 1 4-3l2-1h1l4 1 2 2 1 3 1 3Zm25-11-1 1-1 1h-14l1 3 1 2 2 2h3a13 13 0 0 0 5 0l1-1h2a6 6 0 0 1 0 2l-1 1-2 1a23 23 0 0 1-5 0h-5a8 8 0 0 1-5-6l-1-5 1-5 2-4 3-2 4-1 5 1a8 8 0 0 1 4 5l1 4Zm-4-1-2-5-4-2-2 1-2 1-1 2-1 3Z"/></g></g><path fill="url(#h)" d="M2813 858h856v380h-856z"/><text fill="#404040" font-family="Calibri,Calibri_MSFontService,sans-serif" font-size="83" font-weight="700" transform="translate(2846 951)">#[program]<tspan x="0" y="67" font-size="48" font-weight="400">Function_name</tspan></text><g clip-path="url(#i)" filter="url(#j)" transform="translate(2791 1317)"><g clip-path="url(#k)"><use xlink:href="#reuse-2"/></g></g><g clip-path="url(#l)" filter="url(#m)" transform="translate(2774 1309)"><g clip-path="url(#n)"><path fill="#F2F2F2" d="M112 88v2l-1 1-1 1h-4l-2 11h4l1 1 1 3v1l-1 1v1h-6l-1 13-1 1h-1a20 20 0 0 1-5 0l-1-1 1-13h-9l-1 13-1 1h-1a21 21 0 0 1-6 0v-1l1-13h-4l-1-1v-5l1-1h5l2-11h-5l-1-1v-6h6l2-12v-1h1l1-1a17 17 0 0 1 5 1h1v1l-2 12h9l2-12v-1h1l1-1a18 18 0 0 1 5 1h1v1l-2 12h5l1 3Zm-23 4-2 11h9l2-11Zm47 42v3l-1 1h-13l-1-1a3 3 0 0 1-1-1l-1-2V70l1-1v-2h16v2a15 15 0 0 1 0 4l-1 1h-6v56h6l1 1v3Zm43-11-1 1h-1a22 22 0 0 1-5 0l-1-1v-4l-6 4-7 2-7-2-5-4-2-6a35 35 0 0 1 0-17l3-6 5-4 7-2 5 1 5 4V69l1-1h2a21 21 0 0 1 6 0l1 1Zm-10-25-4-4-4-1-4 1-2 2-1 4-1 4 1 5 1 4 2 2 4 1a7 7 0 0 0 4-1l2-2 2-3Zm54 5-1 3-3 1h-22l1 4 2 4 3 2h4a25 25 0 0 0 11-2h3v1a19 19 0 0 1-1 5v1l-1 1-3 1a41 41 0 0 1-10 1l-8-1c-3-1-5-2-6-4l-4-6-1-9 1-9c1-2 2-5 4-6l6-4 7-2 8 1a14 14 0 0 1 9 10l1 7Zm-10-2-2-7c-1-2-3-3-6-3l-3 1-3 2-1 3-1 4Zm41-11a29 29 0 0 1-1 4l-1 1-1-1a35 35 0 0 0-2 0h-3l-1 1-2 2-2 3v23h-1v1h-2a25 25 0 0 1-7 0v-1h-1V86h1v-1h2a18 18 0 0 1 5 0l1 1v5l3-3 2-2a8 8 0 0 1 5-2 11 11 0 0 1 3 1h1v1l1 2v2Zm16 33-1 1h-2a25 25 0 0 1-6 0l-1-1V86l1-1h1a21 21 0 0 1 7 0l1 1v1Zm1-49-2 4-4 2-5-1-1-5 1-4 5-1 4 1 2 4Zm42 12a7 7 0 0 1 0 2l-1 1-10 33-1 1-1 1h-2a62 62 0 0 1-9 0l-2-1v-1l-11-33a20 20 0 0 1-1-3h1v-1h2a32 32 0 0 1 7 0l1 1v1l8 26v1l1-1 8-26v-1l1-1h2a25 25 0 0 1 6 0l1 1Zm38 17-1 3-2 1h-22l1 4 1 4 4 2h4a25 25 0 0 0 11-2h2v1a19 19 0 0 1 0 5v1l-2 1-3 1a41 41 0 0 1-9 1l-8-1c-3-1-5-2-6-4l-4-6-1-9 1-9c1-2 2-5 4-6l5-4 8-2 8 1a14 14 0 0 1 8 10l1 7Zm-10-2-1-7c-2-2-3-3-6-3l-3 1-3 2-1 3-1 4Zm35-32a84 84 0 0 0 0 68l-1 1h-3a20 20 0 0 1-4 0h-1v-1a80 80 0 0 1-9-35 73 73 0 0 1 9-35h1l1-1a30 30 0 0 1 5 0l1 1 1 1v1Zm52 51 1 2v2h-2a37 37 0 0 1-8 0l-1-1-4-11h-19l-4 10v1l-1 1h-2a39 39 0 0 1-5 0h-2v-4l17-47v-1h1l2-1a72 72 0 0 1 10 1h1v2Zm-24-38-7 22h15Zm58 35a21 21 0 0 1 0 3v1h-1l-2 2-2 1a22 22 0 0 1-15 0l-5-4-3-6-1-9 1-9 4-7 5-4a20 20 0 0 1 14 0 16 16 0 0 1 4 2v1l1 1v6l-2 1h-1l-2-2-2-1-4-1c-2 0-4 1-6 4l-2 9 1 5 1 3 3 3h7l3-2 2-1 1-1v1h1v4Zm34 0a21 21 0 0 1 0 3v1h-1l-1 2-3 1a22 22 0 0 1-14 0l-6-4-3-6-1-9 1-9 4-7 6-4a20 20 0 0 1 13 0 16 16 0 0 1 4 2l1 1v7l-1 1h-2l-1-2-3-1-3-1c-3 0-5 1-7 4l-2 9 1 5 1 3 3 3h7l3-2 2-1 1-1 1 1v4Zm44-13-2 9-3 6-6 4-9 2-9-1a15 15 0 0 1-9-11 29 29 0 0 1 0-17l4-6c1-2 4-3 6-4l9-2 8 1a15 15 0 0 1 9 11l2 8Zm-11 1v-5l-2-4-2-3-5-1-4 1-2 2-2 4-1 5 1 5 1 4 3 3 4 1 4-1 3-2 2-4v-5Zm52 18v1h-2a18 18 0 0 1-5 0l-1-1v-5c-2 3-4 4-6 5l-7 2-6-1-4-4-2-4-1-7V86l1-1h2a25 25 0 0 1 6 0l1 1v21l1 4 1 3 2 1 2 1 4-1 4-4V86h1v-1h2a25 25 0 0 1 6 0l1 1Zm45 0-1 1h-2a25 25 0 0 1-6 0l-1-1v-21l-1-4-1-3-2-1-2-1-4 1-4 5v24h-1l-1 1h-1a25 25 0 0 1-7 0v-1h-1V86h1v-1h2a18 18 0 0 1 5 0l1 1v5c2-3 4-4 6-5l7-2 6 1 4 4 2 5 1 6Zm30-4v3l-1 1-1 1h-1a17 17 0 0 1-5 1l-5-1a9 9 0 0 1-6-6l-1-6V93h-4l-1-1-1-3 1-2v-2h5v-8l1-1 2-1a25 25 0 0 1 7 1l1 1v8h8l1 1v1a16 16 0 0 1 0 5l-2 1h-7v17l1 5 3 1a7 7 0 0 0 2 0l1-1h1l1 1v3Zm33-7-1 6-4 4-5 2a24 24 0 0 1-17-2l-1-1v-6l1-1 2 1a28 28 0 0 0 5 2 13 13 0 0 0 6 0l2-1 1-1 1-2-1-2-2-1-3-2a71 71 0 0 1-6-2l-3-3-2-3-1-4 1-5 3-4 5-2a21 21 0 0 1 9-1 24 24 0 0 1 5 2l2 1 1 1a12 12 0 0 1 0 2 21 21 0 0 1-1 3v1h-2a20 20 0 0 0-4-2 13 13 0 0 0-6 0h-2a3 3 0 0 0-1 3l1 2 2 2 3 1a75 75 0 0 1 6 3l3 2a10 10 0 0 1 3 7Zm23-10a76 76 0 0 1-9 36h-2a20 20 0 0 1-4 0h-2v-2a88 88 0 0 0 5-51 83 83 0 0 0-5-17v-1l2-1h2a29 29 0 0 1 4 1h1a86 86 0 0 1 8 35Zm25 32v2l-1 1h-1l-1 1h-12l-1-1-1-3v-2l1-1 1-1h6V74h-6l-1-1-1-3v-1l1-2h15l1 2v1Z"/><use xlink:href="#reuse-3"/></g></g><path fill="url(#o)" d="M2813 1332h856v380h-856z"/><text fill="#F2F2F2" font-family="Calibri,Calibri_MSFontService,sans-serif" font-size="83" font-weight="700" transform="translate(2846 1426)">#[derive(Accounts)]<tspan x="0" y="73" fill="#FFF" font-size="55" font-weight="400">Pub struct FunctionName</tspan></text><g clip-path="url(#p)" filter="url(#q)" transform="translate(2791 1822)"><g clip-path="url(#r)"><use xlink:href="#reuse-2"/></g></g><g clip-path="url(#s)" filter="url(#t)" transform="translate(2774 1814)"><g clip-path="url(#u)"><path fill="#F2F2F2" d="M112 88v2l-1 1-1 1h-4l-2 11h4l1 1 1 3v1l-1 1v1h-6l-1 13-1 1h-1a20 20 0 0 1-5 0l-1-1 1-13h-9l-1 13-1 1h-1a21 21 0 0 1-6 0v-1l1-13h-4l-1-1v-5l1-1h5l2-11h-5l-1-1v-6h6l2-12v-1h1l1-1a17 17 0 0 1 5 1h1v1l-2 12h9l2-12v-1h1l1-1a18 18 0 0 1 5 1h1v1l-2 12h5l1 3Zm-23 4-2 11h9l2-11Zm47 42v3l-1 1h-13l-1-1a3 3 0 0 1-1-1l-1-2V70l1-1v-2h16v2a15 15 0 0 1 0 4l-1 1h-6v56h6l1 1v3Zm40-11-1 1h-7l-1-1v-3l-5 4-6 1-5-1-4-2c-2-1-3-2-3-4l-1-5 1-5 4-4 6-2 8-1h4v-2l-1-3-1-2-2-2h-8a26 26 0 0 0-6 3l-1 1-1-1-1-1v-1a11 11 0 0 1 0-4l1-1 2-1a23 23 0 0 1 7-2l5-1 7 1c2 1 4 1 5 3l3 4 1 6Zm-10-16h-4l-4 1-3 1-2 1v3l1 3 4 2 4-1 4-4Zm47 10a21 21 0 0 1 0 3v1h-1l-2 2-2 1a22 22 0 0 1-15 0l-5-4-3-6-1-9 1-9 4-7 5-4a20 20 0 0 1 14 0 16 16 0 0 1 4 2v1l1 1v3l-1 3-1 1h-1l-2-2-2-1-4-1c-2 0-5 1-6 4l-2 9v5l2 3 3 3h7l3-2 1-1 2-1v1h1v4Zm34 0a21 21 0 0 1 0 3v1h-1l-1 2-3 1a22 22 0 0 1-14 0l-6-4-3-6-1-9 1-9 4-7 6-4a20 20 0 0 1 13 0 16 16 0 0 1 4 2l1 1v7l-1 1h-2l-1-2-3-1-3-1c-3 0-5 1-7 4l-2 9 1 5 1 3 3 3h7l3-2 2-1 1-1 1 1v4Zm44-13-2 9-3 6-7 4-8 2-9-1a15 15 0 0 1-9-11 29 29 0 0 1 0-17l4-6c1-2 4-3 6-4l9-2 8 1a15 15 0 0 1 9 11l2 8Zm-11 1v-5l-2-4-2-3-5-1-4 1-2 2-2 4-1 5 1 5 1 4 3 3 4 1 4-1 3-2 2-4v-5Zm52 18v1h-2a18 18 0 0 1-5 0l-1-1v-5c-2 3-4 4-6 5l-7 2-6-1-4-4-2-4-1-7V86l1-1h2a25 25 0 0 1 6 0l1 1v25l2 3 2 1 2 1 4-1 4-4V86h1v-1h2a25 25 0 0 1 6 0l1 1Zm45 0-1 1h-2a25 25 0 0 1-6 0l-1-1v-21l-1-4-1-3-2-1-2-1-4 1-5 5v24l-1 1h-1a25 25 0 0 1-7 0v-1h-1V86l1-1h2a18 18 0 0 1 5 0l1 1v5c2-3 4-4 6-5l7-2 6 1 4 4 2 5 1 6Zm30-4v3l-1 1-1 1h-2a17 17 0 0 1-4 1l-5-1a9 9 0 0 1-6-6l-1-6V93h-4l-1-1-1-3 1-2v-2h5v-8l1-1 2-1a25 25 0 0 1 6 1h1l1 1v8h8l1 1v1a17 17 0 0 1 0 5l-2 1h-7v22l4 1a7 7 0 0 0 2 0l1-1h1l1 1v3Zm33-7-1 6-4 4-5 2a23 23 0 0 1-13 0l-3-1-1-1-1-1v-6l1-1 2 1a28 28 0 0 0 5 2 13 13 0 0 0 6 0l2-1 1-1 1-2-1-2-2-1-3-2a71 71 0 0 1-6-2l-3-3-2-3-1-4 1-5 3-4 5-2a21 21 0 0 1 9-1 24 24 0 0 1 5 2l2 1v1a12 12 0 0 1 1 2 21 21 0 0 1-1 3v1h-2a21 21 0 0 0-4-2 13 13 0 0 0-6 0h-2a3 3 0 0 0-1 3l1 2 2 2 3 1a75 75 0 0 1 6 3l3 2a10 10 0 0 1 3 7Zm22 22v3h-1l-2 1h-12l-1-1-1-3v-2l1-1 1-1h6V74h-6l-1-1-1-3v-1l1-2h16v3Z"/><use xlink:href="#reuse-3"/></g></g><path fill="url(#v)" d="M2813 1837h856v380h-856z"/><text fill="#F2F2F2" font-family="Calibri,Calibri_MSFontService,sans-serif" font-size="83" font-weight="700" transform="translate(2846 1931)">#[accounts]<tspan x="0" y="73" fill="#FFF" font-size="55" font-weight="400">Pub struct FunctionName</tspan></text><g clip-path="url(#w)" filter="url(#x)" transform="translate(1501 1186)"><g clip-path="url(#y)"><path fill="red" fill-rule="evenodd" d="M22 183 184 22v81h781V22l161 161-161 162v-81H184v81Z"/></g></g><path fill="url(#z)" fill-rule="evenodd" d="m1523 1363 162-162v81h781v-81l161 162-161 161v-81h-781v81Z"/><g clip-path="url(#A)" filter="url(#B)" transform="translate(1797 1156)"><g clip-path="url(#C)"><path fill="red" d="M22 22h581v379H22z"/></g></g><g clip-path="url(#D)" filter="url(#E)" transform="translate(1781 1147)"><g fill="#404040" clip-path="url(#F)"><path d="M88 123h-1v1h-2a23 23 0 0 1-7 0l-1-1V72h1l2-1a22 22 0 0 1 7 1l1 1Zm45 0-1 1h-2a25 25 0 0 1-6 0l-1-1v-21l-1-4-1-3-2-1-3-1-3 1-5 5v24l-1 1h-1a25 25 0 0 1-7 0l-1-1V86l1-1h2a18 18 0 0 1 5 0l1 1v5c2-3 4-4 6-5l6-2 7 1 4 4 2 5 1 6Zm30-4v3l-1 1-1 1h-2a17 17 0 0 1-4 1l-5-1a9 9 0 0 1-6-6l-1-6V93h-4l-1-1-1-3 1-2v-2h5v-8l1-1 2-1a25 25 0 0 1 6 1h1v9h9l1 1v1a16 16 0 0 1 0 5l-2 1h-8v17l1 5 4 1a7 7 0 0 0 2 0l1-1h1l1 1v3Zm40-16-1 3-3 1h-22l1 4 2 4 3 2h4a25 25 0 0 0 11-2h3v1a19 19 0 0 1 0 5l-1 1-1 1-3 1a41 41 0 0 1-10 1l-8-1-6-4-4-6-1-9 1-9c1-2 2-5 4-6l6-4 8-2 7 1a14 14 0 0 1 9 10l1 7Zm-10-2-2-7c-1-2-3-3-6-3l-3 1-2 2-2 3-1 4Zm41-11a29 29 0 0 1-1 4l-1 1v-1a35 35 0 0 0-2 0h-4l-1 1-2 2-2 3v23h-1v1h-2a25 25 0 0 1-6 0l-1-1h-1V86h1v-1h2a18 18 0 0 1 5 0l1 1v5l3-3 2-2a8 8 0 0 1 5-2 11 11 0 0 1 3 1h1v1h1v4Zm27-17v3h-1a12 12 0 0 0-2 0l-2-1-2 1-1 1-1 2v6h7l1 1v1a16 16 0 0 1 0 5l-2 1h-6v30l-1 1h-2a25 25 0 0 1-6 0l-1-1V93h-5l-1-1v-7h6v-9l3-5 4-3 5-1a16 16 0 0 1 6 1l1 1v4Zm35 50-1 1h-8v-4l-5 4-6 1-6-1-4-2-3-4-1-5 2-5 3-4 7-2 8-1h3v-5l-1-2-2-2h-8a26 26 0 0 0-6 3l-2 1-1-1v-2a11 11 0 0 1 0-4v-1l2-1a23 23 0 0 1 8-2l5-1 7 1 5 3 3 4 1 6Zm-11-16h-3l-5 1-2 1-2 1-1 3 2 3 4 2 4-1 3-4Zm48 10a21 21 0 0 1 0 3l-1 1-2 2-3 1a22 22 0 0 1-14 0l-5-4-4-6-1-9 2-9c0-3 2-5 3-7l6-4a20 20 0 0 1 13 0 16 16 0 0 1 4 2l1 1v1l1 1v2l-1 3-1 1h-1l-2-2-3-1-3-1c-3 0-5 1-6 4-2 2-2 5-2 9v5l2 3 2 3h8l2-2 2-1 1-1 1 1 1 2v2Zm40-14-1 3-2 1h-22l1 4 1 4 3 2h5a25 25 0 0 0 11-2h2v1a19 19 0 0 1 0 5v1l-2 1-3 1a41 41 0 0 1-9 1l-8-1-7-4-3-6-1-9 1-9c1-2 2-5 4-6l5-4 8-2 8 1a14 14 0 0 1 8 10l1 7Zm-10-2-1-7-6-3-4 1-2 2-1 3-1 4ZM111 222l-1 1h-1a22 22 0 0 1-6 0l-1-1v-4l-6 4-7 2-7-2-4-4-3-6a35 35 0 0 1 0-17l3-6 5-4 7-2 6 1 5 4v-20l1-1h1a21 21 0 0 1 7 0v1h1Zm-10-25-5-4-4-1-3 1-3 2-1 4v9l1 4 3 2 3 1a7 7 0 0 0 4-1l2-2 3-3Zm53 5-1 3-2 1h-22v4l2 4 3 2h5a25 25 0 0 0 10-2h3v1a19 19 0 0 1 0 5l-1 1-1 1-3 1a41 41 0 0 1-9 1l-9-1-6-4-3-6-2-9 2-9 3-6 6-4 8-2 8 1a14 14 0 0 1 8 10l1 7Zm-10-2c0-3 0-6-2-7-1-2-3-3-5-3l-4 1-2 2-2 3v4Zm43 11-1 6-3 4-5 2a23 23 0 0 1-17-2l-1-1v-7h1l1 1a28 28 0 0 0 6 2 13 13 0 0 0 6 0l2-1 1-1v-4l-2-1-3-2a71 71 0 0 1-7-2l-2-3-2-3-1-4 1-5 3-4 4-2a21 21 0 0 1 10-1 24 24 0 0 1 5 2l1 1h1v1a12 12 0 0 1 0 2 21 21 0 0 1 0 3v1h-2a20 20 0 0 0-5-2 13 13 0 0 0-6 0h-1a3 3 0 0 0-2 3l1 2 2 2 3 1a75 75 0 0 1 7 3l2 2a10 10 0 0 1 3 7Zm35 5a21 21 0 0 1 0 3l-1 1-2 2-3 1a22 22 0 0 1-14 0l-5-4-4-6-1-9 2-9 3-7 6-4a20 20 0 0 1 14 0 16 16 0 0 1 4 2v2l1 1v2l-1 3-1 1h-1l-2-2-3-1-3-1c-3 0-5 1-6 4-2 2-2 5-2 9v5l2 3 2 3h8l2-2 2-1 2-1v1h1v4Zm30-27a29 29 0 0 1 0 4h-1v1l-1-1a37 37 0 0 0-2 0h-3l-2 1-2 2-2 3v23l-1 1h-2a25 25 0 0 1-6 0l-1-1v-37l1-1h1a18 18 0 0 1 6 0v1h1v5l2-3 3-2a8 8 0 0 1 4-2 11 11 0 0 1 4 1l1 1v4Zm16 33-1 1h-1a25 25 0 0 1-7 0l-1-1v-37l1-1h2a21 21 0 0 1 6 0l1 1v1Zm1-49-1 4-5 2-5-1-1-5 2-4 4-1 5 1 1 4Zm46 30-2 9-3 6-4 4a15 15 0 0 1-10 2l-3-1-2-2-3-2v18h-1l-1 1a21 21 0 0 1-7-1h-1v-52l1-1h1a18 18 0 0 1 6 0l1 1v5a37 37 0 0 1 6-5 14 14 0 0 1 7-2l7 2 4 4 3 6 1 8Zm-11 1v-5l-2-3c0-2-1-2-2-3l-3-1a7 7 0 0 0-4 1l-2 2-3 3v12l4 4 4 1 4-1 2-2 1-4 1-4Zm39 14v3l-1 1-1 1h-1a17 17 0 0 1-5 1l-5-1a9 9 0 0 1-6-6v-25h-5l-1-1v-6l1-1h5v-9h1l1-1a25 25 0 0 1 7 1h1v9h8l1 1v1a17 17 0 0 1 0 5l-1 1h-8v17l1 5 3 1a7 7 0 0 0 3 0l1-1h1v4Zm18 4-1 1h-2a25 25 0 0 1-6 0l-1-1v-37l1-1h1a21 21 0 0 1 7 0l1 1v1Zm1-49-2 4-4 2-5-1-1-5 1-4 5-1 4 1 2 4Zm45 30-1 9-4 6c-1 2-3 3-6 4l-9 2-8-1a15 15 0 0 1-9-11 29 29 0 0 1 0-17l3-6 7-4 8-2 9 1a15 15 0 0 1 9 11l1 8Zm-10 1-1-5-1-4-3-3-4-1-4 1-3 2-2 4v10l2 4 2 3 5 1 4-1 3-2 1-4 1-5Zm52 18-1 1h-1a25 25 0 0 1-7 0l-1-1v-25l-1-3-2-1-3-1-4 1-4 5v24l-1 1h-2a25 25 0 0 1-6 0l-1-1v-37l1-1h1a18 18 0 0 1 6 0v6c2-3 4-4 7-5l6-2 6 1 4 4 3 5v6ZM87 321h-1v1h-2a25 25 0 0 1-6 0l-1-1h-1v-54h1l1-1h1a21 21 0 0 1 7 0v1h1Zm40 0v1h-8v-4l-5 4-7 1-5-1-4-2-3-4-1-5 2-5c0-2 2-3 3-4l6-2 9-1h3v-5l-1-2-2-2h-8a26 26 0 0 0-6 3l-2 1-1-1v-1l-1-1a11 11 0 0 1 0-4l1-1 2-1a23 23 0 0 1 8-2l4-1 8 1 5 3 2 4 1 6Zm-10-16h-4l-4 1-3 1-1 1-1 3 2 3 4 2 4-1 3-4Zm55 16h-1v1h-2a25 25 0 0 1-6 0l-1-1v-21l-1-4-1-3-2-1-3-1-3 1-5 5v24l-1 1h-1a25 25 0 0 1-7 0l-1-1v-37l1-1h1a18 18 0 0 1 6 0l1 1v5c2-3 4-4 6-5l6-2 7 1 4 4 2 5 1 6Zm42-34-1 3-1 1h-4l1 2 1 3-1 5-3 4-5 3-6 1-4-1-2-1-1 2v1l1 2 3 1h8l6 1 4 2 3 4v4a11 11 0 0 1-4 9l-6 3-8 1-8-1-6-2-3-3-1-4a9 9 0 0 1 2-5l1-2 3-2a7 7 0 0 1-4-6l1-4 3-4a11 11 0 0 1-3-8l1-6 3-4 5-3 6-1a25 25 0 0 1 6 1h11l1 1 1 3Zm-13 9-2-5-4-2-3 1a5 5 0 0 0-3 3v3l1 4 5 2 2-1 2-1 1-2 1-2Zm2 28-1-2-4-1-8-1a11 11 0 0 0-2 3l-1 1v2l2 3 6 1 4-1 2-1a4 4 0 0 0 2-4Zm52-3h-1v1h-2a18 18 0 0 1-5 0l-1-1v-5c-2 3-4 4-6 5l-7 2-6-1-4-4-2-4-1-7v-23l1-1h2a25 25 0 0 1 6 0l1 1v21l1 4 1 3 2 1 2 1 4-1 4-4v-25h1v-1h2a25 25 0 0 1 6 0l1 1h1Zm40 0v1h-8v-4l-5 4-7 1-5-1-4-2-3-4-1-5 1-5 4-4 6-2 9-1h3v-5l-1-2-2-2h-8a26 26 0 0 0-6 3l-2 1-1-1v-1l-1-1a11 11 0 0 1 0-4l1-1 2-1a23 23 0 0 1 8-2l4-1 7 1c2 1 4 1 5 3 2 1 3 2 3 4l1 6Zm-10-16h-4l-4 1-3 1-1 1-1 3 2 3 4 2 3-1 4-4Zm53-18-1 3-1 1h-4l1 2v3l-1 5c0 2-1 3-3 4l-4 3-7 1-3-1-2-1-1 2-1 1 2 2 2 1h9l6 1 4 2 2 4 1 4a11 11 0 0 1-5 9l-5 3-9 1-8-1-5-2-3-3-1-4a9 9 0 0 1 1-5l2-2 2-2a7 7 0 0 1-3-6l1-4c0-2 1-3 3-4a11 11 0 0 1-4-8l2-6c0-2 1-3 3-4l4-3 6-1a25 25 0 0 1 7 1h11l1 1 1 3Zm-13 9-2-5-5-2-2 1a5 5 0 0 0-3 3l-1 3 2 4 4 2 3-1 2-1 1-2 1-2Zm2 28-2-2-4-1-7-1a11 11 0 0 0-2 3l-1 1v2l2 3 6 1 4-1 2-1a4 4 0 0 0 2-4Zm50-23-1 3-3 1h-22l1 4 2 4 3 2h4a25 25 0 0 0 11-2h3v1a19 19 0 0 1-1 5v1l-1 1-3 1a41 41 0 0 1-10 1l-8-1c-3-1-5-2-6-4l-4-6-1-9 1-9c1-2 2-5 4-6 1-2 3-3 6-4l7-2 8 1a14 14 0 0 1 9 10l1 7Zm-10-2-2-7c-1-2-3-3-6-3l-3 1-3 2-1 3-1 4Z"/></g></g><path fill="url(#G)" d="M1819 1171h581v379h-581z"/><text fill="#404040" font-family="Calibri,Calibri_MSFontService,sans-serif" font-size="83" font-weight="700" transform="translate(1852 1264)">Interface <tspan x="0" y="99">description </tspan><tspan x="0" y="198">language</tspan></text></g></svg>